<mxfile host="Electron" modified="2024-01-15T02:04:46.082Z" agent="Mozilla/5.0 (Windows NT 10.0; Win64; x64) AppleWebKit/537.36 (KHTML, like Gecko) draw.io/22.1.18 Chrome/120.0.6099.199 Electron/28.1.2 Safari/537.36" etag="9v5nUvOn7f1tvEVsX7V_" version="22.1.18" type="device">
  <diagram name="Page-1" id="OFwWZKaxgNHkR9jEiIPD">
    <mxGraphModel dx="3134" dy="836" grid="1" gridSize="10" guides="1" tooltips="1" connect="1" arrows="1" fold="1" page="1" pageScale="1" pageWidth="850" pageHeight="1100" math="0" shadow="0">
      <root>
        <mxCell id="0" />
        <mxCell id="1" parent="0" />
        <mxCell id="abdKoB1VeoWTYlpOvYKU-307" value="" style="ellipse;whiteSpace=wrap;html=1;aspect=fixed;fillColor=#f9f7ed;strokeColor=#36393d;" parent="1" vertex="1">
          <mxGeometry x="-1470" y="206" width="334" height="334" as="geometry" />
        </mxCell>
        <mxCell id="abdKoB1VeoWTYlpOvYKU-156" value="" style="group;labelPosition=center;verticalLabelPosition=bottom;align=center;verticalAlign=top;" parent="1" vertex="1" connectable="0">
          <mxGeometry x="-870" y="100" width="1003" height="422" as="geometry" />
        </mxCell>
        <mxCell id="abdKoB1VeoWTYlpOvYKU-157" value="&lt;b style=&quot;border-color: var(--border-color); text-align: center;&quot;&gt;&lt;font style=&quot;border-color: var(--border-color); font-size: 12px;&quot;&gt;On-Premises&lt;/font&gt;&lt;/b&gt;" style="whiteSpace=wrap;html=1;align=left;fontFamily=Oracle Sans;verticalAlign=top;fillColor=#F5F4F2;fontColor=#312D2A;strokeColor=#9E9892;rounded=1;arcSize=1;fontSize=11;spacingRight=5;container=0;spacingLeft=3;" parent="abdKoB1VeoWTYlpOvYKU-156" vertex="1">
          <mxGeometry x="210" width="695" height="407" as="geometry" />
        </mxCell>
        <mxCell id="abdKoB1VeoWTYlpOvYKU-159" value="AppSurvey&#39;s garage" style="whiteSpace=wrap;html=1;strokeWidth=1;align=center;fontFamily=Oracle Sans;verticalAlign=top;fillColor=#DFDCD8;fontColor=#312D2A;strokeColor=#9E9892;rounded=1;arcSize=1;fontStyle=1;container=0;" parent="abdKoB1VeoWTYlpOvYKU-156" vertex="1">
          <mxGeometry x="614" y="8" width="286" height="383" as="geometry" />
        </mxCell>
        <mxCell id="abdKoB1VeoWTYlpOvYKU-177" value="Linux&#xa;Server" style="shape=image;verticalLabelPosition=top;verticalAlign=bottom;imageAspect=0;aspect=fixed;image=data:image/svg+xml,PHN2ZyB4bWxucz0iaHR0cDovL3d3dy53My5vcmcvMjAwMC9zdmciIHhtbG5zOnhsaW5rPSJodHRwOi8vd3d3LnczLm9yZy8xOTk5L3hsaW5rIiB2ZXJzaW9uPSIxLjEiIGlkPSJMYXllcl8xIiB4PSIwcHgiIHk9IjBweCIgdmlld0JveD0iMCAwIDQyIDQyIiBzdHlsZT0iZW5hYmxlLWJhY2tncm91bmQ6bmV3IDAgMCA0MiA0MjsiIHhtbDpzcGFjZT0icHJlc2VydmUiIHdpZHRoPSI0MiIgaGVpZ2h0PSI0MiI+JiN4YTs8c3R5bGUgdHlwZT0idGV4dC9jc3MiPiYjeGE7CS5zdDB7ZmlsbDojRkZGRkZGO30mI3hhOwkuc3Qxe2ZpbGw6IzJDNTk2Nzt9JiN4YTs8L3N0eWxlPiYjeGE7PGc+JiN4YTsJPGc+JiN4YTsJCTxnPiYjeGE7CQkJPHBhdGggY2xhc3M9InN0MCIgZD0iTTIuNjcsNDEuNWMtMS4xOSwwLTIuMTctMC45Ny0yLjE3LTIuMTdWMi42N2MwLTEuMTksMC45Ny0yLjE3LDIuMTctMi4xN2gzNi42N2MxLjE5LDAsMi4xNywwLjk3LDIuMTcsMi4xNyYjMTA7JiM5OyYjOTsmIzk7JiM5O3YzNi42N2MwLDEuMTktMC45NywyLjE3LTIuMTcsMi4xN0gyLjY3eiIvPiYjeGE7CQkJPHBhdGggY2xhc3M9InN0MCIgZD0iTTM5LjMzLDFDNDAuMjUsMSw0MSwxLjc1LDQxLDIuNjd2MzYuNjdjMCwwLjkyLTAuNzUsMS42Ny0xLjY3LDEuNjdIMi42N0MxLjc1LDQxLDEsNDAuMjUsMSwzOS4zM1YyLjY3JiMxMDsmIzk7JiM5OyYjOTsmIzk7QzEsMS43NSwxLjc1LDEsMi42NywxSDM5LjMzIE0zOS4zMywwSDIuNjdDMS4yLDAsMCwxLjIsMCwyLjY3djM2LjY3QzAsNDAuOCwxLjIsNDIsMi42Nyw0MmgzNi42N0M0MC44LDQyLDQyLDQwLjgsNDIsMzkuMzNWMi42NyYjMTA7JiM5OyYjOTsmIzk7JiM5O0M0MiwxLjIsNDAuOCwwLDM5LjMzLDBMMzkuMzMsMHoiLz4mI3hhOwkJPC9nPiYjeGE7CQk8Zz4mI3hhOwkJCTxwYXRoIGNsYXNzPSJzdDEiIGQ9Ik0zOS4zMywxSDIuNjdDMS43NSwxLDEsMS43NSwxLDIuNjd2MzYuNjdDMSw0MC4yNSwxLjc1LDQxLDIuNjcsNDFoMzYuNjdjMC45MiwwLDEuNjctMC43NSwxLjY3LTEuNjdWMi42NyYjMTA7JiM5OyYjOTsmIzk7JiM5O0M0MSwxLjc1LDQwLjI1LDEsMzkuMzMsMXogTTM5LjUyLDM5LjMzYzAsMC4xLTAuMDgsMC4xOS0wLjE5LDAuMTlIMi42N2MtMC4xLDAtMC4xOS0wLjA4LTAuMTktMC4xOVYyLjY3JiMxMDsmIzk7JiM5OyYjOTsmIzk7YzAtMC4xLDAuMDgtMC4xOSwwLjE5LTAuMTloMzYuNjdjMC4xLDAsMC4xOSwwLjA4LDAuMTksMC4xOVYzOS4zM3oiLz4mI3hhOwkJCTxwYXRoIGNsYXNzPSJzdDEiIGQ9Ik01LjQ0LDM2LjM3aDMxLjExdi04Ljg5SDUuNDRWMzYuMzd6IE02LjkzLDI4Ljk2aDI4LjE1djUuOTNINi45M1YyOC45NnoiLz4mI3hhOwkJCTxjaXJjbGUgY2xhc3M9InN0MSIgY3g9IjMxLjc0IiBjeT0iMzEuOTMiIHI9IjEuMTEiLz4mI3hhOwkJCTxwYXRoIGNsYXNzPSJzdDEiIGQ9Ik01LjQ0LDE0LjMzaDMxLjExVjUuNDRINS40NFYxNC4zM3ogTTYuOTMsNi45M2gyOC4xNXY1LjkzSDYuOTNWNi45M3oiLz4mI3hhOwkJCTxjaXJjbGUgY2xhc3M9InN0MSIgY3g9IjMxLjc0IiBjeT0iOS44OSIgcj0iMS4xMSIvPiYjeGE7CQkJPHBhdGggY2xhc3M9InN0MSIgZD0iTTUuNDQsMjUuNDRoMzEuMTF2LTguODlINS40NFYyNS40NHogTTYuOTMsMTguMDRoMjguMTV2NS45M0g2LjkzVjE4LjA0eiIvPiYjeGE7CQkJPGNpcmNsZSBjbGFzcz0ic3QxIiBjeD0iMzEuNzQiIGN5PSIyMSIgcj0iMS4xMSIvPiYjeGE7CQk8L2c+JiN4YTsJPC9nPiYjeGE7PC9nPiYjeGE7PC9zdmc+;fontColor=#312D2A;strokeColor=#9E9892;fillColor=#FCFBFA;container=0;labelPosition=center;align=center;" parent="abdKoB1VeoWTYlpOvYKU-156" vertex="1">
          <mxGeometry x="670" y="115" width="65" height="65" as="geometry" />
        </mxCell>
        <mxCell id="abdKoB1VeoWTYlpOvYKU-198" value="" style="shape=image;aspect=fixed;image=data:image/svg+xml,PD94bWwgdmVyc2lvbj0iMS4wIiBlbmNvZGluZz0idXRmLTgiPz4NCjwhLS0gR2VuZXJhdG9yOiBBZG9iZSBJbGx1c3RyYXRvciAyNC4wLjIsIFNWRyBFeHBvcnQgUGx1Zy1JbiAuIFNWRyBWZXJzaW9uOiA2LjAwIEJ1aWxkIDApICAtLT4NCjxzdmcgdmVyc2lvbj0iMS4xIiBpZD0iTGF5ZXJfMSIgeG1sbnM9Imh0dHA6Ly93d3cudzMub3JnLzIwMDAvc3ZnIiB4bWxuczp4bGluaz0iaHR0cDovL3d3dy53My5vcmcvMTk5OS94bGluayIgeD0iMHB4IiB5PSIwcHgiDQoJIHZpZXdCb3g9IjAgMCA0MiA0MiIgc3R5bGU9ImVuYWJsZS1iYWNrZ3JvdW5kOm5ldyAwIDAgNDIgNDI7IiB4bWw6c3BhY2U9InByZXNlcnZlIj4NCjxzdHlsZSB0eXBlPSJ0ZXh0L2NzcyI+DQoJLnN0MHtmaWxsOiNGRkZGRkY7fQ0KCS5zdDF7ZmlsbDojMkM1OTY3O30NCjwvc3R5bGU+DQo8Zz4NCgk8cGF0aCBjbGFzcz0ic3QwIiBkPSJNMi43LDQxLjVjLTEuMiwwLTIuMi0xLTIuMi0yLjJWMi43YzAtMS4yLDEtMi4yLDIuMi0yLjJoMzYuN2MxLjIsMCwyLjIsMSwyLjIsMi4ydjM2LjdjMCwxLjItMSwyLjItMi4yLDIuMg0KCQlIMi43eiIvPg0KCTxwYXRoIGNsYXNzPSJzdDAiIGQ9Ik0zOS4zLDFDNDAuMywxLDQxLDEuNyw0MSwyLjd2MzYuN2MwLDAuOS0wLjcsMS43LTEuNywxLjdIMi43QzEuNyw0MSwxLDQwLjMsMSwzOS4zVjIuN0MxLDEuNywxLjcsMSwyLjcsMQ0KCQlIMzkuMyBNMzkuMywwSDIuN0MxLjIsMCwwLDEuMiwwLDIuN3YzNi43QzAsNDAuOCwxLjIsNDIsMi43LDQyaDM2LjdjMS41LDAsMi43LTEuMiwyLjctMi43VjIuN0M0MiwxLjIsNDAuOCwwLDM5LjMsMEwzOS4zLDB6Ii8+DQo8L2c+DQo8Zz4NCgk8cGF0aCBjbGFzcz0ic3QxIiBkPSJNMzkuMywxSDIuN0MxLjcsMSwxLDEuNywxLDIuN3YzNi43QzEsNDAuMywxLjcsNDEsMi43LDQxaDM2LjdjMC45LDAsMS43LTAuNywxLjctMS43VjIuNw0KCQlDNDEsMS43LDQwLjMsMSwzOS4zLDF6IE0zOS41LDM5LjNjMCwwLjEtMC4xLDAuMi0wLjIsMC4ySDIuN2MtMC4xLDAtMC4yLTAuMS0wLjItMC4yVjIuN2MwLTAuMSwwLjEtMC4yLDAuMi0wLjJoMzYuNw0KCQljMC4xLDAsMC4yLDAuMSwwLjIsMC4yVjM5LjN6Ii8+DQoJPHBhdGggY2xhc3M9InN0MSIgZD0iTTIxLDMuNkMxMS40LDMuNiwzLjYsMTEuNCwzLjYsMjFTMTEuNCwzOC40LDIxLDM4LjRTMzguNCwzMC42LDM4LjQsMjFTMzAuNiwzLjYsMjEsMy42eiBNMjEsMzYuOQ0KCQljLTguOCwwLTE1LjktNy4xLTE1LjktMTUuOVMxMi4yLDUuMSwyMSw1LjFTMzYuOSwxMi4yLDM2LjksMjFTMjkuOCwzNi45LDIxLDM2Ljl6Ii8+DQoJPHBvbHlnb24gY2xhc3M9InN0MSIgcG9pbnRzPSIyMS43LDMxLjEgMjEuNywxMS4xIDI0LDEzLjQgMjUsMTIuMyAyMSw4LjMgMTcsMTIuMyAxOCwxMy40IDIwLjMsMTEuMSAyMC4zLDMxLjEgMTgsMjguOCAxNywyOS45IA0KCQkyMSwzMy45IDI1LDI5LjkgMjQsMjguOCAJIi8+DQoJPHBvbHlnb24gY2xhc3M9InN0MSIgcG9pbnRzPSIyNi45LDE4IDI1LjgsMTcgMjEuOCwyMSAyNS44LDI1IDI2LjksMjQgMjQuNiwyMS43IDMzLjgsMjEuNyAzMy44LDIwLjMgMjQuNiwyMC4zIAkiLz4NCgk8cG9seWdvbiBjbGFzcz0ic3QxIiBwb2ludHM9IjE2LjIsMTcgMTUuMSwxOCAxNy40LDIwLjMgOC4yLDIwLjMgOC4yLDIxLjcgMTcuNCwyMS43IDE1LjEsMjQgMTYuMiwyNSAyMC4yLDIxIAkiLz4NCjwvZz4NCjwvc3ZnPg0K;" parent="abdKoB1VeoWTYlpOvYKU-156" vertex="1">
          <mxGeometry x="190" y="176.00000000000003" width="40" height="40" as="geometry" />
        </mxCell>
        <UserObject label="Customer&lt;br style=&quot;font-size: 11px;&quot;&gt;Premises&lt;br style=&quot;font-size: 11px;&quot;&gt;Equipment" placeholders="1" name="Variable" id="abdKoB1VeoWTYlpOvYKU-199">
          <mxCell style="text;html=1;strokeColor=none;fillColor=none;align=center;verticalAlign=middle;whiteSpace=wrap;overflow=hidden;rounded=0;glass=0;dashed=1;labelBackgroundColor=none;sketch=0;fontSize=11;fontStyle=0" parent="abdKoB1VeoWTYlpOvYKU-156" vertex="1">
            <mxGeometry x="183.5" y="216" width="56.5" height="44" as="geometry" />
          </mxCell>
        </UserObject>
        <mxCell id="abdKoB1VeoWTYlpOvYKU-206" value="" style="group" parent="abdKoB1VeoWTYlpOvYKU-156" vertex="1" connectable="0">
          <mxGeometry x="820" y="305" width="83" height="82" as="geometry" />
        </mxCell>
        <mxCell id="abdKoB1VeoWTYlpOvYKU-207" style="vsdxID=13;fillColor=none;gradientColor=none;strokeColor=none;spacingTop=-3;spacingBottom=-3;spacingLeft=-3;spacingRight=-3;points=[];labelBackgroundColor=none;rounded=0;html=1;whiteSpace=wrap;dashed=1;dashPattern=1 1;fontFamily=Helvetica;fontSize=12;fontColor=#312D2A;align=center;aspect=fixed;" parent="abdKoB1VeoWTYlpOvYKU-206" vertex="1">
          <mxGeometry x="22.75" width="37.5" height="42" as="geometry" />
        </mxCell>
        <mxCell id="abdKoB1VeoWTYlpOvYKU-208" style="vsdxID=14;fillColor=#FFFFFF;gradientColor=none;shape=stencil(hZNNEoIwDIVP020nbYSha3/uwShIRwSnguLtBVtpU0V3Tfoe+ZIGhutrlV8KJuHamfZU3PWhqxhumJS6qQqju/HEcMtwXbamOJq2bw42vuSTcjqd29v0hcH6VoorNbkkPGxGALzinZXve2P1whlWPMucQVAHDNImXPhwoVI8RadAqnBhlvJEhVVr3QSQQAGRZ78IgdIBR0XxwhYo8RsvnAohXiiZJBxUVJbWnGc0V/RYGEvwe6N0KF6+MMMY0hvE57vIuREhKah/3eXhRDtDQf+u2Hjw61nqurbbHd7H6zym7K+A2yc=);strokeColor=none;spacingTop=-3;spacingBottom=-3;spacingLeft=-3;spacingRight=-3;points=[];labelBackgroundColor=none;rounded=0;html=1;whiteSpace=wrap;dashed=1;dashPattern=1 1;fontFamily=Helvetica;fontSize=12;fontColor=#312D2A;align=center;" parent="abdKoB1VeoWTYlpOvYKU-207" vertex="1">
          <mxGeometry x="0.5" y="0.5" width="36.5" height="41" as="geometry" />
        </mxCell>
        <mxCell id="abdKoB1VeoWTYlpOvYKU-209" style="vsdxID=15;fillColor=#FFFFFF;gradientColor=none;shape=stencil(lVTRcoMgEPwaXpmDQ5TnNPmPTGOqU6sZY9r076sF5cAhJm+47HJ7xwrD3bU6Xkom4Tr03Wf5U5+GiuEbk7Juq7Kvh3HFcM9wd+768qPvbu3Jfl+OE3NafXXf0wl3q1OGGzOpJPxaRHIs/oGD5b/feisQdl9rrnKnEJEE7tIiJueoHMlBipvMkXBNcpBQXOe0elO3xC1VWKTIeC4e2aWSGcq4VKHfsSnUod9RqGVomA4LY1aiPiLXIqpPTpbzBHVcnpjEFQkT3YfjIoLEeGO3RCFW1yZ9R9HdkgCkRxUHK/S6HcSt4MKjxpTwpgXlL21B2BLMk11aAvZKVIG9FFMIvRmz5HH2RztwkABgW1OfOYm6WbH6PfypcZklm6O7aDie81w0Pf/JZHqBWF2QXHpRJnS6PR9Ie9yI2Ljwr+q5bhr7KNP9+BUeIfuC4/4P);strokeColor=none;spacingTop=-3;spacingBottom=-3;spacingLeft=-3;spacingRight=-3;points=[];labelBackgroundColor=none;rounded=0;html=1;whiteSpace=wrap;dashed=1;dashPattern=1 1;fontFamily=Helvetica;fontSize=12;fontColor=#312D2A;align=center;" parent="abdKoB1VeoWTYlpOvYKU-207" vertex="1">
          <mxGeometry width="37.5" height="42" as="geometry" />
        </mxCell>
        <mxCell id="abdKoB1VeoWTYlpOvYKU-210" style="vsdxID=16;fillColor=#2d5967;gradientColor=none;shape=stencil(lVjLctswDPwaXzkkwec5Tf4j0zi1p26ccZI2/fuClUgRIEVFN1sGscACC1A+wN3b6fH1eNDy7f12/Xn8c356Px3g20Hr88vpeDu/46cD3B/g7vl6O/64XT9enqbvr4/JMn36df2dPHxO55SU6YyWf+fvWsT/Dx4m6+8ft8lccfv5gRZ+evCppwfOCzObzE/mE58wfTVRxDhbQG2xAgla2EBBJYWUFG8JCejv0M/xcn6pGKF8BC/sKDjGRszmJTaM3msaX+FwwEi2WYFFkrWj0ItXDpNxq+CAm0A/XUrNVrPss6aNGI2AQOzdRivWJzItIIDxH7XQgfLgrHCUh6CFs5QJZNj5EbxXIioGH4VXTA1SREfhvcyeRw2AVhaGsggisvSTZ0fxtV+sdInSRdYH2E6qzV8P829Uibxaxr7NThZ0LBEFr2ygVD4M2rA6MNNnxiJVtjCeY0XGgQ0uqEjI4cscyBKtFApouIvVmlpBSEPxa88zWDDCMfw6Sihdn2uc8Xn6lK1tYe213xIudiYM+egoF8+ETeEaJSSjo6NcA0KNO7dVrrFCMeV0lGtc9jxSLvqKw8nRUW7yzCZHR7kpSiaejnIxfzmeXI1yE7GawrfKxbA9F0Mj3VT7HcpVUei90tUmnxlJF7E865WOdBerr0u39rwu3RTltnSb/Le02Ghr9wF2/0PmDDngRRgyolnvIBuRslH3d+5cEVjjdoQznqFcsTnMAsuvWVaEQDFxWHhWgDCcU7ppPsUuWUi4Zbh4z2EyqY1W7qCdEVmOZOhlcy4j0gIDt41IO1lj1YfonkFr2cyHpt9xhGyXGB0NgTujMTk27WiMDF4uVtVoNG3eG5cawwteEbo6GrE0DLydjFsVr06ocoIl7psxo6rKLEmWGZAvk8N7+uYI2GtPR0zqv0js02ofl0ELyfSOgtBszji1WGVF2PJeNOjCWPbo19uw9ry+oeso1zf0dv7Nho64u9i8a9sw5DoP2nD8htcsaHxZkHsXtIesstGC9rbRTLufi9HX13Pld3071yGub+cm+WbZlhN9cjtT3bHX9lSz9pXVspsnll+zeFFWkbGV+ooIET8sf/w8ny+X6X+j+nf+RxE+mv5kgvt/);strokeColor=none;spacingTop=-3;spacingBottom=-3;spacingLeft=-3;spacingRight=-3;points=[];labelBackgroundColor=none;rounded=0;html=1;whiteSpace=wrap;dashed=1;dashPattern=1 1;fontFamily=Helvetica;fontSize=12;fontColor=#312D2A;align=center;" parent="abdKoB1VeoWTYlpOvYKU-207" vertex="1">
          <mxGeometry x="1" y="1" width="35.5" height="40" as="geometry" />
        </mxCell>
        <mxCell id="abdKoB1VeoWTYlpOvYKU-211" value="&lt;div style=&quot;font-size: 1px&quot;&gt;&lt;p style=&quot;margin: 0px ; text-indent: 0px ; direction: ltr ; font-size: 12px&quot;&gt;&lt;font style=&quot;font-size: 12px ; font-family: &amp;#34;oracle sans&amp;#34; ; color: rgb(0 , 0 , 0) ; direction: ltr ; letter-spacing: 0px ; line-height: 120% ; opacity: 1&quot;&gt;Database&lt;br&gt;System&lt;br&gt;&lt;/font&gt;&lt;/p&gt;&lt;/div&gt;" style="verticalAlign=middle;align=center;vsdxID=18;fillColor=none;gradientColor=none;shape=stencil(nZBLDoAgDERP0z3SIyjew0SURgSD+Lu9kMZoXLhwN9O+tukAlrNpJg1SzDH4QW/URgNYgZTkjA4UkwJUgGXng+6DX1zLfmoymdXo17xh5zmRJ6Q42BWCfc2oJfdAr+Yv+AP9Cb7OJ3H/2JG1HNGz/84klThPVCc=);strokeColor=none;spacingTop=-3;spacingBottom=-3;spacingLeft=-3;spacingRight=-3;points=[];labelBackgroundColor=none;rounded=0;html=1;whiteSpace=wrap;dashed=1;dashPattern=1 1;fontFamily=Helvetica;fontSize=12;fontColor=#312D2A;" parent="abdKoB1VeoWTYlpOvYKU-206" vertex="1">
          <mxGeometry y="42" width="83" height="40" as="geometry" />
        </mxCell>
        <mxCell id="abdKoB1VeoWTYlpOvYKU-218" value="Linux&#xa;Server" style="shape=image;verticalLabelPosition=bottom;verticalAlign=top;imageAspect=0;aspect=fixed;image=data:image/svg+xml,PHN2ZyB4bWxucz0iaHR0cDovL3d3dy53My5vcmcvMjAwMC9zdmciIHhtbG5zOnhsaW5rPSJodHRwOi8vd3d3LnczLm9yZy8xOTk5L3hsaW5rIiB2ZXJzaW9uPSIxLjEiIGlkPSJMYXllcl8xIiB4PSIwcHgiIHk9IjBweCIgdmlld0JveD0iMCAwIDQyIDQyIiBzdHlsZT0iZW5hYmxlLWJhY2tncm91bmQ6bmV3IDAgMCA0MiA0MjsiIHhtbDpzcGFjZT0icHJlc2VydmUiIHdpZHRoPSI0MiIgaGVpZ2h0PSI0MiI+JiN4YTs8c3R5bGUgdHlwZT0idGV4dC9jc3MiPiYjeGE7CS5zdDB7ZmlsbDojRkZGRkZGO30mI3hhOwkuc3Qxe2ZpbGw6IzJDNTk2Nzt9JiN4YTs8L3N0eWxlPiYjeGE7PGc+JiN4YTsJPGc+JiN4YTsJCTxnPiYjeGE7CQkJPHBhdGggY2xhc3M9InN0MCIgZD0iTTIuNjcsNDEuNWMtMS4xOSwwLTIuMTctMC45Ny0yLjE3LTIuMTdWMi42N2MwLTEuMTksMC45Ny0yLjE3LDIuMTctMi4xN2gzNi42N2MxLjE5LDAsMi4xNywwLjk3LDIuMTcsMi4xNyYjMTA7JiM5OyYjOTsmIzk7JiM5O3YzNi42N2MwLDEuMTktMC45NywyLjE3LTIuMTcsMi4xN0gyLjY3eiIvPiYjeGE7CQkJPHBhdGggY2xhc3M9InN0MCIgZD0iTTM5LjMzLDFDNDAuMjUsMSw0MSwxLjc1LDQxLDIuNjd2MzYuNjdjMCwwLjkyLTAuNzUsMS42Ny0xLjY3LDEuNjdIMi42N0MxLjc1LDQxLDEsNDAuMjUsMSwzOS4zM1YyLjY3JiMxMDsmIzk7JiM5OyYjOTsmIzk7QzEsMS43NSwxLjc1LDEsMi42NywxSDM5LjMzIE0zOS4zMywwSDIuNjdDMS4yLDAsMCwxLjIsMCwyLjY3djM2LjY3QzAsNDAuOCwxLjIsNDIsMi42Nyw0MmgzNi42N0M0MC44LDQyLDQyLDQwLjgsNDIsMzkuMzNWMi42NyYjMTA7JiM5OyYjOTsmIzk7JiM5O0M0MiwxLjIsNDAuOCwwLDM5LjMzLDBMMzkuMzMsMHoiLz4mI3hhOwkJPC9nPiYjeGE7CQk8Zz4mI3hhOwkJCTxwYXRoIGNsYXNzPSJzdDEiIGQ9Ik0zOS4zMywxSDIuNjdDMS43NSwxLDEsMS43NSwxLDIuNjd2MzYuNjdDMSw0MC4yNSwxLjc1LDQxLDIuNjcsNDFoMzYuNjdjMC45MiwwLDEuNjctMC43NSwxLjY3LTEuNjdWMi42NyYjMTA7JiM5OyYjOTsmIzk7JiM5O0M0MSwxLjc1LDQwLjI1LDEsMzkuMzMsMXogTTM5LjUyLDM5LjMzYzAsMC4xLTAuMDgsMC4xOS0wLjE5LDAuMTlIMi42N2MtMC4xLDAtMC4xOS0wLjA4LTAuMTktMC4xOVYyLjY3JiMxMDsmIzk7JiM5OyYjOTsmIzk7YzAtMC4xLDAuMDgtMC4xOSwwLjE5LTAuMTloMzYuNjdjMC4xLDAsMC4xOSwwLjA4LDAuMTksMC4xOVYzOS4zM3oiLz4mI3hhOwkJCTxwYXRoIGNsYXNzPSJzdDEiIGQ9Ik01LjQ0LDM2LjM3aDMxLjExdi04Ljg5SDUuNDRWMzYuMzd6IE02LjkzLDI4Ljk2aDI4LjE1djUuOTNINi45M1YyOC45NnoiLz4mI3hhOwkJCTxjaXJjbGUgY2xhc3M9InN0MSIgY3g9IjMxLjc0IiBjeT0iMzEuOTMiIHI9IjEuMTEiLz4mI3hhOwkJCTxwYXRoIGNsYXNzPSJzdDEiIGQ9Ik01LjQ0LDE0LjMzaDMxLjExVjUuNDRINS40NFYxNC4zM3ogTTYuOTMsNi45M2gyOC4xNXY1LjkzSDYuOTNWNi45M3oiLz4mI3hhOwkJCTxjaXJjbGUgY2xhc3M9InN0MSIgY3g9IjMxLjc0IiBjeT0iOS44OSIgcj0iMS4xMSIvPiYjeGE7CQkJPHBhdGggY2xhc3M9InN0MSIgZD0iTTUuNDQsMjUuNDRoMzEuMTF2LTguODlINS40NFYyNS40NHogTTYuOTMsMTguMDRoMjguMTV2NS45M0g2LjkzVjE4LjA0eiIvPiYjeGE7CQkJPGNpcmNsZSBjbGFzcz0ic3QxIiBjeD0iMzEuNzQiIGN5PSIyMSIgcj0iMS4xMSIvPiYjeGE7CQk8L2c+JiN4YTsJPC9nPiYjeGE7PC9nPiYjeGE7PC9zdmc+;fontColor=#312D2A;strokeColor=#9E9892;fillColor=#FCFBFA;container=0;" parent="abdKoB1VeoWTYlpOvYKU-156" vertex="1">
          <mxGeometry x="670" y="235" width="65" height="65" as="geometry" />
        </mxCell>
        <mxCell id="abdKoB1VeoWTYlpOvYKU-92" style="vsdxID=12;fillColor=none;gradientColor=none;strokeColor=none;spacingTop=-3;spacingBottom=-3;spacingLeft=-3;spacingRight=-3;points=[];labelBackgroundColor=none;rounded=0;html=1;whiteSpace=wrap;" parent="abdKoB1VeoWTYlpOvYKU-156" vertex="1">
          <mxGeometry x="330" y="162.41" width="70" height="82.18" as="geometry" />
        </mxCell>
        <mxCell id="abdKoB1VeoWTYlpOvYKU-93" value="" style="vsdxID=13;fillColor=#FFFFFF;gradientColor=none;shape=stencil(lZjbUhsxDIafJrcaWz7Ivqb0PZgSSqaUMCG08PZVull5LYO9e7dx5Ej5LP2Sd+duXh/vXvY7NK/n0/HX/u/h/vy4c992iIfnx/3pcOannbvduZuH42n/83R8e76fPr/cXSwvT7+Pfy6/8D7tIw+YLrvQfEwr1pj/n79P5j/eTpO9vW5wEK7215WcIedp6R2vRgjkr1YoVlc/706MzGzkxMj7rncLzjfuk/JuIFDtff5T4jzKrtm3+t9Ph+cFJmfAbcKEGaIdcsIEaciJjexWTkizQYcTRoip8S4xzu4D5A2kAqDfAspBUvlUzmqOEwI2Yfo6SgtBM0rgXM8zZ4nOZAKMtW+jHAdItvZslFsuqPw1HlOxSZxW1I/RqCyiLDQkRrC5DpMSRHWMpgFEBHkASH7XyhZL2rlEODuPUqNfMKIAfjWjaCGHbph1jGxvbQNI5Xk0gNQAwjrMwKjtAFCqnYcEFEaAAoPHLiC2MLQWkHdgcFsSeZTIv2bkWWvDiJHnpbyNkWMh0hlce3apUSEFiC1sWAsI/azFqwGxLFGT6BoQC9O1gDqA2MgOSlwDYjHzTQbrJLq4Sl1GNgO5tYwCUB+RSiCRhhKhqKnINg1F2kLswllIv+BSCr1oIHU2zV4XHakC9SmVCwiqyPTbfGyaiG5eBE4dHWtPHSF3eDnekkjdsuItpMGgShqeQTxp10a1L55sMKzGw2MT2fV4eBLzqYuHBzrUx6fxkHSA1Xh4tox+xIdHWd8cjeZDJdVX8OHuT2k9nxyln340WjSHyVOJzzrMqMLkaUfOutRW6jrn9FC5i033kmFMuoI+nWIh9VZLSU2omItKxe4UUjbMQZakEkSlpYj6WKk7YZRLNhZ1Nl0BWv6ylT3z0L7wn9URsS5FGpBimGEDKm56pjsJNah4R8pDVE4aRQ8Vd3rfrblPUPlS3R1UPI2YNEDlUQ2rfVQhQholf1bDLQ9dhENYPOGFMITFo6PDjbB4JjUqr5vqY5tsB6h4AKa4HhUP43Z0rhoVj/imLQGNiq0SDVHxnaIvAJ+g4vuNH5DiexK6ASm+fvXGbE0qd6/cTfHxXTFoKV9I7rwUIUcFqdVyXjJ9SIsmUbhp94t2UyLSR7RoYeXUepI+fIe00Zwfyuuqh8PT0/S2a/m9fr3FS9OrMXf7Dw==);strokeColor=none;spacingTop=-3;spacingBottom=-3;spacingLeft=-3;spacingRight=-3;points=[];labelBackgroundColor=none;rounded=0;html=1;whiteSpace=wrap;" parent="abdKoB1VeoWTYlpOvYKU-92" vertex="1">
          <mxGeometry width="57.59523809523809" height="56.493506493506494" as="geometry" />
        </mxCell>
        <mxCell id="abdKoB1VeoWTYlpOvYKU-94" style="vsdxID=14;fillColor=#FFFFFF;gradientColor=none;shape=stencil(lZrbctw2DIafZm85PB+u0/Q9Mo1Te+rGGcdp7bcv2F0e9EMitHdrGVpwPwIE8EsX9+nn45cfDxerf769vvz18O/T17fHi/vtYu3T98eH16c3+nRxny/u07eX14c/X19+ff96/fvHl2pZP/398k/9hvfrfcWpXOpdVn9cr1jl///796v5H79er/bmdoNX3t5uMNs79LvtNuV26cM2m2BuRu5mFJR3NyPXjJJb+g6qGPRdAjiPysWtc6dsBuexuerOnYp56Twp8O2VLuA7KfjdXoUErpOKW89BGSN4zlvPQUVEnlTZeo7KIvFh45pN2vzm56fvc2wM+xtsrVySVlq2S7VGWcvWGmGHaB91YKttN/b4oAAJgv/+zc2/Ux4jZFpl8+95iDBadaPcHbhcVm6dSxyXK8rwoEJcXittRVxklayEK0BMm56VC1zeKhslXN5BXAu4QpSXi7hCGvll+Y+6XQq5n1DHtEJRUhZibNEtWWQVtYpOYhUJ+z2ZmPztEDmPKoW9RMDISnEvEZAVWRXpsERYKbUDdkUrZV4oGK1U2hF/jlbpVeJ4ub1gtUtOhZ1zA3BRpTP83Gq/s62XrJIUWx62i2qd5bgsuA+KF7YMhY0u2XVZjT0yPsaliHmFPz3xMyiMnzEFzzpSfQul4ZySGnxT0+GZ+4jup17GodVupCTXCkoPFbwB15solhJbbzTbBZNVq77Tgh2ESjIqQC9Q92+ZWUmrYpn/1vF0/7rH5QJYLK2enwXmtMr+PmB0i44cGPQEtihbODAoMjaPs/0sMJv2NsxBkSWrPWCwYdQwOcyuNbDYC+VZXqE3AAtcdOzwdDRAizofw2CtOxLLGgLK6QDBbdt5Mh+DUGAnm5Gd1h+Dmm7oh3xcHtp0B6yVikfGpfq8XWoa4TDWWoATGdllozt9b/Mdey5PnODQohqcnASKante9AIMFPUOUVhsv8P0niRjAiqftoul7qYUiVToeXtMCrKPurGA2cciihq7hMnPSFHHWBYdJiNFHeky9TgoanRdkEBRzxysBMp35KdB0S2G7RKCcuPgPAZFk4i/J/foEFq3DJwUHUmOJx+QslNTdUiKLmUh8ZEUXTJsm5AUTaKObROSohHXpztI4QQtgwq89rGBxSugxI9ySa6YKkRfSoYDaio1Y8u2jqf65bYm+3ymArlrvlOdDZN0QNsgm4yB1MeLqTVoSTgQmbXvssMo4iFOpyAGEkKiFidhEK8oxanZOUWJ2jmNIY+UyCazhSKlZEbhOkmJWtl2Ch1TIiMmqfSQ7c5dHypOYar9/IoSt15CvdOc66Qb667AnBws0J5hdkpDIkwizzRWQN9HNQLamZ2pAg+1nfjKCZ0bGADTKEfDOY6AOyPFmhSfKCRSdaAoEilKWxckUjvjhESqThNsm1jtSZwUeOaDxBoTmyMkSr7PpMeQKOQcMsL+1AzNo6195VariIpma6W7W1oIU8mx05xsTmnVk30v5GuterpjSNWovdLewvxARnytHqJIFKqn7x06Nc5ZnFNtsqwESpCpGSlRpuak3Kicx6TICCctTkrUqDkpP2rYIqIsa4s5KUGhZqREhZqTqgK1l0iFvgMLUpI+zUFVeZrtEoKq8jTbJZZ7a3magaIRNiy7U90f90zyNGoymrWnNGQbMfmqOL2UHDVTWGjeT5aRgvqRMhvzOKkqTS+6DkaqStPLSUtvV1r7EB5PXI5JgWFCPSa0CnGIqTGZVGEPZ7npRXUSoiw4N32Wn1SzsnRue0Z055k96nEsmktLkmlyyiiCFeWX8dGDd/guTC8J4zF4Q6GhyPPZqZmcnJ3AfKcX0bDQsYZpdrKMUcYhnA9PZBXWU3gZErfh3zyNT1HgtDM+LUHx8UkAlfi5zECRTcoiqJ35SQRVBygUoAvL4vpcQQqonQFqCYoNLQKnEviDoEkE5A9+JlLsqWEe9Whc0uvHYFPTPo6cBKQ6lukpmMautducU5+HfT/G1+LzuGHSnvHBeWHPC8mKPTQr47g5Kz/P3zzpz0YAVeVngZMgPiMnUXtmnKr0HEVOUfP3QTgnUXze4VTVZydwquKzFFCC9oygJOmZcarKMyYe51SlZ0w8zknUnnc4+fHY7pBT1Z6x1CMnQXpGTqLyzEBRufZGBFX1UnyvgIMSpecdUPXVpSKAqi9BZQGUoDyzzBOEZ8YpdH1pwsTflHNIKfPXsFo1PX6bAdXKUVzfx6HdWw7Wci+e6K9lkjtlOtGcPow3J789PT9fX7yc/49vWtKl61ua7vN/);strokeColor=none;spacingTop=-3;spacingBottom=-3;spacingLeft=-3;spacingRight=-3;points=[];labelBackgroundColor=none;rounded=0;html=1;whiteSpace=wrap;" parent="abdKoB1VeoWTYlpOvYKU-92" vertex="1">
          <mxGeometry width="58.99999999999999" height="58" as="geometry" />
        </mxCell>
        <mxCell id="abdKoB1VeoWTYlpOvYKU-95" style="vsdxID=15;fillColor=#2d5967;gradientColor=none;shape=stencil(lVzbcuU2Dvwav6pEUrzoOZv9j9RmsuPa2ZmUM9lN/j5k7ENC3SCh82YfgwbVBMDGRecl/PDb559+/fTi99++v337z6f/v/78/fNL+MeL969fP396e/1ef3oJP76EH3759vbp32/ffv/68/vvv/7UJNtP//32v/Yf/nhf5/a9rfH7n++/H1sKf3/wz3fpf/3+9i7uUN49FuzvC/Y//Psn57mV80Po46OwHQ+h0IVS+RD6+MhvJa9U1yVHuSr3W3Ck3OWrcrcV0F22DLrdFspSd9nCedW9b2cE3Xk7w1X3viUHyvN2+Kvy3VKettOhcofK0xYSKt8R9bgVh8r3y4F/ef0qzCMfW37AqcvjZnPYzoSb3Y/rZquQo80GQCr7cd59s0ugshuP13WDdVaZ3Vk45X2jM1rB5M9x8vdgqiucJ5hgr75anSeYrlv1eUvHUyj5NDbbVfsMqtO2F1ANiuPmnwLp2Hx8CqNqJIcJ0baTIUUwJLf5J9193w7wdr95sOFh1SLKgWYhE/T4eoVIyH9stGzneqM7QOTOLZ+4Uw/xuMWlhFvN8brVitKx1u0RJL+5YKHkg4VRBfJ8AqOQHzHqNkihjOefghTOLdJeEaSju85tlI4RgQRK8aq8CpVsAXV4eHIDqZgf3jJHKl43W5fgNcdIxbIVbyEVK5yGckQqUfRmc0quX/hzoJKHBzeAyv2evA1UTlvGvQIZyPmBwAKmXLZlUBz3ZNd89s0ImCAqVqGTjghhKnBzGChVNrGvw+h1o1U+s+HDLdN4zIEbfdxOj42e/QqbB/AMyvPw5q48A1WsNG8HsugGUxn0MS4Do+vH3JVDRPZkxpW3BjBjv0V87Eqa/UpzvTFR8Qgj/ZZKSJB3uNrFTR2uIjr7EUxAFVcYCF1bfQ+DgJRAGGVmP9ERSH4JUmVVrhBMmbnXWQycKolDYrHCqbJK9wxMVf7hs1OYKp3N3oSpUumevtyFqXL0HX3o7MoEky/oRDXUnKD/oGxviVSLFE9ZVA0IPhtQVZniaKsFk8M8OLdwu7jUnoetimQVoDoLXghVCMNNFUp4UsVSP/5NV1+6S4rMOGCszeM8x7NG1J8fIXCuH9WnLZH2E8FPpBo1xysDBSMZ8h/Xl3vQz/lGgWHUGw95fTttvjwxODf3uW62Xtzr0on8xw8fy71UIoEC7ZW18SkBVJV+uEViQVhVRuStQ0U25gYKc6wqZ4sWVJUKZkt5QiJ6DhSmUFUi6lg7QFUprV+QQYLquFGYYop/KlAxx3dYHSKsaoIRLO1oVjVzSVyUw/SmPA5hgVXNrcoiwyCs/JIYMVCDsSxMqiXfXD4EnBrrehKmRgCVMHVV7kY1cw6TW+SrVoX1Oelr9bZevmkpzgSxwDV59FLHIIiddTwMtZcWB0PcgXYdRjw5kJoeI2/rajwpRgepW8EMfHNzOJmagjiRw9jTD7FRsNEqdCTaKdL3+EgTJEZLV65LUkDlIZHyVFD5cZJyJFxru5MLPizRKD3JFaP2RPU58UjDo1wysapSa4OShzD0K2iFg/R3ajavZQ6pe8VMklccINB2kSMeVJyWz/QIysNB74IViKC6k/wvjLbIUL4fqDxDVoqGcgXKDFFPil8DoBcNDZ0zKmaDPYK6BEsDVYpqA5FqpoqXtczFMlssDsT+zDLAIFePVMBpto21iS51z2pJ3rZauZGp1cpnmlqtiRVbbTsE02rPEU3mVrvOLQK2vczcQmxj5BZY9wlU02glNxOoshtAiQMYyhEocZRDObYnufTThOZA8QWL8jduWLmP+RUrH2l+b5Td6AYol6w8hPktK89zHgDIUAgvI2A9K38NiLINfC8gyhXzgNik2McxILYyzLNOXtdgm0+JiFXqkf4tImL76KmAyP1tMyK2Wlak/WJIrFIRqz0cE6vUEZ/EKx/aeWE7q0nxeWE/S0rdiotywc3AKJfMI6N8qnloVPAy/V2exDw4ylOdR0dpLrfC40nua4XHZkvKdjFLTtQxVMLjmUbIvwuXdOF5eJT11nl4lFL3wqMdvp6Vp/Dorv5udo/lEtfXYNUu0eUaCo/fJGq5VSmjZhlpnqau8Rieq53hNELp/VQRHntZPaCU7u95VE0mC8jfuL0Set9q+FvpNt2z2L13XLq/lfHwo+cdVhUpcjhacMPjxpqVx1UpTCQVj6tScVlyUDyurlE8Hj2utf/ZwtDjqHxJHuSvHhHNej83W1pNlV2iP5bvUjcAq1JxeQPLoxj6CbBI03gxM2PhibghpbvEudFURVrf2CclUfHkmbhCiUzaN8hj2nQAzja4hxXcdAhacMMh2hrsk7BDJB615OOtQsv4obhDW6JYF7hD8n2kbuEO1Piw3CEnY0xNcYfWjeH9AlpNSOHPAFdORp+2rcGJkNQn3uQFlUk/Tloox9WkrOnU/ST9B+cPOPLQpJCwxNF0H/qPtb2wtdY1Ee6b5gb8/MiHlWgwpFR7SaXPtPw5WYAbTmnUuMSdCQwrHVQryDyQVq05wQW5JqRZTNzcI6RtFlYpLoB9V6mgVBfgfKsUDj+btY3cG4oLPtqEOH2gMQQhdY+PyhU6v9S2q6TTGOzHQ4ls2kbLzg7FOcyzaXmm82xa2sq9dJrnoM10us3QcD0W0+kqlU7aMKaHTYrTWaMee/ZYsUin/akVZNEbpdStdFoumNijsl98C0JJp+VTzdNpBS+7fCZOYp5Oy1Odp9PSXG5Fr5p4xeeiV4jDhwYdixC9QqDZmBaSsYjsaNjMuB2o3m5eDlxvl9fUtN7ebkmgXlxGblf58irlentjElTDRpqaEzU/ud5ONMoouJsDKlxwlwRwWnCXXHKKlMVRud4uqO+03C5J9LTcbtB573CQx2LzbYwf6KnIK3wXwt1G7v21N0vgWI1kiRzATJbYAWTWNnUAmQBOj9XMLNkBZMo6dYAqFFA32j9l1Yb9m1NHbP+yHjC1/1ZasHAySxZs/7IWMnUAWVaZOoBR4Gnv7iBQ6/pOXZGgwdBKTXhjeRpFDyffWJ5uTKOCdsB2zfrZweXGQkH4oNxbFgXHwWbaq9XFLFi7KzTTEfrbHl35KIgGkhmjZKuXVcSCD6iXNFuIj1EypLniaXwXwpIZo9RG5JfKj/F6xVAe4R2MY5RBh3IYThzGEUBEx0gcuy5PMKUx7S/cAbba3nQCc5KvBIqogKMf6yEZTgfMKRklHVDGZJR0QJmTUeitPVXE6YCcV5qnA3L2aZ4OrGdlOB2w5vmUbIAH+pRkgCf6FLDMcTVOBXioT8kEeKpPSQSWY330JoUx1dfyXRqsw6m+ljpjhZ+IbcvJearPLGCYU31NyJzqk0JBNxAuXzw31SdXDPunWvVO3W05TzbHyvQ/eQhDv4KWZ/3YWxBWci9eNRL55FRfpdI4Bam8TZ0CladkGH5Q/5pHwfjC+j7g2r51H8gyqIMlq85JE8JRda7VNimrVI4vfvkBjawV4wvLAVmrUqo2722lldvWKK0FR+oxc1NK9Y1vmJ2+SPrxBT2ltdFIit3p8+tGudX4fnqB1Vq3Yo1yHMoEsdJaVyaIlda6GWuU1roSa5TWuhJrlNa6EWx49MgMNsrokUKOlNEjhRwpozR2cObRI4UcKaNHCjlSRo/W5IhHjyxypEweMTlSBo+YHClgWeRIGTticqRMHTE5UoaOluRIGYFYsyNtAILYkTb/QDe+Nv5g4KRNP7APKsMPxI602YclO7Ij1rPy9YfxRUu/vH758v49TfLv+MVM9aP3L3UKP/4F);strokeColor=none;spacingTop=-3;spacingBottom=-3;spacingLeft=-3;spacingRight=-3;points=[];labelBackgroundColor=none;rounded=0;html=1;whiteSpace=wrap;" parent="abdKoB1VeoWTYlpOvYKU-92" vertex="1">
          <mxGeometry x="0.7023809523809523" y="0.7532467532467533" width="56.89285714285714" height="55.740259740259745" as="geometry" />
        </mxCell>
        <mxCell id="abdKoB1VeoWTYlpOvYKU-96" style="vsdxID=16;fillColor=#2d5967;gradientColor=none;shape=stencil(lZZNctswDIVPoy0GJPiHdZreI9M4taaunXGc1r19oUokRSim051Ek/4EvscHDvTwtn963Q0W3y7n04/d7/H5sh/oy2DteNzvzuNFngZ6HOjh5XTefT+f3o/P8/vr0zRzevp5+jX9w3Ve5xFcmlZZ/DOP4L+3r/Pkb+/nebaZf3QIgZfpZj0fr3Z+JQPGLDOWIQvLkistAzISlznLUALyPbBxkGwLNgSRW3iqxWS2AW9buoNILZwQfOzRETi1cGIItoVjS3YMPrVkA2xasmcwqUemTdkhfVC2dy08RghGwT24oDbd5YU36CIUKbnZlL9ZSW6V5BxyXXXbsZayDHEC5B5/cqdWHZXhAgIp0ZkBleiBwSnV2YPtqh5XdqrVeyV7Cpvqk99ULwuDb/miEVKPzxHMoLVPSvuyHxkuliItfZlD1Zu2i2ZgJTyF4oXMZjlKsaVPhm3hshllF/P3uDv4KHva0kUrUrpTsXiGI6CqfB1v9EG+Hcbj58PwXnKyzfxb6WmLL4uhbP3mfJwk10JbWBK9VISGTYrJae5GiWGIyk8JQcFFmrzRJUuoHMJiKFO+OtODh9CVFKI6Sz5ugiwA+xYuTjWqe6Sqe42WbowYBKvz29aArKWTdrPfOEpMRipGZWOxH6Mhd7d188I0aN1ZB1lOiJqitpaScwS6cF+a2+owRcWe+pCqPZTAKhkaNm1bYqJ/kFcJUSs3ip5MjfksRioXjaJ7yN2i4KdKusUz1rNUlde2YwKr+E4cHls+1w//fI7KGsWXfpVUlKVUm0M+dNIvdJDitoVwnnVr/8XmruUnuRrElh8MaOPZ4odOlE6zGvy9ON0k5H8vkId6lX0ZD4f5Jrz+XV99ZWi+NtPjXw==);strokeColor=none;spacingTop=-3;spacingBottom=-3;spacingLeft=-3;spacingRight=-3;points=[];labelBackgroundColor=none;rounded=0;html=1;whiteSpace=wrap;" parent="abdKoB1VeoWTYlpOvYKU-92" vertex="1">
          <mxGeometry x="14.047619047619047" y="12.805194805194805" width="30.9047619047619" height="33.142857142857146" as="geometry" />
        </mxCell>
        <mxCell id="abdKoB1VeoWTYlpOvYKU-97" style="vsdxID=17;fillColor=#2d5967;gradientColor=none;shape=stencil(lZjdUtwwDIWfZm81tiX/XVP6HkxZyk4pMAu09O2rNLEdH896p3db18kXS0dHMge+eXu8ez0enHl7P7/8OP4+3b8/HvjLwbnT8+PxfHrXXwe+PfDNw8v5+P388vF8v/779W7Zufz6+fJrecPn+lx0JGF5ypk/6wozufRv5ev6wLeP8/qEXTeEQCluj2xLLlHy69Kn23ZZirzt2packLPbLl6XfCRT3rUt2UwcZ3wvFFzPt4HE9nzPFHPPt0wG+fqu3PMzRTfFewqhx7eA1NMbstLTlcQ9POj3+B7uyE5j7zNJ7uGGEh7dk7gebsgEOLklF3q4mZHFl7TsyCb1ZNbghZ5sCcDsCbgqC5mhNSoOE66Bcj1bdwVg6xJDzFWphnu8Cl78lO/JQsbZUZaBX9Rd+Nw+6bOp2yFfd9kZ3wrZPPA9FJyWDdC5VmBNOoZek5Fn6EgZIs9aaiB2awAcq1Tqse1QZ5zIT9Ou5YqKW/QF7J0ZlEKzZDLgVbyux8vVqIemlFIDMqhOd20V2/i+OMieH1H08YrNLt8swFebleH8DKr3hhhsTssFoq/l76eZ14yVtxS8WqrwAUQXwObUfCwkP1JKQI9XfE7lDbEPugSxB9kFjU4PNhTAX6N+3TzrBNxkq5lWf636KugUSaRna/wEO4vbXn5ZcQ58Joem5eYzCSo9p9rrqsuawWesmRr80sOh1vW9YDK6Caotx8HjNOG1/3A9R56e3UHYM1fPr+xdOkvcEwXIue6K0sOTlEq+BDe1rgo/qp1Cc3M7P9qWolRp7w6fgR+11c4bTC5e1OSeh4mKbRvVmuQ9lLq6fq3bMmfEooULfDXsAA0mCEU4/+KrIDwd8gIUu7Qhq1Z7ulLt4nu4TmVg8+qpfrS57IEtbQTY2ezU55Zn0GZDG9Vc3YXTpH5SxrOruwC+mvilgW50usXlIfTql9jlNEbDSKeaBb/TpRRmfB1Uscuo08ZxnHUg/eDRbZVlIfqqz/kon9oEXAqvDYyto2Q4vNYdTjauGEwru3Clw/uW50oPrXe3szPIXneNo3wcWw1fu0dlxI8DxmIEMGDonS1At4ltHqx8U/R5ga+djTH4YRhrY6oy33U7HKvVLqDF56riS3gtaRjvsh96bWla+9gn6HVZatKq8EzRzAV6NmX+aa5jBstLqiqc7mwtmF3wBedqvEQ/nZ7/79atP9qd/eH09LRe+ff/j3d8XVr/PsC3fwE=);strokeColor=none;spacingTop=-3;spacingBottom=-3;spacingLeft=-3;spacingRight=-3;points=[];labelBackgroundColor=none;rounded=0;html=1;whiteSpace=wrap;" parent="abdKoB1VeoWTYlpOvYKU-92" vertex="1">
          <mxGeometry x="22.476190476190474" y="17.324675324675326" width="14.749999999999998" height="24.857142857142858" as="geometry" />
        </mxCell>
        <mxCell id="abdKoB1VeoWTYlpOvYKU-229" value="&lt;span style=&quot;color: rgb(0, 0, 0); font-family: Helvetica; font-size: 12px; font-style: normal; font-variant-ligatures: normal; font-variant-caps: normal; font-weight: 400; letter-spacing: normal; orphans: 2; text-align: center; text-indent: 0px; text-transform: none; widows: 2; word-spacing: 0px; -webkit-text-stroke-width: 0px; background-color: rgb(251, 251, 251); text-decoration-thickness: initial; text-decoration-style: initial; text-decoration-color: initial; float: none; display: inline !important;&quot;&gt;Firewall&lt;/span&gt;" style="text;whiteSpace=wrap;html=1;" parent="abdKoB1VeoWTYlpOvYKU-92" vertex="1">
          <mxGeometry x="7" y="50.00000000000001" width="70" height="40" as="geometry" />
        </mxCell>
        <mxCell id="abdKoB1VeoWTYlpOvYKU-73" style="vsdxID=69;fillColor=none;gradientColor=none;strokeColor=none;spacingTop=-3;spacingBottom=-3;spacingLeft=-3;spacingRight=-3;points=[];labelBackgroundColor=none;rounded=0;html=1;whiteSpace=wrap;" parent="abdKoB1VeoWTYlpOvYKU-156" vertex="1">
          <mxGeometry x="485" y="149" width="73" height="84" as="geometry" />
        </mxCell>
        <mxCell id="abdKoB1VeoWTYlpOvYKU-74" style="vsdxID=70;fillColor=#FFFFFF;gradientColor=none;shape=stencil(pVnbchs3DP0avWJIgtfnNPmPTOLUnrp2xnFa6++DrZbE8qwWqidv0goQQBA4OMCe+MOP+8/f707B/Xh9ef7r7t+Hr6/3J/7jFMLD0/3dy8OrfDrxxxN/+Pb8cvfny/PPp6+X798/L5LLp7+f/1n+4e2ilxy5tGgFd7488c799/3TRfzLz5eLvL/8HCvFVd7PCu4trCKZSl5l1ketUeNVilepRN6vUjykSt0af3x42vgaI3mefL2lwOQTKuRsHi+Qb/P5VEdP6CmU3QljhBM64rg74ap4YJ/lb/zOvp/Nc6UUwHylWmfzXCgxmK+U23G8OFOqc7zktouhkKhEVPBmgNmTwwNmavMBQ1bX+wETOYhvCBTxgIFyOvY3eL2RVcFTi4aCXGFFBfbHCl4i7GcFR96w4AvlOalrIzZi7jPV+Qy19no7iLmoBJ5jLjqhzkH3SV1fH9VCpc1BFykX5qCLVDCq0EvZzjGsmWI1HWZidFhSDfwNuyqocQcz3lOBJBEplyzzEojZeJFSSmBdb2F9ktuIXzfuqEGssiCHeVdutpwC1oYkLECP4GKa7Ur5lNmugIH3lt1CEHCp7e58N13JAa5zpAq2BYgA1pmp8nF+tB6Rnh4iH8z0kGYCF8Shd6URJkcZ4iTQkwAjJTsAodn1E11P5oDJzO5GNolKBXflBIz+MqU2+yuhzAB5UkvYUuTmLASTeg0zIImCt6sPvc2EyZ8HLgxn0y4TttDGQypYzlbiORdCpGw7q6Ec/jI1wDapRGzYIsXgsNSWh7qRHlOs/uA7Kp2HPLPl7/KHBfz1I1Xf1LmKAZbGWcDfpL2Ux0FjM+0rURgETugEZKOUoAN4k9vEBiygMq6LR2a4aNkX7oLm00Dowa+cXoR2p5hn88LCOiqftTsFo3eKRpnv64bCAptzsxXEsNr5wqfndu6OhXPopft//1269nvcF3ngO7cUGlWUj9k4waZi9DYN/JQjJ5g3cs/r6wpRuctQiEY7yWmgpiqYEJKLtlQ/kj0C5y+uQ5fmZB2o0nOy7DmpIFQIx/4W1oY5FKqJIUW6AAwpUvcwJBTlQmdFQQY6V7SsNhCSDTpXMjJcQaZgYk5RGrnBvAaYUyo14J9h0HmlF06RqTs8kPzAfmVNum4/9UMqu8nj0aYDR6B0CzuHgAmviCankxGAYebhsGOUMlkg5goMR7gwkSpIWWIfPa/zq6CD9lBoZsBEpezpYAWUbhL3AA4LMQjgMA9isCGj2aiIFpEFSNOItsNxeDccboT+pjHznPeNZvg7Bo2z9hlnxTcjJYyhE+Ujd/PouN3dGHYFsczFUBBRwWL4Wzq8qMOxX991hwuO+bGf+cjfonSk+7u5ad1BYNeOZZ8PdYeQsZokSzTS3GRioxhMh6smXZ+knLJp3dmM5df6KMlchwnR9H7XR4lvTFNjJ9atZzdWUZtwFUhH6UQB8E7SMUP5SMcoJt4uOwocnwePVbxjTYPu0thVaIPgvjLSJQum1w7vgzYVP47B2KA2XmqFFjj/0nZxTZj7ju46AWi6fhwKbHQ0UXANFaw1Us7YsqVATAtJgzgUigGBwnoSWJDh22YxGx6hVYBLnszaDDQP4c7zlcXaqMFDHrhbBFpD/0I0w6zQ15xHS5kN79hsZuF8UpkMTbTpuqAfcLv11ipvxpXf3JO/U3zewi8NA8RvDDKsk99Q8EZCSUuocwb62AfB6wpZc2AoFGMUEIX8uwq4HAOFd0fptgK8DUlKrDVKVloUfCWx7EfticzvLi4YFycJHcN7onRFwaYDopB/XyEbS/H3h/W2gnzQd1rfHh4fL6/Etr/jOzB5dHl/xh9/AQ==);strokeColor=none;spacingTop=-3;spacingBottom=-3;spacingLeft=-3;spacingRight=-3;points=[];labelBackgroundColor=none;rounded=0;html=1;whiteSpace=wrap;" parent="abdKoB1VeoWTYlpOvYKU-73" vertex="1">
          <mxGeometry x="1" y="1" width="71" height="82" as="geometry" />
        </mxCell>
        <mxCell id="abdKoB1VeoWTYlpOvYKU-75" style="vsdxID=71;fillColor=#FFFFFF;gradientColor=none;shape=stencil(lVvbdh01DP2avHr5fnmG8h9dUGgWpe1KW0j+HpkcS56tGR3yVoIUaWx5a+uSh/TTt4/vv354iP7b96cvf3745/G37x8f0s8PMT5+/vjh6fE7/eshvXtIP/3+5enDH09ffnz+7fW/v76fkvNff335e/6G51e94l2oUyv6l9efJJfyfz/45VX+0+PnXT673g7yzeVgyBfnM8iXci1fPf7+EE2F0l1IR4XsRjQ9ChEtJOsTogvhoDBcf4t4aC6MXeHXH0+vdxBuKsn5cVMJqOOfIx+97zepqKWSPvDEUimZ9ovryvxNRcxXV5oyXyKYbyt8dvPVuo/BpuS8ejf9HW7gefWjtxRHtYC3nUN9eVuDix287c48K1IZAW27XMB8dD0o8zWA+bRCezdvfnqtrlYwP1yFu6pDpG4/it61fDTf6GWFo/kY1+O4sN+Si+Von3RyO9onqQHm6UAKmM98IGyefvvh9I+h0gqCFSmUYPpbXYRQiZkRg/2lqIVoIakGT6tRaAxwuLhs3lcP/GvYPr0HOK9OqJqO9pPng172O0FtOtpPyQUDHEmjjMOBkUIyL7h3eY63H6WssKgP5+HAUmEQY4eHa+BvWS/31N/hnYdsVFdwXfhLKhX9bQ7udwQXADpTXyfH7pIUumv5Sk/lmKkSfa4ZDKSCvmbPN8TOJkHw249ycBmAlqQwGHKEYFD2k4RDYJ1clf0G4EFS+BhIqsNjyBSMpvmssINUBkAnSRW4q5zXwYr5vHKEmC/rdK/td8hzpDPw8zd+sOwTiDSwX1wE8CKpYl9/cSWDfXqgGKuFP5btd0HYZb86j9c/XM6m/U0nsE7F79+kIkv1+/aJSnr7+zUWF0rAWdnP8P1EqXJQ9iuY5+C+Mk9nfbROuTwDb6DTr5C6KJmqxxdUJqBEk21gbYrk9SS/eQGrdxnsE4oGOH3K3Etx2SdsGQZvJ414RFaloFJnUM91aIebV9A6oQGoBp1hAFo40aBdO1w7Fg6kYGaCKmSY/UVaVlWenw8ZWWHh5/Yiz73YtDAraJ0PGaCdpFJU9gFZiRU2vNy60u2V+SRFh7w2zNrESj2ar8JdhRQH/Py6qNqVfS8fJvYbPK7J27OyP+BxzYIAoJWerjcfFxUnKlbpuQO0EUQEtN+YeT1vOIbnT1Km/YnQVdnvAO2UIYYy3+BtU0rCCoqkqkGLs7y3F1awUwEl9I73xTrib1BVDElFgGKiMF35603zwpT2cOnAiomiISuWQGTzxPY6nhcF9fVxEaVMAIX0vExoSUExh41MLH9jE3onULjIxPKXSpaGz8uvT7iwP+sivC6vmAPVWAwckaUwd5AURDclmDvmg6vw+aSzakc27xVxoWJioHkv9CqxlM3xqcJlQJZsOiBcSCpg6mxMZZd9KrAbEBeSSiZxIZ1Y0T4YbxJUy3jlh8zGqzZeVjhcGa8OkJ1UIAlPGTz6ourHUKR1Ida9CexhY8PLfBY2vOxnlVcntwHOHpIq+DtVRDYJ4fSwzLeqSFvmHLZxNo84IY9zS3TVjHtsi1ECSQFtY6eFABz5Ij0DgEjCNrtxMM7KWgTo4NW5p6qshyDMU+rwbPQNSINrsJsCdyiuAiVKQcR9A/A2Ssm4vBVg26Kk4GFFAAjwdmNVjNfVftGZ4eNFMH6lfXa4qMtNXhqj8qgTAPq8PaN1QGARjw7PCDFDkVQGQBDpJHS4O2jR0gNq8BAmmmIbqy36eI3ADUrXuDE3QeCBfb+q2o6UASLUbpF7y9cZCPltJDTTCdADX4lFgXAEGJidPiO6ZosRLivfYVckUPCyEhOuZ3ENe7Tc/hRnK/ak6COt2CKFfmz5KQXFbrxU3IHvCNkNIUAC8kz3DSmGYC3B3VJM2nU5kcEK3J2b8AKznm97a6h7uFqitfywZPrQDaSbRPiIdEpBcefE/dttXNKh1MxZOMs2LoFaj3JFHMrhW7xd2Zdu1Ga/QHTlxrH0ojkK2+9nB5asYqMjdpnTsP0DOQtYA8Z5hXAh2exsUPiUjBaK8aC1Sw0ad0qe6cWSz4ZDpyPV+kb5t/7+g/y9Ea+Halrf8PF7g7OOM3EhchMnRmu9uCTpcskbeJbUCCPwiPhcoQicSDwYDp1YyIvLXEVcPn5x4FbPFcZ1BoiXgDp7wRuBzhG5UES2STUmFMTu/M+xjx7xBiBo9JQjpKSTqeWceeHczkN7DHJSEcRihWo6PId0OGcMwhUlYWKvmqQ6gBz9aGDOj86ICFJIRwyapYBJf+mDuCMrKV/x9aG6u1Gm+luJWqGjMTmKxdebtHOQ91wTShwGnDAqCiyMCOFqe2GpIqItGD93uCgGbIOq5vhEf71NmbdyUygzVq66JqFXkCBNk1SACErcWbmqoMYRI2blYJ1IwK4UKQy7M+BVW4aKmAZXqDk5lVMFiNNQNCAlKFBh+iklJctX4zw6tihTvjMt6qsnJx+3TZjX9EFxUqp/1ZaHJASB0GjXG1JILNaV1aTMHy3PLR54yV4NKefIyQS+sB66TKmGaiQXNSJrzSGKBFVHd27TXIUg9w9ZIZt5LWwrJNKdUoV/knGZNMewMRmyemQk1Q3mpEGhc1K7UugVFaqNIkX3HrvDdaNQJVql91mx96iKuTnbMxInLBh0RqarLJAzKjSD6YUucXR71ncSuZei4qYQ7GrUu+MnWJt5s8gfIG3WIjHKpOimkO5MHggMMqS9UdT6VtLV5mjSbZEmGhKx0c1SgsAJXhgpdONIJlDlNyqUZiuccFOM8DGYHPCRDIejsyGzexkFwQsmoWx2lnJQfUPSKZCmZ1WIg1vusYn5JG1wsd+M+MxJ8Ov/KWShTf9Pobg7Bk7qe+y1kQ4yszlxxA1D74/nMSeZuF94k7neRE1Yp/BvlUVQXK0cjDP7FBdzH0lZy2o1qM5CN+GfFHpCBQvvasTCTSmcDdbxMviNy2A9SXkXWSrD65g7Ajip5Irv3OGCvH5Ola2tieoyylcDkKoM6UWhmAmxNuEVMjrGTnTtipmNphYEz9ZCqtVOqgPbdSRfjCtvHps9owIJOtt7QTwsPMBh5hnV0GkuiRy/ryXcUhoZGv3gbpK3f6GgeHJa69X7bBgp2NxYwgldVKsXoyiq3HhD72pQ1dUsv8qi6jNiE0/o9CBlJhQoIyceXZ/WrsDy9khvZja43BL0DmJX75mwVK1AdrzdPO6sI4+uNzCHdGWjlpIVPNy7ODXvjeDaFDiH2F2NoZeB8zZQEndxGThXlRDmqgvEVi72svtoqsAllYKX1fRpFYex1YTqinXztBqSY8r999zFWflczcHTqrL/IexmoL9VtVRyhFrhZL8yY9UaZBVP7Ae0H2RVytgvDebC3q7BCvZUcQImvgZpVu8LuTjklhWxbSG4wiSFiK2NXFkme8KFcbeBpLB4JSlsyu67zdJksDc7hkbuWSBgeOt1cCo88I8pqFLKkEmtUn+oP1JKGZrkytsgfXvpKqvtZS9Nt63dBNElG0fibYBCHPpHA7v6pGBvDfV6NjJHhyl94pJZlD0Zdtirpby5UGLCQRt6Zh3VklvbBvsyxsYWVqvipXS1ralGqzi1ml1tY6rRKm4I31PYyt+lYJ5Hkf6OdM3xOLIC89lah+sgKa9HEFZxsZO6GyPpzizDiDl6YP6zX3J0t3a18zY3NQDMq4xnL6e8wHMzJp+Af12gFFJ5k0LE25u9fsulbXmYFbxlQXW05wKa0Z0jSjjKmxSi/KXKTcGe3NEp4UdHs+F1YsGb+wRUHI+jhWIWbCQPFV5ZHfxzef3XpWaBdzL8fZOwOSm+L0//kL88/v3x06fXP1ze/z/+pTL96PWvnNO7fwE=);strokeColor=none;spacingTop=-3;spacingBottom=-3;spacingLeft=-3;spacingRight=-3;points=[];labelBackgroundColor=none;rounded=0;html=1;whiteSpace=wrap;" parent="abdKoB1VeoWTYlpOvYKU-73" vertex="1">
          <mxGeometry width="73" height="84" as="geometry" />
        </mxCell>
        <mxCell id="abdKoB1VeoWTYlpOvYKU-76" style="vsdxID=72;fillColor=#2d5967;gradientColor=none;shape=stencil(lZbbcuMgDIafxrcakDhe9/AenTbdeDZNOm56evuSBQySN05zZ8syH5J+CQa6eds+vG4GVG/H6fB38zk+HbcD3Q6I4367mcZjehrobqCb58O0+TMd3vdP+f314eR5eno5fJxW+Mr/WQvanP5C9Z0t6t/bfXbejftVZwM69v6P71NeXefvzoGj8kcxWbDF8oXZ4j3oUJyKSWtAX7wom4JpSxUTKkCzho8IKnA8RkDN+dFCcJxvFHjD+ckLOd4iGLuKN2Atx7uUMcfxIYLldG/nhMzRa1CR4wNdiN4juMjxMeU1crzTYEX0KVQv+FZxeHM5A6cAxgh4t2whoQfSAt5tscB0gKivDF4rEKnvs4pVi0akvq8PVY2H4bq6m9YmeqmnWmSIyNm9NGvkFshfKXpECMjxfTsVGFFbec7G3Jk1dNM6Y84G73g+Ifof/jNOFiLBeV/zVoFEolLATgjUL3aqscmtmnwV0tkyochTWlhZTlecTBGc5ehue51AVpsjBSnILhVa9CUE0RlpTpJoy6SPKMeCA6RVfaQ+EElPnamkPvxciHkoK7U+FKrDucMAW6a0XLLGmAREHNtvrp0FSg6ES2FHqsptE6FLaIUFcOIs6kpTh19sufl1yWukFd4raTl3v3GpyBqpbwP7t1L33Y6raXEOOw9e5L7rxhpodweoDXB+Hly4XqSHdjF5Hne7fK/pv8uLTDLlSxDd/QA=);strokeColor=none;spacingTop=-3;spacingBottom=-3;spacingLeft=-3;spacingRight=-3;points=[];labelBackgroundColor=none;rounded=0;html=1;whiteSpace=wrap;" parent="abdKoB1VeoWTYlpOvYKU-73" vertex="1">
          <mxGeometry x="2" y="14" width="69" height="68" as="geometry" />
        </mxCell>
        <mxCell id="abdKoB1VeoWTYlpOvYKU-77" style="vsdxID=73;fillColor=#2d5967;gradientColor=none;shape=stencil(pZNNDoMgEIVPw3aCQAusrb2HiVhJrRi1f7cvlDS1GDGkuwG/eXk8ZxDNx6bsFSJ4nAZzVnddTQ2iB0SI7ho16MlWiBaI5rUZ1Gkw167y5750pKsu5uYUHr6PYRCuieCnv8gwfp+Pnm51N6N3EjD/B+ewZ+s8JyBYIB9tEIEZCjxbpz9eZ+JCprhhIEWUD17LQETsMAnyVz8SpU2OywRxy2OaYD4pmcwmk5T80s3Gj12MZXxw0qZ4i7bFd11q3bZ+2+bfw/WyV341afEC);strokeColor=none;spacingTop=-3;spacingBottom=-3;spacingLeft=-3;spacingRight=-3;points=[];labelBackgroundColor=none;rounded=0;html=1;whiteSpace=wrap;" parent="abdKoB1VeoWTYlpOvYKU-73" vertex="1">
          <mxGeometry x="28" y="2" width="15" height="71" as="geometry" />
        </mxCell>
        <mxCell id="abdKoB1VeoWTYlpOvYKU-78" style="vsdxID=74;fillColor=#2d5967;gradientColor=none;shape=stencil(pZLdDoMgDIWfhlsCrZt47dx7mIiTzIlB9vf2g5Fl6uJfdldKv5P25BBMuypvJQHWWaPP8q4KWxE8EADVVNIo6yqCGcG01EaejL42RXi3uZ/01UXfvMIjcBGngJ4C9gwdEVMG784xALVqegAATYbALqEcpwHO2D/jEaNCbFlnAfg9mDuJGQCBxjAA2PSwoNFQHOfdHFmzRXm/de2PsyttWcjBCsAV39iVqq5Davv/45i6Vog4Zi8=);strokeColor=none;spacingTop=-3;spacingBottom=-3;spacingLeft=-3;spacingRight=-3;points=[];labelBackgroundColor=none;rounded=0;html=1;whiteSpace=wrap;" parent="abdKoB1VeoWTYlpOvYKU-73" vertex="1">
          <mxGeometry x="38" y="40" width="23" height="15" as="geometry" />
        </mxCell>
        <mxCell id="abdKoB1VeoWTYlpOvYKU-79" style="vsdxID=75;fillColor=#2d5967;gradientColor=none;shape=stencil(nZJNDoMgEIVPw5aMjAqsrb2HiVhJrRikf7evhLTVNmrtbhi+eXkMj2DW10WnCIPeWXNUV126muCOMKbbWlnthopgTjCrjFUHa85tGc5d4UlfnczFK9zCXCKo8EMM7qERMSpDZx/4RrcjnvMJHQMVCzT8DyeSRvizjxX665WCU2DzfMopw+laAOZxGdFYTvB0eYtPtZf9TeK41fyC+tb/X+eH4h22SjdNyOr4/jOcQysEG/MH);strokeColor=none;spacingTop=-3;spacingBottom=-3;spacingLeft=-3;spacingRight=-3;points=[];labelBackgroundColor=none;rounded=0;html=1;whiteSpace=wrap;" parent="abdKoB1VeoWTYlpOvYKU-73" vertex="1">
          <mxGeometry x="11" y="40" width="23" height="15" as="geometry" />
        </mxCell>
        <mxCell id="abdKoB1VeoWTYlpOvYKU-109" value="NAT" style="text;html=1;align=center;verticalAlign=middle;resizable=0;points=[];autosize=1;strokeColor=none;fillColor=none;" parent="abdKoB1VeoWTYlpOvYKU-156" vertex="1">
          <mxGeometry x="496.5" y="225" width="50" height="30" as="geometry" />
        </mxCell>
        <mxCell id="abdKoB1VeoWTYlpOvYKU-43" style="vsdxID=76;fillColor=none;gradientColor=none;strokeColor=none;spacingTop=-3;spacingBottom=-3;spacingLeft=-3;spacingRight=-3;points=[];labelBackgroundColor=none;rounded=0;html=1;whiteSpace=wrap;labelPosition=center;verticalLabelPosition=top;align=center;verticalAlign=bottom;" parent="abdKoB1VeoWTYlpOvYKU-156" vertex="1">
          <mxGeometry x="810" y="95" width="60" height="90.51" as="geometry" />
        </mxCell>
        <mxCell id="abdKoB1VeoWTYlpOvYKU-44" style="vsdxID=77;fillColor=none;gradientColor=none;strokeColor=none;spacingTop=-3;spacingBottom=-3;spacingLeft=-3;spacingRight=-3;points=[];labelBackgroundColor=none;rounded=0;html=1;whiteSpace=wrap;" parent="abdKoB1VeoWTYlpOvYKU-43" vertex="1">
          <mxGeometry width="60" height="58.926" as="geometry" />
        </mxCell>
        <mxCell id="abdKoB1VeoWTYlpOvYKU-45" style="vsdxID=78;fillColor=#FFFFFF;gradientColor=none;shape=stencil(ldPbEoIgEAbgp+GWQUgdrzu8R1OaTKYNacnbJy0Iix2mOxZ+9JsFiFjf6v21JJzdetWdy4c89jURG8K5bOtSyX4aEbElYl11qjypbmiPUF/3JmlGl+5uvjDCvpSKzGziTMNEwtir3kH6MCiIJ7DMaZrafII3sJHDhC21LYuc5jYgcMCWxYpmq/CfjWwDIUO82fvBxzDOc52OU4F9DOOChiDuW5unO9/X5vlWaMx1uLmXOtY6nk/E3rdAH//Q65joNyzM4+JAdcweF0c6O6N7hZm/buF/6Wngr3slmwZeS7geP49pCp6W2D4B);strokeColor=none;spacingTop=-3;spacingBottom=-3;spacingLeft=-3;spacingRight=-3;points=[];labelBackgroundColor=none;rounded=0;html=1;whiteSpace=wrap;" parent="abdKoB1VeoWTYlpOvYKU-44" vertex="1">
          <mxGeometry x="0.7142857142857143" y="0.7015" width="58.57142857142857" height="57.523" as="geometry" />
        </mxCell>
        <mxCell id="abdKoB1VeoWTYlpOvYKU-46" style="vsdxID=79;fillColor=#FFFFFF;gradientColor=none;shape=stencil(lZVBcoMwDEVP461H2BDKOk3vkWlIYUohQ0gLty/UxpYlGmDnKF/w9CVhoY/34nzLhYJ71zaf+U956QqhX4VSZV3kbdmNJ6FPQh+vTZt/tM2jvpjft/OknE5fzff0hN7kZVomespSMJiIknH2F3gz+vdHaxIim5HINLUZEUmBXllRKpPIimwolsq+qNdcZEMHGaf45VVZY1iUQPH/o0UpvACHi2riFThe5BUrYRHYleN4qZ7yepcGXsGM6/0eeAEzLRIx/kVYlLDcDMqKEhh9z7o+MPieNt2R0hkkY7A6s3v1azsBO1oMzy3LXkLLIPQLqFkZMQtCp54vDARkq8sCgk4eKDp5jt9GIgCx0s1ZsrE5RL6w0UA22jNQKLTNrhRNNdvWw+u3bYfXR6yXnkodQlBi5sInZ5eXgXg8+GvgWlaVuUXw//TaGEPmytGnXw==);strokeColor=none;spacingTop=-3;spacingBottom=-3;spacingLeft=-3;spacingRight=-3;points=[];labelBackgroundColor=none;rounded=0;html=1;whiteSpace=wrap;" parent="abdKoB1VeoWTYlpOvYKU-44" vertex="1">
          <mxGeometry width="60" height="58.926" as="geometry" />
        </mxCell>
        <mxCell id="abdKoB1VeoWTYlpOvYKU-47" style="vsdxID=80;fillColor=none;gradientColor=none;strokeColor=none;spacingTop=-3;spacingBottom=-3;spacingLeft=-3;spacingRight=-3;points=[];labelBackgroundColor=none;rounded=0;html=1;whiteSpace=wrap;labelPosition=center;verticalLabelPosition=top;align=center;verticalAlign=bottom;" parent="abdKoB1VeoWTYlpOvYKU-43" vertex="1">
          <mxGeometry x="1.4285714285714286" y="1.403" width="58.57142857142857" height="89.107" as="geometry" />
        </mxCell>
        <mxCell id="abdKoB1VeoWTYlpOvYKU-48" style="vsdxID=81;fillColor=#2d5967;gradientColor=none;shape=stencil(lZXRdoMgDEC/hldOIJ3V5679j57VTs9c7bF207+fjikh0R18g3ijlxBE4eFRnO+5svBom/oj/y4vbaHwVVlb3oq8KdthpPCo8HCtm/y9qZ+3i5vfzyM5jj7rr/ENncvLXnRqxiwLvYvA7+zk4Kq8EXinTbbOvj0b92bjHhqd4h9tKA6dDaa95XyHIYDs84tyEJj5da3YQaiWpdrsQz3iP0UAQkFSEAyRRUVZbIZzSWI1iXoHLjVZ0qUgZ3ClPKGo55crL7YaWDnJXkqrPtz/TjjNmptqGcCsyxONu239QVN8CFiPkFBvReI/K/NU3EkTPPdFnaHQnUXsBCWJsAXWLASK6xaSENcuJEHYe9WMnT6ftX78ZiayZzi/0AWw56qzhtzxXth3YsMj/2cRPbs5YRj4i+BaVpW7R+hzfnEMIXfp4PEH);strokeColor=none;spacingTop=-3;spacingBottom=-3;spacingLeft=-3;spacingRight=-3;points=[];labelBackgroundColor=none;rounded=0;html=1;whiteSpace=wrap;" parent="abdKoB1VeoWTYlpOvYKU-47" vertex="1">
          <mxGeometry width="57.142857142857146" height="56.120000000000005" as="geometry" />
        </mxCell>
        <mxCell id="abdKoB1VeoWTYlpOvYKU-49" style="vsdxID=82;fillColor=#2d5967;gradientColor=none;shape=stencil(pZLZDsIgEEW/hleCjLg81/ofTUqFiNBQ6vL3QibGVlMa69u9zJkl5BIoOlW1knDWBe/O8qbroAgcCOfaKul1iIpASaBonJcn73pbo2+rRCZ1cdc04Y59LHVw9kC3YuiPiBptB+iruAjOoAvB7PosOv4BQRmM6Q1db6dH7wX9j98BFTDNf93zKz9zzzwfxTsujTYG0zasf8YrPmE0oXwC);strokeColor=none;spacingTop=-3;spacingBottom=-3;spacingLeft=-3;spacingRight=-3;points=[];labelBackgroundColor=none;rounded=0;html=1;whiteSpace=wrap;" parent="abdKoB1VeoWTYlpOvYKU-47" vertex="1">
          <mxGeometry x="5.714285714285714" y="37.1795" width="44.285714285714285" height="11.9255" as="geometry" />
        </mxCell>
        <mxCell id="abdKoB1VeoWTYlpOvYKU-50" style="vsdxID=83;fillColor=#2d5967;gradientColor=none;shape=stencil(lVJBDoIwEHxNr2S7q/IAxH8YKdKIQAoo/F5qMbRLMHrbTmeYnTKCkrY4N0ogtJ2pb+qps64QdBSIuiqU0d00CUoFJXlt1NXUfZW5c3O2TDvd64f9wuB0e4hAWhXC6BAJ8D6fHP3SG8eX7jqOowPOAhkqYEAGjLgSDcQ5xDfZcF4UM4AY7UJjf7kZgtDWz0s+Y8N08fi4sqwsqbcThYRfY7KQ/tOtPEb+4F9isv9a6uqfGkzDUqFcl6VroH/PKzdBrq6UvgA=);strokeColor=none;spacingTop=-3;spacingBottom=-3;spacingLeft=-3;spacingRight=-3;points=[];labelBackgroundColor=none;rounded=0;html=1;whiteSpace=wrap;" parent="abdKoB1VeoWTYlpOvYKU-47" vertex="1">
          <mxGeometry x="42.142857142857146" y="42.09" width="2.857142857142857" height="2.806" as="geometry" />
        </mxCell>
        <mxCell id="abdKoB1VeoWTYlpOvYKU-51" style="vsdxID=84;fillColor=#2d5967;gradientColor=none;shape=stencil(pZXdcoMgEIWfhtsdYBE312n6HpnGVKZWM8S09u2rQ3+CmwwS7wDPx56zo67A7bnenyqh5bn33Vv16Q59LfBJaO3auvKuH1cCdwK3x85Xr767tIewP+0n5bR67z6mG4bAKSknRsuvsA+75yBtXHslfVD4W+GmdF4+S/yoNO6AsYAUmyjBFvfvLgxgsQ4gA6W6D3BLDHi5+BBCceTniBAKDEeD5io99y4H5CpclHBBD+OmowWNccI/tzcraAJt1wGJDNxSNpCwtACIu2QNmE2OpVKDyQrNgcSryS1lAwlLC4D5LwyozKmgCMisAxKhuaVsIGUpDcRdog1Q1gdECojWAYkM3FI2kLKUBsbF/2w8uqYJo/X6+XyWjkdhDuPuGw==);strokeColor=none;spacingTop=-3;spacingBottom=-3;spacingLeft=-3;spacingRight=-3;points=[];labelBackgroundColor=none;rounded=0;html=1;whiteSpace=wrap;" parent="abdKoB1VeoWTYlpOvYKU-47" vertex="1">
          <mxGeometry x="5.714285714285714" y="5.612" width="20.714285714285715" height="11.9255" as="geometry" />
        </mxCell>
        <mxCell id="abdKoB1VeoWTYlpOvYKU-52" style="vsdxID=85;fillColor=#2d5967;gradientColor=none;shape=stencil(pZXRbsMgDEW/hlcL4xDYc9f9R6WmC1qWVGm6rX/fRKhaGWscN2823AMXI7CizaneHStl9Gnou4/qO+yHWtGrMia0ddWHYYwUbRVtDl1fvffdud3H/LiblFP02X1NK/xETk+E0ZeYoY75W5Q2ob2T3iafEs9InxTObj8rTStgCUqTyD2BpcdrFxZKuw5Adxv5F8gtiQHG0gIgrVJJ4JzEkkNwxTrAF+DwMZBbEgOMpQVAWiWyYFFyD8aBLdYBzBlyS2KAsbQASKvkX8CXkh08gvfrAObQuSUxwFnigbRKqAFFN40eUPRr5ADzgHJLYoCzxANj8NvMDqFpYi+8n//b/Mah2DhpewU=);strokeColor=none;spacingTop=-3;spacingBottom=-3;spacingLeft=-3;spacingRight=-3;points=[];labelBackgroundColor=none;rounded=0;html=1;whiteSpace=wrap;" parent="abdKoB1VeoWTYlpOvYKU-47" vertex="1">
          <mxGeometry x="30" y="5.612" width="20.714285714285715" height="11.9255" as="geometry" />
        </mxCell>
        <mxCell id="abdKoB1VeoWTYlpOvYKU-53" style="vsdxID=86;fillColor=#2d5967;gradientColor=none;shape=stencil(pZXdboMwDIWfJrdWsENwr7v2PaqVjmgMKko39vYDZT8NWWVS7pJwvvgcI8WKtpfqcC4V6kvfta/lhzv2laInheiaquxcP64U7RRtT21XvnTttTn6/fkwKafVW/s+3TB4LtN6YlB/+r3f7b20ds2N9EHhT4V/pfPySeJHpWEHjAXi0IQFU9y/OzdA+TqACXK6D8SWIuD52vkQWYx8HzH+lh0wVuHcux4oVtGihAt6GDadLCCltAQZ0K4DhAyxpWRAsLQACLtkDZhNiqUCwSSFjgEhQ2wpGRAsLQDmTxhwkVIhY2CzDhBCx5aSAcmSDIRd4g1w0p/mDFh4hCRAyBBbSgYkSzIwLv5m48nVtR+tt9/ns3Q88nOYdl8=);strokeColor=none;spacingTop=-3;spacingBottom=-3;spacingLeft=-3;spacingRight=-3;points=[];labelBackgroundColor=none;rounded=0;html=1;whiteSpace=wrap;" parent="abdKoB1VeoWTYlpOvYKU-47" vertex="1">
          <mxGeometry x="5.714285714285714" y="21.7465" width="20.714285714285715" height="11.9255" as="geometry" />
        </mxCell>
        <mxCell id="abdKoB1VeoWTYlpOvYKU-54" style="vsdxID=87;fillColor=#2d5967;gradientColor=none;shape=stencil(pZXbboMwDIafJrdWHJPDrrvuPSqVjmgMKkp3ePuBomnNomJc7hLyf+SzkbCi3aU5nGtl9GUc+rf6Mx7HRtGzMiZ2TT3EcVop2ivanfqhfh36a3dM+/NhTs6r9/5jfsNX4vRMGP2ddqjT/iVF29jdRH8PHwovRB8MLl6/GM07YAmcyeKBwNL9d1cWnN0GoIPK3wdKJTHAKK0A8i45Au8lSh7BV9sApoZSSQwwSiuAvEtkwaJEyXiwoqJLgKmhVBIDjNIKIO9SeILgJDcEhBC2AUzRpZIY4JR4IO8SakDRl8YAKPprlABTQ6kkBjglHpgWf8PsFNs2zcLb8//Db3qUBiftfwA=);strokeColor=none;spacingTop=-3;spacingBottom=-3;spacingLeft=-3;spacingRight=-3;points=[];labelBackgroundColor=none;rounded=0;html=1;whiteSpace=wrap;" parent="abdKoB1VeoWTYlpOvYKU-47" vertex="1">
          <mxGeometry x="30" y="21.7465" width="20.714285714285715" height="11.9255" as="geometry" />
        </mxCell>
        <mxCell id="abdKoB1VeoWTYlpOvYKU-117" value="" style="endArrow=classic;startArrow=classic;html=1;rounded=0;entryX=0.033;entryY=1.035;entryDx=0;entryDy=0;entryPerimeter=0;exitX=1;exitY=0;exitDx=0;exitDy=0;shape=link;dashed=1;dashPattern=1 1;flowAnimation=1;strokeWidth=2;fillColor=#1ba1e2;strokeColor=#006EAF;" parent="abdKoB1VeoWTYlpOvYKU-156" source="abdKoB1VeoWTYlpOvYKU-218" target="abdKoB1VeoWTYlpOvYKU-44" edge="1">
          <mxGeometry width="50" height="50" relative="1" as="geometry">
            <mxPoint x="1475.04" y="557.9600000000003" as="sourcePoint" />
            <mxPoint x="1330" y="625" as="targetPoint" />
          </mxGeometry>
        </mxCell>
        <mxCell id="abdKoB1VeoWTYlpOvYKU-112" value="Containter&lt;br&gt;App" style="text;html=1;align=center;verticalAlign=middle;resizable=0;points=[];autosize=1;strokeColor=none;fillColor=none;" parent="abdKoB1VeoWTYlpOvYKU-156" vertex="1">
          <mxGeometry x="800" y="54.999999999999986" width="80" height="40" as="geometry" />
        </mxCell>
        <mxCell id="abdKoB1VeoWTYlpOvYKU-232" style="edgeStyle=orthogonalEdgeStyle;rounded=0;orthogonalLoop=1;jettySize=auto;html=1;exitX=1;exitY=0.75;exitDx=0;exitDy=0;entryX=0.486;entryY=-0.125;entryDx=0;entryDy=0;entryPerimeter=0;shape=link;dashed=1;dashPattern=1 1;flowAnimation=1;strokeWidth=2;fillColor=#1ba1e2;strokeColor=#006EAF;" parent="abdKoB1VeoWTYlpOvYKU-156" source="abdKoB1VeoWTYlpOvYKU-218" target="abdKoB1VeoWTYlpOvYKU-210" edge="1">
          <mxGeometry relative="1" as="geometry" />
        </mxCell>
        <mxCell id="abdKoB1VeoWTYlpOvYKU-233" style="edgeStyle=orthogonalEdgeStyle;rounded=0;orthogonalLoop=1;jettySize=auto;html=1;exitX=1;exitY=0.5;exitDx=0;exitDy=0;entryX=0;entryY=0.509;entryDx=0;entryDy=0;entryPerimeter=0;shape=link;dashed=1;dashPattern=1 1;flowAnimation=1;strokeWidth=2;fillColor=#1ba1e2;strokeColor=#006EAF;" parent="abdKoB1VeoWTYlpOvYKU-156" source="abdKoB1VeoWTYlpOvYKU-177" target="abdKoB1VeoWTYlpOvYKU-44" edge="1">
          <mxGeometry relative="1" as="geometry" />
        </mxCell>
        <mxCell id="abdKoB1VeoWTYlpOvYKU-234" style="edgeStyle=orthogonalEdgeStyle;rounded=0;orthogonalLoop=1;jettySize=auto;html=1;exitX=0;exitY=0.5;exitDx=0;exitDy=0;entryX=0.986;entryY=0.529;entryDx=0;entryDy=0;entryPerimeter=0;fillColor=#d5e8d4;strokeColor=#82b366;shape=link;flowAnimation=1;strokeWidth=2;" parent="abdKoB1VeoWTYlpOvYKU-156" source="abdKoB1VeoWTYlpOvYKU-177" target="abdKoB1VeoWTYlpOvYKU-76" edge="1">
          <mxGeometry relative="1" as="geometry" />
        </mxCell>
        <mxCell id="abdKoB1VeoWTYlpOvYKU-236" style="edgeStyle=orthogonalEdgeStyle;rounded=0;orthogonalLoop=1;jettySize=auto;html=1;exitX=0;exitY=0.25;exitDx=0;exitDy=0;entryX=0.986;entryY=0.529;entryDx=0;entryDy=0;entryPerimeter=0;fillColor=#d5e8d4;strokeColor=#82b366;shape=link;flowAnimation=1;strokeWidth=2;width=-4;" parent="abdKoB1VeoWTYlpOvYKU-156" source="abdKoB1VeoWTYlpOvYKU-218" target="abdKoB1VeoWTYlpOvYKU-76" edge="1">
          <mxGeometry relative="1" as="geometry">
            <Array as="points">
              <mxPoint x="670" y="270" />
              <mxPoint x="613" y="270" />
              <mxPoint x="613" y="199" />
            </Array>
          </mxGeometry>
        </mxCell>
        <mxCell id="abdKoB1VeoWTYlpOvYKU-237" value="" style="endArrow=classic;startArrow=classic;html=1;rounded=0;entryX=1.095;entryY=0.596;entryDx=0;entryDy=0;entryPerimeter=0;exitX=0.027;exitY=0.56;exitDx=0;exitDy=0;exitPerimeter=0;fillColor=#d5e8d4;strokeColor=#82b366;shape=link;flowAnimation=1;strokeWidth=2;" parent="abdKoB1VeoWTYlpOvYKU-156" source="abdKoB1VeoWTYlpOvYKU-73" target="abdKoB1VeoWTYlpOvYKU-95" edge="1">
          <mxGeometry width="50" height="50" relative="1" as="geometry">
            <mxPoint x="710" y="345" as="sourcePoint" />
            <mxPoint x="760" y="295" as="targetPoint" />
          </mxGeometry>
        </mxCell>
        <mxCell id="abdKoB1VeoWTYlpOvYKU-238" value="" style="endArrow=classic;startArrow=classic;html=1;rounded=0;entryX=1;entryY=0.5;entryDx=0;entryDy=0;exitX=-0.085;exitY=0.562;exitDx=0;exitDy=0;exitPerimeter=0;fillColor=#d5e8d4;strokeColor=#82b366;shape=link;flowAnimation=1;strokeWidth=2;" parent="abdKoB1VeoWTYlpOvYKU-156" source="abdKoB1VeoWTYlpOvYKU-94" target="abdKoB1VeoWTYlpOvYKU-198" edge="1">
          <mxGeometry width="50" height="50" relative="1" as="geometry">
            <mxPoint x="710" y="345" as="sourcePoint" />
            <mxPoint x="760" y="295" as="targetPoint" />
          </mxGeometry>
        </mxCell>
        <mxCell id="abdKoB1VeoWTYlpOvYKU-265" value="" style="shape=image;verticalLabelPosition=bottom;labelBackgroundColor=default;verticalAlign=top;aspect=fixed;imageAspect=0;image=https://cdn-icons-png.flaticon.com/512/8722/8722283.png;" parent="abdKoB1VeoWTYlpOvYKU-156" vertex="1">
          <mxGeometry x="650" y="100" width="36" height="36" as="geometry" />
        </mxCell>
        <mxCell id="abdKoB1VeoWTYlpOvYKU-268" value="" style="shape=image;verticalLabelPosition=bottom;labelBackgroundColor=default;verticalAlign=top;aspect=fixed;imageAspect=0;image=https://cdn-icons-png.flaticon.com/512/8722/8722283.png;" parent="abdKoB1VeoWTYlpOvYKU-156" vertex="1">
          <mxGeometry x="650" y="225" width="36" height="36" as="geometry" />
        </mxCell>
        <mxCell id="abdKoB1VeoWTYlpOvYKU-8" style="vsdxID=30;fillColor=none;gradientColor=none;strokeColor=none;spacingTop=-3;spacingBottom=-3;spacingLeft=-3;spacingRight=-3;points=[];labelBackgroundColor=none;rounded=0;html=1;whiteSpace=wrap;" parent="1" vertex="1">
          <mxGeometry x="-880" y="210" width="70" height="70" as="geometry" />
        </mxCell>
        <mxCell id="abdKoB1VeoWTYlpOvYKU-9" style="vsdxID=31;fillColor=none;gradientColor=none;strokeColor=none;spacingTop=-3;spacingBottom=-3;spacingLeft=-3;spacingRight=-3;points=[];labelBackgroundColor=none;rounded=0;html=1;whiteSpace=wrap;" parent="abdKoB1VeoWTYlpOvYKU-8" vertex="1">
          <mxGeometry width="70" height="70" as="geometry" />
        </mxCell>
        <mxCell id="abdKoB1VeoWTYlpOvYKU-10" style="vsdxID=32;fillColor=#FFFFFF;gradientColor=none;shape=stencil(lZPBbsMgDIafhqtlDAQ4d+17VGu6oGVJlaZb+/ZLBiRxpKbazTa/+WyDhdpdq+OlFITXvms/y59w6iuh3gRRaKqyC/1gCbUXanduu/Kja2/NKfqX46gcra/2e7zhHvO0BanGLMJHjEjEP/8Q5e+3LuplPCYJ0qQEyTPwTjGQ3EdyrQVTJIXiiuSaTSRyHBFozYHLongNGbjsk9XwhFl4cJ5zV006D1pxprSAlnO9mnrPXI3g3RbbWyDN2ZqAOH4aeoZrA85w+KyZ5pxvfoKeM1LAaCgUJw/lacvZxgGal40bD0Zu0ZcjzSECv+JbBClXg8fXz73613Vo/rMGgzGv0DnUddzA5fl65YZQXFe1/wU=);strokeColor=none;spacingTop=-3;spacingBottom=-3;spacingLeft=-3;spacingRight=-3;points=[];labelBackgroundColor=none;rounded=0;html=1;whiteSpace=wrap;" parent="abdKoB1VeoWTYlpOvYKU-9" vertex="1">
          <mxGeometry width="68.33333333333333" height="69.1139240506329" as="geometry" />
        </mxCell>
        <mxCell id="abdKoB1VeoWTYlpOvYKU-11" style="vsdxID=33;fillColor=#FFFFFF;gradientColor=none;shape=stencil(lVXLcsIwDPyaXDXy2z5T+A+mhJIpJUyAFv6+SW0nltMkcHOUtVe7suRCrC6H7bksOF6uTf1Z/lS766EQbwXn1elQNtW1XRViXYjVvm7Kj6a+nXb++7ztkN3qq/7uTrj7fdKA6DZxfPgAB2H/AhsPf781Hs/8f+1Ahw0s24F37iPWAkZQCDEHigeU8CHHQJuACiHJwM2ROwWoKLvkYDWldwaMovRSgVMZfYIKIYWz5MmGEFICLMvIkxRDSBlgclG7ssDm6FtTuaP0FkFm1iflGdzQmfNJ0UUOmmBvqxzr92Djg3m8CjzTbjQwR9kT0FO+J/gYGdue5sdH93JSd37bj9XpleZY6KV5WQyYobqQasJMz1gQvuIjUjLzT/mSlGLfIi55GCETtAZHPTscGgeGA8kosRXAKLMToF0m2IHRCz2bX9u+z3r2Pp2+YWXfaneRY57yeoDHMaXA5JNicDJOqWEqzIiWCFzOTorEzZiPBkfZ07LQ+zZdaSJ5oVUItl0MD9C+Oh79+5X+zx+sNuQfO7H+BQ==);strokeColor=none;spacingTop=-3;spacingBottom=-3;spacingLeft=-3;spacingRight=-3;points=[];labelBackgroundColor=none;rounded=0;html=1;whiteSpace=wrap;" parent="abdKoB1VeoWTYlpOvYKU-9" vertex="1">
          <mxGeometry width="70" height="70" as="geometry" />
        </mxCell>
        <mxCell id="abdKoB1VeoWTYlpOvYKU-12" style="vsdxID=34;fillColor=#2d5967;gradientColor=none;shape=stencil(lVnZcpwwEPyafaWQRgc85/iPVOLEW3Hs1Ma5/j7aAqFRN0jkzcgDrZ7pOaS9yJsfjx++P1zs+OP19vL14ff10+vjRd5erL0+Pz7crq/pr4u8u8ibzy+3hy+3l5/Pn5bn7x/ulve/vr38un/hz/KeGcf7O3b8uzz75fH9Yvvx520xNmi9LriwPP+xy/McBzOtJuuSs4NfjWQ1kiGsS3/XJWdWowPgaR6mqYbOOBk6joP4GnqscV0cxlDjNtlaU8iY+os1QMazRHWs4dreBd/GuH3N8oYsRKRBMtscwGrHYZwzcvJ/AOdOlqLqDNCd2lHValmXPJEumlsXvKuBi8Gul5+uz6f1XufGbIYYamvXlenmAwOvFF8migKUSDja6JR49AtmkwJCq/3l9PSUnoq2gNFRIN1gLIB7BJ8DIEdCDv/DeLM25ETL27IUjmO6GOZaQn1Z1DLSubNVu9jWURgm9Cexm9wQKZigIgdxnI5pBV9K7J417lHb5z1K5rVtMlmh4mQuVuu+gqKyLonv+ChMg4s1vrgaPJrBzgAO5VKbrEvWD7aJrN/JBXMG2oGakRGmPRYKglYH4H5mcHZ7qryED2UzVVqs18Z1mHtfpJ/BDSBLkUUOAxH3hqqb6/BOXcoD70AZESjfLXQpnYxl9oiNdD+RvnW+i2AihZ6i7ikBfg0cVJfCg41jwnKWjGbI+lQYbYNgMLhfeoFyz1CfC5FFGAbr6v1OlrSwM7DMPTG4kXJ/gklUoNtk/2ZYHSU5CFPtpxNxhdl6Lio/09C0/XFFTZmycc9cSQWiZjoBoyMNqmgZ+m6WIE+gjuuatjrVyh1P2nfxALiwnoI5wTx0Dhfao4a+azk4lrcobHVmGu0opNaTTu0zHVrXi+JodCrzEuYlfGSTtppSpwCfWkcR1Xm8tSkCd2oayk5tR9TxHD5xeTLE3NAc7vlUY0IL2o80uuFJNe0Ok8iSjrXRNph0OGMOiSGPex6JJSB2gAPVZrHfP8aSlvv21D7GIuRS0XGruslsHRA2aig6rRG3l0D/Z10np57l1rDH3gTL+Wm4i6bGikOsNeCGuDPENpEjDZEWJ1geNsRSau5MsNIbHlLZjJCc+stljsQbh22LwianaOsXDLiy1HSqSDy/7g3uGG1Kkp48oNjbUkfWlW7/xi6WDgZY7SH3rWDu25nmIukg36+9QE3iSMcm8HF1RHTj+e6hlaKN9KT6SDWnHPT0DRuqLvB4Y6kfNS8MuqGEyFem3h5/WHtrz5oGTM68dJxEF6holkM8Jv6OTEKnKW/ayye63QkPs2+i7rTj/rkDrcOab4+Ep5GikHxocBz8GrkVnlYg65DrUeQco7BzApKazs7VS9gpZZ4C2eI0tUjRNZZjvfGRfQtmLsGR1LZzak8n33ax15cBWXH8kwFKfaaCuHNXgcGpXdQPZvqj/B7z+fr0tPyco/+Pv9+kpeW3H3n3Dw==);strokeColor=none;spacingTop=-3;spacingBottom=-3;spacingLeft=-3;spacingRight=-3;points=[];labelBackgroundColor=none;rounded=0;html=1;whiteSpace=wrap;" parent="abdKoB1VeoWTYlpOvYKU-8" vertex="1">
          <mxGeometry x="0.8333333333333333" y="0.8860759493670886" width="66.66666666666667" height="67.34177215189872" as="geometry" />
        </mxCell>
        <mxCell id="abdKoB1VeoWTYlpOvYKU-239" value="DNS" style="text;html=1;align=center;verticalAlign=middle;resizable=0;points=[];autosize=1;strokeColor=none;fillColor=none;" parent="1" vertex="1">
          <mxGeometry x="-870" y="270" width="50" height="30" as="geometry" />
        </mxCell>
        <mxCell id="abdKoB1VeoWTYlpOvYKU-240" value="" style="endArrow=classic;startArrow=classic;html=1;rounded=0;entryX=0;entryY=0.5;entryDx=0;entryDy=0;exitX=0.943;exitY=0.529;exitDx=0;exitDy=0;exitPerimeter=0;fillColor=#dae8fc;strokeColor=#6c8ebf;shape=link;flowAnimation=1;strokeWidth=2;" parent="1" source="abdKoB1VeoWTYlpOvYKU-11" target="abdKoB1VeoWTYlpOvYKU-198" edge="1">
          <mxGeometry width="50" height="50" relative="1" as="geometry">
            <mxPoint x="-990" y="420" as="sourcePoint" />
            <mxPoint x="-940" y="370" as="targetPoint" />
          </mxGeometry>
        </mxCell>
        <mxCell id="abdKoB1VeoWTYlpOvYKU-241" style="vsdxID=4;fillColor=none;gradientColor=none;strokeColor=none;spacingTop=-3;spacingBottom=-3;spacingLeft=-3;spacingRight=-3;points=[];labelBackgroundColor=none;rounded=0;html=1;whiteSpace=wrap;" parent="1" vertex="1">
          <mxGeometry x="-1060" y="220" width="84" height="44" as="geometry" />
        </mxCell>
        <mxCell id="abdKoB1VeoWTYlpOvYKU-242" style="vsdxID=5;fillColor=#FFFFFF;gradientColor=none;shape=stencil(hZbbUhsxDIafZm81tuWDdE3hPZgSmkzThAmhhbevlo3sWEvMXVaR/VmW9FsT3r1uH182U3Cv59Px9+bf7um8nfDHFMLusN2cdmf5NeH9hHfPx9Pm1+n4dnhavl8eZ8/515/j33mH92Wdm1cE97F8MUPJn5aHxXm/O1w7Qyi9f4BC1/4/307L7l5X5MuCi4EiUFpM72ExeWDd9WIpBebvTydcTBHCZdnHxVJkbz9iZ0jYw3PsyQxqUXIiyNiTPULgHp0SuDBC+wiu9OwUwbMJPEKxfARn+QlCNHwPecxPUJLhS/K84Wdw1PMjQWLDzzUZyo8ZeIgv4GKPR6qxVjwD+h6PHtDgQ9BYK14y64eZDwnYpF4qkbDnowPHPV8OzqnnYwSknj975RFf1rC5fllDJv2YIIUVn0z8eJWkW/y+S2VF7tv0+wMXiHF1YCZzYIL1ebM9LwGvjjvMFrIVCSk5vRllR9e6QOEJskmWeJVs6BHSMPYo/W34UpjZ4HOrAm1ViN7QGch0qrRzGsGl302hunajCjLq6HpqdlWyaswqIreUMa5CDuBMyLlAMe0ZVe0rfBZhU52kcn4DXrCmreYbwZtHoWS9uZZvqnVd8aWVuopDUu25xae2swafWyWF6lVl52KSyOodKV8qxdy9FI8f1hu5tTi2h1X54kUm7yKOulD55Ff1Ll5x+DZQWiUfA7ARZ6KVOM1KZF5l9mDClw7E4dvAsemZdqDUlQmfc91Yu8DVq650qVD7Mmd90m/hGYLB59BEX0vNuZ6euY0tWHciQ5eiLePguXZQHYgQinmYmJqOqMnVYeYqem9GIq51/OXDIH8HvdU+zq+nvc71u9Fw7Cw/2gT6vNvvlwH2+n87sYppmXbx/j8=);strokeColor=none;spacingTop=-3;spacingBottom=-3;spacingLeft=-3;spacingRight=-3;points=[];labelBackgroundColor=none;rounded=0;html=1;whiteSpace=wrap;" parent="abdKoB1VeoWTYlpOvYKU-241" vertex="1">
          <mxGeometry x="1" width="82" height="42" as="geometry" />
        </mxCell>
        <mxCell id="abdKoB1VeoWTYlpOvYKU-243" style="vsdxID=6;fillColor=#FFFFFF;gradientColor=none;shape=stencil(lVjLchw3DPyavaJIgs+z4/yHK5ajrSiSS5YT7d8b6x0Cw2aG69xkGtwevBoNnvjDt8dPXx9OwX17e3356+Hf8+e3xxP/dgrh/Pz48Hp+k79O/PHEH768vD78+fry/fnz7d9fP10tr3/9/fLP9Rfeb/dSoXC9FNzldhAppZ8Hv9/M//j+erP3t//Pnlzbbni9sv3Ge9iMIjW/GfUjSnUz4u2kUujY25F3tAQvnhKP4D5S5BG9RPJtRA+OXBrhS6IG8PKRhZf4mbiO+KFO3peiYB2fBR/cF6taRnz2xH6JXylD8DloSBS/UUZ8Jm4jfnWUM+Az1bDCr0yuAH6kmkf8mogz4GfKBfALxQT4rSfuAL8Fi2wvvkhlhG/JkrQdJXEf4JvkGtzP3EvpCL6SB/gidyrgFz3q+FUqEvGlRUb4Jh85RP/p/LzrVLnAvfbN0Xx8QQoj/z/7Ar/vyddVPAI1qEYpkN5UPRzRurzXZyaoxUwBglEcLaGrJrRD56kQvKfAI3RqVPyILQSSADxlyASi+0TJj/ApUQTPfe7tbPhSCAz4Eg0GfE3dEX6x3HZ8p8lQ/GL56cmQDsuAX3UCbCex9LgdwVcqYYSPwRzr8M0IrtNAIQYaDkLpSINMYV13YgDuh6Zl1vGDZCSO+FJoDtIfyjwGuE+vA/wrm0P1hdl/YWYG/8XZMMILffaCvFhERhYc21SoNHR6+dULLa4vTA7KbII5e70DPM/Vvt3mLIw54fSE8XXkl/GNjjiO8FJM2F7RWxaCFmaE9hKrXEd86Yu1+5F1Wik+k4+An3Wmd/ymrazwEiOYcqWfHKAnr65qc5t4MiIBahMdBKy603b9a0DcjYVyVwvekY6uN9eRY5BTZ83YvXJWdz2lWu3vRk8VCJupxGVCZdgCYWTViJrP0Fl/l8+C4E7r4GIDZE1X0gIFyzkRuC5GAUSTGPV72k075rX5sZ7ScseDaJU7GbpJWh7hM1WEL5qyHfyoGSfyARUyXZi+V4Q5dp+JNf3eNLHr3mpHr9j9d/GdCS0/h2IeJZfdwMPpErRzlf3SvenarMTsk7qi34mLAsN9l2gd7vOSI7S13vCuZQf1Em0evFtxwo4h2sKhtkm2LHZS0tl5BB+NsI0RPbSLWHnAF6sG4kJYOwH7XrXV0v02jT6RgwGkpa0zut/6qVmjrUG28salsJv3G1lTPYC7CbwGVNRuwm4OVM3YqM525s1ec/ff9mNTO3dsKr+kM/BXzLPNv+1EuCkuL7Tp29N6kdyN5b5RNFuRO/3viNsijWO2tWmRLyo9j4rcuRFdKoNxj2xadrsiY2A4iU2BgSTaoC3RJWAB1pc4P2M02+UuNiIr7rHeStaG1Nr7Ok8kIWoUA7I0V2BY4UFdL/szgjdfOsOKVlwKkeoItUhok74rbXrEuj72QPbFCjtNFF6994xTIf5yx0H8xQqfUa5DB/wXKwfroxBPXVKsLOA+jPiiidF9VsGvA87rPd3cJdZQ/LlLlKMXxGSTS2mPYbxIpSdoPTciz+oW9ecddYvm8oe9kn45Pz3dHln3/4+vqnJ0e5Hljz8A);strokeColor=none;spacingTop=-3;spacingBottom=-3;spacingLeft=-3;spacingRight=-3;points=[];labelBackgroundColor=none;rounded=0;html=1;whiteSpace=wrap;" parent="abdKoB1VeoWTYlpOvYKU-241" vertex="1">
          <mxGeometry width="84" height="44" as="geometry" />
        </mxCell>
        <mxCell id="abdKoB1VeoWTYlpOvYKU-244" style="vsdxID=7;fillColor=#2d5967;gradientColor=none;shape=stencil(jVjLchw3DPyavaL4fpwd+z9cthxtRZFcspys/t492SU4bGa4vq1GmGkS7G4APPkPPx4/f384OfPj7fXlr4d/z1/fHk/+j5Nz5+fHh9fzG36d/MeT//Dt5fXhz9eXn89fr39//7xFbr/+fvln+8Ll+l5NkraXnHm/PciS4n9PPl3jn87PQ/wYXaUeB0cr3i/jv/x8va7GXv8fqoRwe8PqK+X6jrm4W1SWWG5RTqPsDerib1FRSvuW75tLS/wgluCTOEJ3Ej2hBzGJ0G17T8GRjbwC99hpHtFLkVRGeF+kuBG+RAllhEeUHeGLlVqW8Fl8HeFzkZAIPouh3ecg2RL8Lur2KBup9pgryNdIlSl+OitkuNB6cVi0XpyWt5QuK4HWu517pnxFcX6Jn/oe23HVzoOGXyTmER9EcGHEh1Ic5au2hPy/Dr0EN+SL43m5NXaItlwvjqSFqBhOfLy8XPCdVpsgtiW618w09Ai+UbKqER9H9GjE0mEVeBYdFrS+1lYJUt2IH7CkMOIX1zSi+BsvI+GDmWQswdzBz1WT+N7lnshaspqv4m9CdiP+xvIy4vsodY0fmpo6vpfiCd8Lbd9boewjxpCzuXwP3XbDvj1ybpJKquKJexY+Qs6WksQ44lsvaWkVyUsmZ7XgFZ1+MhLTiF+0gKlS85R8BC25H4MmWpWnVtvAoxPaey+Fio01J9q6bVFHLpUn4iNdIY7o0E8ll7SpUXrvko5S70wzwSN80IVSj6NvlnjpKmtaaPguaJlVfEPgUfJy816PpoMnqVzS4CeUezCacu93BtJpf1PCEbxr7cYePpHovOl1t8N7ov1GGcaHpyzxAaZ2ahWMt49Ec+5hDYn27/xsOtj/UnYOLQcRP5iJ+YgyhA+iMfdANKI+Kmtab9+II+pBZcaO8LZOBTpG7fmazMpkOvGe6cG7Iu0eDpPJdCAzR8qDWxkyXYszqiN+CndMzzqxdPqpm5eW3F7LWhGwUzNbGtF6NxdbY3pkuULYqJpE/NgZ3RtZ5l3ozv1bjdG+8/y9xmirsEST2tOtKq0t3d2g87xaO6nEGnO8WjOsdB3aV6mt2tL8jLq8HkHujW+jn2Tu5quQ9LwQ9TLapOUYl7RqK/OSarEzz1C13eRRR2yQOFJCITyzHOJQ3yL1WjFpFdKdh14bGiGD+rXix2mQgYfUJaHwTqJBKlqeIqF7S8LD8Mu2k7RFVtfLbSdH6EkIHKTkKQ5+ZonNPk3omEfZ8pUvx5afiHUoZnz0G6WIdniUqdxvHkK5x+fDGr9OQyG2YSj5KMyOzh4ZMVzyY68fuzqwHqJTv/Kw+k4h1fkuxB1+pDkDxhRoiEdNWcPXPhb2MjTNpGZyXnC2EDxoY7jRDi1vx90e358IFRy0mix7rS6XXto9ZV47+KMm23Y9tZ3rLi9d4JZ4Z6Zjh79wl32vyU12mq3NiJx203djfJdFK+llrvJ3+JbnIo/Jhi/Mtunv/mSFuTLTXIvyu9YbJlbe+dZ1Mn6e9V6muT4Xtf9dixuWXo9qxX6DFpf1ht6DO/zNyXiut3qPpaxzd1rsEnpr1OdqT3633ViQ4GAunrusbhTv3QLsEr/6/uXdHSbf6mQhu4nQE4muzj0uesy8pF/rWPoNXL90VfAqdPboQyLV+d099O6udnkRfe/iGj/6rfe389PT9dJ8/3++Jcej6w27//gL);strokeColor=none;spacingTop=-3;spacingBottom=-3;spacingLeft=-3;spacingRight=-3;points=[];labelBackgroundColor=none;rounded=0;html=1;whiteSpace=wrap;" parent="abdKoB1VeoWTYlpOvYKU-241" vertex="1">
          <mxGeometry x="2" y="2" width="81" height="40" as="geometry" />
        </mxCell>
        <mxCell id="abdKoB1VeoWTYlpOvYKU-246" value="Internet" style="text;html=1;align=center;verticalAlign=middle;resizable=0;points=[];autosize=1;strokeColor=none;fillColor=none;" parent="1" vertex="1">
          <mxGeometry x="-1050" y="260" width="60" height="30" as="geometry" />
        </mxCell>
        <mxCell id="abdKoB1VeoWTYlpOvYKU-260" value="" style="endArrow=classic;startArrow=classic;html=1;rounded=0;exitX=0.955;exitY=0.296;exitDx=0;exitDy=0;exitPerimeter=0;entryX=0.012;entryY=0.955;entryDx=0;entryDy=0;entryPerimeter=0;fillColor=#dae8fc;strokeColor=#6c8ebf;shape=link;flowAnimation=1;strokeWidth=2;" parent="1" source="abdKoB1VeoWTYlpOvYKU-307" target="abdKoB1VeoWTYlpOvYKU-241" edge="1">
          <mxGeometry width="50" height="50" relative="1" as="geometry">
            <mxPoint x="-950" y="460" as="sourcePoint" />
            <mxPoint x="-900" y="410" as="targetPoint" />
          </mxGeometry>
        </mxCell>
        <mxCell id="abdKoB1VeoWTYlpOvYKU-261" value="" style="endArrow=classic;startArrow=classic;html=1;rounded=0;exitX=1.012;exitY=0.591;exitDx=0;exitDy=0;exitPerimeter=0;entryX=0.014;entryY=0.529;entryDx=0;entryDy=0;entryPerimeter=0;fillColor=#dae8fc;strokeColor=#6c8ebf;shape=link;flowAnimation=1;strokeWidth=2;" parent="1" source="abdKoB1VeoWTYlpOvYKU-241" target="abdKoB1VeoWTYlpOvYKU-11" edge="1">
          <mxGeometry width="50" height="50" relative="1" as="geometry">
            <mxPoint x="-1128" y="346" as="sourcePoint" />
            <mxPoint x="-1049" y="272" as="targetPoint" />
          </mxGeometry>
        </mxCell>
        <mxCell id="abdKoB1VeoWTYlpOvYKU-247" style="vsdxID=66;fillColor=none;gradientColor=none;strokeColor=none;spacingTop=-3;spacingBottom=-3;spacingLeft=-3;spacingRight=-3;points=[];labelBackgroundColor=none;rounded=0;html=1;whiteSpace=wrap;" parent="1" vertex="1">
          <mxGeometry x="-1450" y="380" width="84" height="44" as="geometry" />
        </mxCell>
        <mxCell id="abdKoB1VeoWTYlpOvYKU-248" style="vsdxID=67;fillColor=none;gradientColor=none;strokeColor=none;spacingTop=-3;spacingBottom=-3;spacingLeft=-3;spacingRight=-3;points=[];labelBackgroundColor=none;rounded=0;html=1;whiteSpace=wrap;" parent="abdKoB1VeoWTYlpOvYKU-247" vertex="1">
          <mxGeometry width="84" height="44" as="geometry" />
        </mxCell>
        <mxCell id="abdKoB1VeoWTYlpOvYKU-249" style="vsdxID=68;fillColor=#FFFFFF;gradientColor=none;shape=stencil(lVbLctswDPwaXTEEwec5Tf8j0zi1pq6dUZw2+fvQI/EBWKLjm0gvzAW4XGCgh7f90+tu0OrtPJ3+7P6Pz+f9QD8GrcfjfjeN5/Q10ONADy+nafd7Or0fn+f169MFefn6e/p3+YePOU5dIrT6nFeo5vXPGXoYj5tQb0C5FvzrfZr/GDl8WToDTs9bH3reIsCwgJYd6wBpAdFyDtgMWnYsAfUO9qAiP9tqIMfPdhCsOBvBID/blbBydqc+FoJnJTIBELfxqMC7gZc/s1oPwD5aFgI1GM8rYcCLS0ALhhdCQTS8DhggEC9EAa0yTVeriZGVeMk13ZojzrXhkQWDYAXZJA/LyZIGJciigxi22ZIDw9lWwWzQpUTXcrqtfjLfUCWxrTKjADnfClrlazQIunfiTWLfvY1EiQxPzxDI24iAmmeXEtYiuxZVb8h2ZN5GLPfnIerudTQh2W9AvPimClno4h5SVYTVdF67S0lExvIucJIydl2sDcGiUx+FjSGQUJjBLPaSmY1FdDkz4/ILXfeyJiI7XzaT9QxLPpsBKxkiT7CG1AQJlGwS1wblSjP67htyAYwwXwcWu3wDRPHmAyhhp16XNrftp96DFnT7fhoQHGd7y0+DveqC134aKv+intogFmYhSSFysjf6VIrwXAs3AqICLV48ZSNZD6jDxPd6baTseCUggu0+wFgMr5GnrGDUEJFXMAkvRF7ChDLCA1OHCf3j04QiLK2djnL3Voqfnl4CioZYMVl+lGeqjbmET3pRVqo3Ft4FvmPcFND0USfal/FwmAfi9nc5AaeteXqmxy8=);strokeColor=none;spacingTop=-3;spacingBottom=-3;spacingLeft=-3;spacingRight=-3;points=[];labelBackgroundColor=none;rounded=0;html=1;whiteSpace=wrap;" parent="abdKoB1VeoWTYlpOvYKU-248" vertex="1">
          <mxGeometry x="1" y="1" width="82" height="42" as="geometry" />
        </mxCell>
        <mxCell id="abdKoB1VeoWTYlpOvYKU-250" style="vsdxID=69;fillColor=#FFFFFF;gradientColor=none;shape=stencil(pVlddxwnDP01+6oDiM/nNPkfOYlT76lr52yc1vn3xZ2BEdKMdmjf1vjCSOhyJcEFP/x4/Pz94eLMj9fbyx8Pf1+/vj5e8LeLc9fnx4fb9bX+uuDHC3749nJ7+P328vP56/L398/vyPdff7789b7C2zIvGvD5fZYzv5YRD+Hfvz8t8KfrswpP4OwMHi2UTCd8+XlbDLJyyjqEEYpfht7cMhQKuLKi1iFvIa9Db7iiEmBbax3yQfOPTlhHHCTVP+dVvHDPQkyje31K9y46yHH0LiDYMHoXPZgwehf60L65GbIdzLUZjFPtJRu9DlnTV2kGJ7ftWwsHlDjamyLYMtrbQbvm5h1yjnhubcbNQSvsWC3LETyOxhYwdjQ2S+pYD1nhQiGRXT9d11Dx3YwVn0GNRTGQmHehblEY3SuGMceBY8zJJKjY+aXubCFks51shX87QXTj5yOCYUSgKOwEMtrekhndHoU5hVDtFL6q3tT6ZgJc+VbsBD4JUdHx9YhOGR8T2Kn1q2RPwIMQGR3vCavP4HGSC+gm8TOxdZN7b4myn8JPGcOT1yRcHEIuAmRGSw91c1kuCF0VugIRoWhaSoJ+UoH6Vmxp03H52TSqfZroYxM/CGn8MtdddnwBmUyrsm4F3UTeEJ7hZpLtnrBttTJryRRrCR1PpViH/LDeS7GOHL/DFIskvK5HPLMcW2tBXhCIeoSdzcC1IrB6lZuLROxsJ5plxEFCii1tptFcb0Zb9dLQI+fNLN73k3TgmycVRBuqR5SVyp6kE9c3BQt3bkO18Li2/JFuszRV9SEowZMTKl1RPRl0Sj8ZhZ0ML6vlRorNvZ1OYK7R+X9w1nWJLGBm1lbAXjQwRt1fySDDTkYSm1sFgMkOBeFBaEUSZztwhzxyQqVnVjtJOqUN5V74dgdl0vBe9FqViIX1WnrWoBM6PioU8kZHC++KKMi3OVTYkGcNgtriJ05HAaWvRyFWNjUFPbLXiWhksOwoO6nDBphSORQJvGH2E7Io0RhcpGPSPFhuRMtmJzTHyvTWxeug2BOV8B38GAIPXkGL1OkjZO0uREiaTuDACR80UeP9WbgTFBmTYAEZ22WJVEF5jArBIMMcVr284AmhR799mjXdtesNrNph1UMttosikKzuV2+tGA2Msu+i5lfRnGAqtvb55TwcJ5ZGkQF1OIKdQOcpu73lzFXh9J7yBDzOxSeKVliFp4k9T0KLVHgWdYcKL3MRZcKiYyO/htPhc1vY/vmfwPop5mghELIhZh1xFR3eiJUkLmapeLW0RNL51tw4tf6gczZFzuzzKPsqochFJvRN2/eDJrrWrc8/ut9jx1Cvb+ht54pXm/5cII3V6Z3L4ryjC4DaJaK8uu8N9dFluGx9dy7DvSh/RYDoPTyOmH3tENn9ToZNVmR3QSV6a3l4ax9ldrcZvPaCIxR3LFvOvN+wlikacQNW2Rb4641suDfUUS5hJJufcK+r2HGPdkPH71M1jSbPPHSiK9z6hqNgsCbvzvOiwOtd+lTbrYPrj+1N9dv16Wl5kqX/52+wdWh5v8WP/wA=);strokeColor=none;spacingTop=-3;spacingBottom=-3;spacingLeft=-3;spacingRight=-3;points=[];labelBackgroundColor=none;rounded=0;html=1;whiteSpace=wrap;" parent="abdKoB1VeoWTYlpOvYKU-248" vertex="1">
          <mxGeometry width="84" height="44" as="geometry" />
        </mxCell>
        <mxCell id="abdKoB1VeoWTYlpOvYKU-251" style="vsdxID=70;fillColor=none;gradientColor=none;strokeColor=none;spacingTop=-3;spacingBottom=-3;spacingLeft=-3;spacingRight=-3;points=[];labelBackgroundColor=none;rounded=0;html=1;whiteSpace=wrap;" parent="abdKoB1VeoWTYlpOvYKU-247" vertex="1">
          <mxGeometry x="2" y="2" width="80" height="40" as="geometry" />
        </mxCell>
        <mxCell id="abdKoB1VeoWTYlpOvYKU-252" style="vsdxID=71;fillColor=#2d5967;gradientColor=none;shape=stencil(nVjbUhsxDP2avGpsy9dnSv+DKaFkSgkToA1/X6W7tmV51xt42zjS6ujo6t3hzevj3ct+Z9Tr2+n4a//3cP/2uMNvO2MOz4/70+GNnnZ4u8Obh+Np//N0fH++n36/3F0kL0+/j38ubzhPesGCdRctoz6mE2fBhP8n3yeFH++nSUPPKh68nVXmI2cg+OnobGapBG4++piPnIIw2zrjdBQ1KDNLzUc2grHc/tPhmQEmjdACtmGo4CN43ShoMupHHnoHPrUeWnCmddB5SLZ1ULXOETBrW+fUOk60gC1ONcJoDHhsMaoWoEbQAqAHhy1G4sLHFqMmX8M6TvUZ8ini2MrL6HZ+gZbUp5o2Jgsl03rmNBiRW8Sn8IzS1AwDn8AK47UaOK8xCOvEQhLEegipNe8V4DpVBgF9w5WU76iyEE0LlzIXsYWLxKggyyeIkiwF2gm4RWrFPsVSR2GfvTlz48BGYd9BFHnIq+kqunyAGD9FF+9IWqgUtDGBcgKt79ByKSyNNA6qhmvMCaIGzSD/+SXhDopkoipkHmomDYigSIbYEsHHR46knB8t2CsGTjuhjAYdGgUT8gBaLqReweQRcH0zrTq167AKNb0U9lWJ19pPYDbNowMl+jm5Ks1TIUfZ0BMMrS/U8YJ5ClOQ5rG0lnMtWhc3vBeFzDRW4tvNZ6aiCzl5jp3rSCiBmI8sDYBtvqrUeriSSBf+ZtPnoelRYi+FK/5v5rdUaCvIRbCNvMNhiXbylirUDANC+18QhNCeJgihRmpFQDCWTatkUOgCQquRH7WUMtYLYA9mOAv4Uri+ZlBbNNgCritEHV2VLvwav518G79+M/SgBqOR753L8pIOXttaqFQ2WNXlVYiOxCKx0ABoFVJxaJ4Nf110nKxn1bVfLoUlV/OOW+ybPPiX6dLdBaG4tbyp16T9WLEgPeRL2LqHxhU6Bx5S/acNgruGIeC6/NJleTYNr/SPhp4Sm3MEZ4V7dcqZLslqqZdcx+Xk3bo2Sfm2mPj2XpqyHq9LPt8X67hhfStHKkIS5cF7YA4e2yFqxrbddete0LWLDnAot9Vyj9HdDX3hfsh7YM4tldFVwLK7inV0m+FPK7Qx5DN7jjmRNJxQSHUkGlxR4VelKJd/MiUylAnVCTBf/5ZTlGmUDh2GGw4R0A3UcnOueAMk0RFJKnfy0YYTN+xbhNiZD8I85UGQCxYDWW2JdtV5L/pxFO2qo3dhgRXNh4UtI3N1STB9Bqxz1aWWQLudi/RQP789HJ6epq93/H/5uY6Opk99ePsP);strokeColor=none;spacingTop=-3;spacingBottom=-3;spacingLeft=-3;spacingRight=-3;points=[];labelBackgroundColor=none;rounded=0;html=1;whiteSpace=wrap;" parent="abdKoB1VeoWTYlpOvYKU-251" vertex="1">
          <mxGeometry x="53" width="27" height="40" as="geometry" />
        </mxCell>
        <mxCell id="abdKoB1VeoWTYlpOvYKU-253" style="vsdxID=72;fillColor=#2d5967;gradientColor=none;shape=stencil(UzV2Ls5ILEhVNTIoLinKz04tz0wpyVA1dlE1MsrMy0gtyiwBslSNXVWNndPyi1LTi/JL81Ig/IJEkEoQKze/DGRCBUSfAUiHkUElhGdkrGdqDBZxgyjOyczDqdjQwAC3UpgkWYoJOANdOR6TTYlWSUFAYCgGMhDhnZaZkwOJLmR59PgBCkHi1tgVAA==);strokeColor=none;spacingTop=-3;spacingBottom=-3;spacingLeft=-3;spacingRight=-3;points=[];labelBackgroundColor=none;rounded=0;html=1;whiteSpace=wrap;" parent="abdKoB1VeoWTYlpOvYKU-251" vertex="1">
          <mxGeometry x="71" y="30" width="2" height="10" as="geometry" />
        </mxCell>
        <mxCell id="abdKoB1VeoWTYlpOvYKU-254" style="vsdxID=73;fillColor=#2d5967;gradientColor=none;shape=stencil(pVjbUhsxDP2avGpsyfLlmbb/wRQomVJgArTw9zXN+iI5602mb8FIlnQkHcm7o6uX++vn2x2al9fD08/bP/ub1/sdfdkh7h/vbw/71/xrR193dHX3dLj9cXh6e7w5/v18/Sn5+evX0+/PG96PeonA0acWmo/jCRNg+Hfy7ajw/e1w1LCLCoPHRWU5YgvBH4/ecZEKYOIitRyxAeRFihapVIyZj+XIRUDX23/YP3YOW2OEuy5MxWMATkLBOuBpfNGDJRmfByYZXvDgnQzPyNC8g6RCM+t+MgKz8NPMfHQI5KSPRjpIDshKB3PgKH0kC5Skj9aC8RP4Y83heQnICilKBZ1gHRxasEEGl0snsAwQCcirAsNWhks4yA3X5YjdRoFbA4mVfYYQpX0jbed0R4WukXZDlgjrQMmyLmV+UjSBS/8hPTgydHjTKA3gIaoO6BNbMDBAEgIy4L2EoQqddNZZ8FZ4q+WHViAwqlo8AylvcwFRUN4miIqOOA790KRW7PsAVlVLf3PhC4KAyj43TEuJMNh4CVwRwcWL4DrBbhwgJOluTLXea3MxYJTu9sOjIKinh6rF7XEj5xPlWkShgKEw70kLJxSwlNRaBblK7wWSTC4WJSR5xpV0FUjaza2CUoO3MGo+mhZQNyhsvdhaaT4YiJvWT9TPZvT9JLPjzcV8BLttPkJ0G+ZltnqNlfQO/nYqyxHljSQOcBnV73lm4na2mtRatcSGsR1vxrEMcfSSRilaiX+zvLWCbKA+vWe16KiQ+wNxyil5Z0AFSd4IFSSRIKmViSL4JCHp+YkqcHbicM9Vi/E8rS8lQZeGDaMn17ZhoNowerzOI8EzUiJzOC6HHsxkKuTJ4tNUfmgqO1BgVWk9xZAUCURgN3CAlWhYnG6UIwVYLk+H8xU4TsPjoWetr++TEp+PbffAUaoM5BwOXxRhzzJ1w2SeKDC4IBVyBfhZhLl8NYtn31lF2O9KOEqts1LDYcV+r2N1kM0+1/apW1Ars9I9OKzs83Lfbg+1U2Ad7ot8fiz56UZMVFGqQ6fjrkJn+SmkVoSeB6keedUiA8NuLcWbj/TMmUG/ocZHev/+w1pIQW3FecIExXADw6optY3wxQqKEoee8vk9OJ1S+d0X9KJedfo1zyhIfF29aol2Qu3pgGlSo53GAmFFdd1fY6W/7enc/PV196gpjDVfs0Unbtjvic6ON7d3b9KLVudlaeDukUQr8asZ1mmsIHzOS6ylDmvKWeHVV8E6XkN9bZH8oJB/tM9wd/uHh+NXvP7/+rNdPjp+8qOvfwE=);strokeColor=none;spacingTop=-3;spacingBottom=-3;spacingLeft=-3;spacingRight=-3;points=[];labelBackgroundColor=none;rounded=0;html=1;whiteSpace=wrap;" parent="abdKoB1VeoWTYlpOvYKU-251" vertex="1">
          <mxGeometry width="27" height="40" as="geometry" />
        </mxCell>
        <mxCell id="abdKoB1VeoWTYlpOvYKU-255" style="vsdxID=74;fillColor=#2d5967;gradientColor=none;shape=stencil(nZFNCoQwDIVPk610EjyBo/cQrDZMp5Xa+fH2tgRRZuGIu/eSLyHkAVWTaUcNqKYY/EN/uIsG6A6I7IwOHJMCqoGq3gc9BP9ynfixzWRWT//OG74yV6o8gmoWK64R0rLbkRdBpKKks/BNHexdm5fgP2ecf8MRmcT2556tlZj2/d9cUkkypXoB);strokeColor=none;spacingTop=-3;spacingBottom=-3;spacingLeft=-3;spacingRight=-3;points=[];labelBackgroundColor=none;rounded=0;html=1;whiteSpace=wrap;" parent="abdKoB1VeoWTYlpOvYKU-251" vertex="1">
          <mxGeometry x="6" y="30" width="2" height="10" as="geometry" />
        </mxCell>
        <mxCell id="abdKoB1VeoWTYlpOvYKU-256" style="vsdxID=75;fillColor=#2d5967;gradientColor=none;shape=stencil(pVfbdhoxDPwaXnVsydfnNP2PnIYUTmnIIaSlf1/Ttb2yzF5I3xYxWmvGI9m7oYf33dPbdoPq/Xw6/tj+3j+fdxv6skHcv+62p/05PW3ocUMPL8fT9vvp+PH6PPx+e7oir08/j7+ub7gMed6CttcsVH+GiCUw/l/k65Bw2L+yBBdA/WeCsWANT/j2cRpq0rkoBB9ySg4ZDTaHLlhL9yajcogc6By6UI/KIVLg4nTBPGOIIMQZgj1eTYMNgY7TYKkEaYi2VUK1KqAFI1SwEIUIHJRD2gGZ6Tp5Rk6IEO7Bp9J1nOPGU3TdP0eCXwBBzyCo0PKjpCq1/IwDNcOPZ6yyMRoIC76XBLUGFATHnEpQtewcQvAtO9Uy8wbQTReqmiK1mjFj2qGwHu1L13wO3ZXddf2YkSOuerSqpS1QaBWzEaKwO9srEqDbbjBA2G7uLN4qoHlyYgY6QH/H+29MZYGX4gUDDlv1mC5ZqYhAWtiNSUw9ap3leMYKa8QASOvh5c9PgRddNyYU07EGzCKFAN4J07FGpn7TSKLWbrNMaE9rq8G0Hbt4lqY5qMUJMo7GyjAdrwZbhsaAtWLM+ipNHbP1XJ46wVhrlVAAp9v1CQuN8SwfxanrM1QJyVNGNDbLWHOMpZ7RfhYv+SW7eMGvplR6zoITUyuBSs8UevymVE7ppDjOzJXubtXdbbp6Wcq4HxpFwWnA2bbg5DQl9oPbkSb8KPRdNnDreOfBuCbBlVvDFEE2a8uGEJDvCEZBkKOotwNJ1FrDyYSuQwg8tQUHiLJB3Hg6ohCilptuRq6tVool7LMo7r34dvNMhLaZXD2Yb4sXwYl5WO+yaxMU2DmxmUS6s2SdhmxmlnmP3bxn7EiCJlZn9wbdvxcrKMTF1W/03vLyprtx31rfyxs3l2jsDC+8JqXvJqtvvWPnzXaveZbx6WH8DH7ZHw7DVzT/X342p9DwyU2PfwE=);strokeColor=none;spacingTop=-3;spacingBottom=-3;spacingLeft=-3;spacingRight=-3;points=[];labelBackgroundColor=none;rounded=0;html=1;whiteSpace=wrap;" parent="abdKoB1VeoWTYlpOvYKU-251" vertex="1">
          <mxGeometry x="23" width="34" height="40" as="geometry" />
        </mxCell>
        <mxCell id="abdKoB1VeoWTYlpOvYKU-257" style="vsdxID=76;fillColor=#2d5967;gradientColor=none;shape=stencil(nZHBDsIgEES/Zq/Nytqk91r/o0mpEBEailb/XujG2DYaorfZ5Q0ZGKB6VO0gQeAYvDvLSXdBAR1ACG2V9DpEBdQA1b3z8uTd1XY8D20ik7q4W7rhzr4dYvIIfPAsqChp3hwZN9ou8JKKar8y4HcY/wMzEdbwK/9HdPu4n+BMjCwexfvTe20Md7Y835YUV1wwNU8=);strokeColor=none;spacingTop=-3;spacingBottom=-3;spacingLeft=-3;spacingRight=-3;points=[];labelBackgroundColor=none;rounded=0;html=1;whiteSpace=wrap;" parent="abdKoB1VeoWTYlpOvYKU-251" vertex="1">
          <mxGeometry x="30" y="30" width="2" height="10" as="geometry" />
        </mxCell>
        <mxCell id="abdKoB1VeoWTYlpOvYKU-258" style="vsdxID=77;fillColor=#2d5967;gradientColor=none;shape=stencil(UzV2Ls5ILEhVNTIoLinKz04tz0wpyVA1dlE1MsrMy0gtyiwBslSNXVWNndPyi1LTi/JL81Ig/IJEkEoQKze/DGRCBUSfoYEBSI+RQSUq3w2iOCczD49iI2M9U2PileMx2cRMz9CIWMUkOYIC71GiGMhABHlaZk4OJMaQ5dGjCCgEiV5jVwA=);strokeColor=none;spacingTop=-3;spacingBottom=-3;spacingLeft=-3;spacingRight=-3;points=[];labelBackgroundColor=none;rounded=0;html=1;whiteSpace=wrap;" parent="abdKoB1VeoWTYlpOvYKU-251" vertex="1">
          <mxGeometry x="47" y="30" width="2" height="10" as="geometry" />
        </mxCell>
        <mxCell id="abdKoB1VeoWTYlpOvYKU-293" style="vsdxID=66;fillColor=none;gradientColor=none;strokeColor=none;spacingTop=-3;spacingBottom=-3;spacingLeft=-3;spacingRight=-3;points=[];labelBackgroundColor=none;rounded=0;html=1;whiteSpace=wrap;" parent="1" vertex="1">
          <mxGeometry x="-1370" y="240" width="179" height="100" as="geometry" />
        </mxCell>
        <mxCell id="abdKoB1VeoWTYlpOvYKU-294" style="vsdxID=67;fillColor=none;gradientColor=none;strokeColor=none;spacingTop=-3;spacingBottom=-3;spacingLeft=-3;spacingRight=-3;points=[];labelBackgroundColor=none;rounded=0;html=1;whiteSpace=wrap;" parent="abdKoB1VeoWTYlpOvYKU-293" vertex="1">
          <mxGeometry width="74" height="44" as="geometry" />
        </mxCell>
        <mxCell id="abdKoB1VeoWTYlpOvYKU-295" style="vsdxID=68;fillColor=#FFFFFF;gradientColor=none;shape=stencil(lVbLctswDPwaXTEEwec5Tf8j0zi1pq6dUZw2+fvQI/EBWKLjm0gvzAW4XGCgh7f90+tu0OrtPJ3+7P6Pz+f9QD8GrcfjfjeN5/Q10ONADy+nafd7Or0fn+f169MFefn6e/p3+YePOU5dIrT6nFeo5vXPGXoYj5tQb0C5FvzrfZr/GDl8WToDTs9bH3reIsCwgJYd6wBpAdFyDtgMWnYsAfUO9qAiP9tqIMfPdhCsOBvBID/blbBydqc+FoJnJTIBELfxqMC7gZc/s1oPwD5aFgI1GM8rYcCLS0ALhhdCQTS8DhggEC9EAa0yTVeriZGVeMk13ZojzrXhkQWDYAXZJA/LyZIGJciigxi22ZIDw9lWwWzQpUTXcrqtfjLfUCWxrTKjADnfClrlazQIunfiTWLfvY1EiQxPzxDI24iAmmeXEtYiuxZVb8h2ZN5GLPfnIerudTQh2W9AvPimClno4h5SVYTVdF67S0lExvIucJIydl2sDcGiUx+FjSGQUJjBLPaSmY1FdDkz4/ILXfeyJiI7XzaT9QxLPpsBKxkiT7CG1AQJlGwS1wblSjP67htyAYwwXwcWu3wDRPHmAyhhp16XNrftp96DFnT7fhoQHGd7y0+DveqC134aKv+intogFmYhSSFysjf6VIrwXAs3AqICLV48ZSNZD6jDxPd6baTseCUggu0+wFgMr5GnrGDUEJFXMAkvRF7ChDLCA1OHCf3j04QiLK2djnL3Voqfnl4CioZYMVl+lGeqjbmET3pRVqo3Ft4FvmPcFND0USfal/FwmAfi9nc5AaeteXqmxy8=);strokeColor=none;spacingTop=-3;spacingBottom=-3;spacingLeft=-3;spacingRight=-3;points=[];labelBackgroundColor=none;rounded=0;html=1;whiteSpace=wrap;" parent="abdKoB1VeoWTYlpOvYKU-294" vertex="1">
          <mxGeometry x="0.47058823529411764" y="0.43103448275862066" width="38.588235294117645" height="18.103448275862068" as="geometry" />
        </mxCell>
        <mxCell id="abdKoB1VeoWTYlpOvYKU-296" style="vsdxID=69;fillColor=#FFFFFF;gradientColor=none;shape=stencil(pVlddxwnDP01+6oDiM/nNPkfOYlT76lr52yc1vn3xZ2BEdKMdmjf1vjCSOhyJcEFP/x4/Pz94eLMj9fbyx8Pf1+/vj5e8LeLc9fnx4fb9bX+uuDHC3749nJ7+P328vP56/L398/vyPdff7789b7C2zIvGvD5fZYzv5YRD+Hfvz8t8KfrswpP4OwMHi2UTCd8+XlbDLJyyjqEEYpfht7cMhQKuLKi1iFvIa9Db7iiEmBbax3yQfOPTlhHHCTVP+dVvHDPQkyje31K9y46yHH0LiDYMHoXPZgwehf60L65GbIdzLUZjFPtJRu9DlnTV2kGJ7ftWwsHlDjamyLYMtrbQbvm5h1yjnhubcbNQSvsWC3LETyOxhYwdjQ2S+pYD1nhQiGRXT9d11Dx3YwVn0GNRTGQmHehblEY3SuGMceBY8zJJKjY+aXubCFks51shX87QXTj5yOCYUSgKOwEMtrekhndHoU5hVDtFL6q3tT6ZgJc+VbsBD4JUdHx9YhOGR8T2Kn1q2RPwIMQGR3vCavP4HGSC+gm8TOxdZN7b4myn8JPGcOT1yRcHEIuAmRGSw91c1kuCF0VugIRoWhaSoJ+UoH6Vmxp03H52TSqfZroYxM/CGn8MtdddnwBmUyrsm4F3UTeEJ7hZpLtnrBttTJryRRrCR1PpViH/LDeS7GOHL/DFIskvK5HPLMcW2tBXhCIeoSdzcC1IrB6lZuLROxsJ5plxEFCii1tptFcb0Zb9dLQI+fNLN73k3TgmycVRBuqR5SVyp6kE9c3BQt3bkO18Li2/JFuszRV9SEowZMTKl1RPRl0Sj8ZhZ0ML6vlRorNvZ1OYK7R+X9w1nWJLGBm1lbAXjQwRt1fySDDTkYSm1sFgMkOBeFBaEUSZztwhzxyQqVnVjtJOqUN5V74dgdl0vBe9FqViIX1WnrWoBM6PioU8kZHC++KKMi3OVTYkGcNgtriJ05HAaWvRyFWNjUFPbLXiWhksOwoO6nDBphSORQJvGH2E7Io0RhcpGPSPFhuRMtmJzTHyvTWxeug2BOV8B38GAIPXkGL1OkjZO0uREiaTuDACR80UeP9WbgTFBmTYAEZ22WJVEF5jArBIMMcVr284AmhR799mjXdtesNrNph1UMttosikKzuV2+tGA2Msu+i5lfRnGAqtvb55TwcJ5ZGkQF1OIKdQOcpu73lzFXh9J7yBDzOxSeKVliFp4k9T0KLVHgWdYcKL3MRZcKiYyO/htPhc1vY/vmfwPop5mghELIhZh1xFR3eiJUkLmapeLW0RNL51tw4tf6gczZFzuzzKPsqochFJvRN2/eDJrrWrc8/ut9jx1Cvb+ht54pXm/5cII3V6Z3L4ryjC4DaJaK8uu8N9dFluGx9dy7DvSh/RYDoPTyOmH3tENn9ToZNVmR3QSV6a3l4ax9ldrcZvPaCIxR3LFvOvN+wlikacQNW2Rb4641suDfUUS5hJJufcK+r2HGPdkPH71M1jSbPPHSiK9z6hqNgsCbvzvOiwOtd+lTbrYPrj+1N9dv16Wl5kqX/52+wdWh5v8WP/wA=);strokeColor=none;spacingTop=-3;spacingBottom=-3;spacingLeft=-3;spacingRight=-3;points=[];labelBackgroundColor=none;rounded=0;html=1;whiteSpace=wrap;" parent="abdKoB1VeoWTYlpOvYKU-294" vertex="1">
          <mxGeometry width="39.529411764705884" height="18.96551724137931" as="geometry" />
        </mxCell>
        <mxCell id="abdKoB1VeoWTYlpOvYKU-269" style="vsdxID=66;fillColor=none;gradientColor=none;strokeColor=none;spacingTop=-3;spacingBottom=-3;spacingLeft=-3;spacingRight=-3;points=[];labelBackgroundColor=none;rounded=0;html=1;whiteSpace=wrap;" parent="abdKoB1VeoWTYlpOvYKU-294" vertex="1">
          <mxGeometry x="-10" width="84" height="44" as="geometry" />
        </mxCell>
        <mxCell id="abdKoB1VeoWTYlpOvYKU-270" style="vsdxID=67;fillColor=none;gradientColor=none;strokeColor=none;spacingTop=-3;spacingBottom=-3;spacingLeft=-3;spacingRight=-3;points=[];labelBackgroundColor=none;rounded=0;html=1;whiteSpace=wrap;" parent="abdKoB1VeoWTYlpOvYKU-269" vertex="1">
          <mxGeometry width="84" height="44" as="geometry" />
        </mxCell>
        <mxCell id="abdKoB1VeoWTYlpOvYKU-271" style="vsdxID=68;fillColor=#FFFFFF;gradientColor=none;shape=stencil(lVbLctswDPwaXTEEwec5Tf8j0zi1pq6dUZw2+fvQI/EBWKLjm0gvzAW4XGCgh7f90+tu0OrtPJ3+7P6Pz+f9QD8GrcfjfjeN5/Q10ONADy+nafd7Or0fn+f169MFefn6e/p3+YePOU5dIrT6nFeo5vXPGXoYj5tQb0C5FvzrfZr/GDl8WToDTs9bH3reIsCwgJYd6wBpAdFyDtgMWnYsAfUO9qAiP9tqIMfPdhCsOBvBID/blbBydqc+FoJnJTIBELfxqMC7gZc/s1oPwD5aFgI1GM8rYcCLS0ALhhdCQTS8DhggEC9EAa0yTVeriZGVeMk13ZojzrXhkQWDYAXZJA/LyZIGJciigxi22ZIDw9lWwWzQpUTXcrqtfjLfUCWxrTKjADnfClrlazQIunfiTWLfvY1EiQxPzxDI24iAmmeXEtYiuxZVb8h2ZN5GLPfnIerudTQh2W9AvPimClno4h5SVYTVdF67S0lExvIucJIydl2sDcGiUx+FjSGQUJjBLPaSmY1FdDkz4/ILXfeyJiI7XzaT9QxLPpsBKxkiT7CG1AQJlGwS1wblSjP67htyAYwwXwcWu3wDRPHmAyhhp16XNrftp96DFnT7fhoQHGd7y0+DveqC134aKv+intogFmYhSSFysjf6VIrwXAs3AqICLV48ZSNZD6jDxPd6baTseCUggu0+wFgMr5GnrGDUEJFXMAkvRF7ChDLCA1OHCf3j04QiLK2djnL3Voqfnl4CioZYMVl+lGeqjbmET3pRVqo3Ft4FvmPcFND0USfal/FwmAfi9nc5AaeteXqmxy8=);strokeColor=none;spacingTop=-3;spacingBottom=-3;spacingLeft=-3;spacingRight=-3;points=[];labelBackgroundColor=none;rounded=0;html=1;whiteSpace=wrap;" parent="abdKoB1VeoWTYlpOvYKU-270" vertex="1">
          <mxGeometry x="1" y="1" width="82" height="42" as="geometry" />
        </mxCell>
        <mxCell id="abdKoB1VeoWTYlpOvYKU-272" style="vsdxID=69;fillColor=#FFFFFF;gradientColor=none;shape=stencil(pVlddxwnDP01+6oDiM/nNPkfOYlT76lr52yc1vn3xZ2BEdKMdmjf1vjCSOhyJcEFP/x4/Pz94eLMj9fbyx8Pf1+/vj5e8LeLc9fnx4fb9bX+uuDHC3749nJ7+P328vP56/L398/vyPdff7789b7C2zIvGvD5fZYzv5YRD+Hfvz8t8KfrswpP4OwMHi2UTCd8+XlbDLJyyjqEEYpfht7cMhQKuLKi1iFvIa9Db7iiEmBbax3yQfOPTlhHHCTVP+dVvHDPQkyje31K9y46yHH0LiDYMHoXPZgwehf60L65GbIdzLUZjFPtJRu9DlnTV2kGJ7ftWwsHlDjamyLYMtrbQbvm5h1yjnhubcbNQSvsWC3LETyOxhYwdjQ2S+pYD1nhQiGRXT9d11Dx3YwVn0GNRTGQmHehblEY3SuGMceBY8zJJKjY+aXubCFks51shX87QXTj5yOCYUSgKOwEMtrekhndHoU5hVDtFL6q3tT6ZgJc+VbsBD4JUdHx9YhOGR8T2Kn1q2RPwIMQGR3vCavP4HGSC+gm8TOxdZN7b4myn8JPGcOT1yRcHEIuAmRGSw91c1kuCF0VugIRoWhaSoJ+UoH6Vmxp03H52TSqfZroYxM/CGn8MtdddnwBmUyrsm4F3UTeEJ7hZpLtnrBttTJryRRrCR1PpViH/LDeS7GOHL/DFIskvK5HPLMcW2tBXhCIeoSdzcC1IrB6lZuLROxsJ5plxEFCii1tptFcb0Zb9dLQI+fNLN73k3TgmycVRBuqR5SVyp6kE9c3BQt3bkO18Li2/JFuszRV9SEowZMTKl1RPRl0Sj8ZhZ0ML6vlRorNvZ1OYK7R+X9w1nWJLGBm1lbAXjQwRt1fySDDTkYSm1sFgMkOBeFBaEUSZztwhzxyQqVnVjtJOqUN5V74dgdl0vBe9FqViIX1WnrWoBM6PioU8kZHC++KKMi3OVTYkGcNgtriJ05HAaWvRyFWNjUFPbLXiWhksOwoO6nDBphSORQJvGH2E7Io0RhcpGPSPFhuRMtmJzTHyvTWxeug2BOV8B38GAIPXkGL1OkjZO0uREiaTuDACR80UeP9WbgTFBmTYAEZ22WJVEF5jArBIMMcVr284AmhR799mjXdtesNrNph1UMttosikKzuV2+tGA2Msu+i5lfRnGAqtvb55TwcJ5ZGkQF1OIKdQOcpu73lzFXh9J7yBDzOxSeKVliFp4k9T0KLVHgWdYcKL3MRZcKiYyO/htPhc1vY/vmfwPop5mghELIhZh1xFR3eiJUkLmapeLW0RNL51tw4tf6gczZFzuzzKPsqochFJvRN2/eDJrrWrc8/ut9jx1Cvb+ht54pXm/5cII3V6Z3L4ryjC4DaJaK8uu8N9dFluGx9dy7DvSh/RYDoPTyOmH3tENn9ToZNVmR3QSV6a3l4ax9ldrcZvPaCIxR3LFvOvN+wlikacQNW2Rb4641suDfUUS5hJJufcK+r2HGPdkPH71M1jSbPPHSiK9z6hqNgsCbvzvOiwOtd+lTbrYPrj+1N9dv16Wl5kqX/52+wdWh5v8WP/wA=);strokeColor=none;spacingTop=-3;spacingBottom=-3;spacingLeft=-3;spacingRight=-3;points=[];labelBackgroundColor=none;rounded=0;html=1;whiteSpace=wrap;" parent="abdKoB1VeoWTYlpOvYKU-270" vertex="1">
          <mxGeometry width="84" height="44" as="geometry" />
        </mxCell>
        <mxCell id="abdKoB1VeoWTYlpOvYKU-273" style="vsdxID=70;fillColor=none;gradientColor=none;strokeColor=none;spacingTop=-3;spacingBottom=-3;spacingLeft=-3;spacingRight=-3;points=[];labelBackgroundColor=none;rounded=0;html=1;whiteSpace=wrap;" parent="abdKoB1VeoWTYlpOvYKU-269" vertex="1">
          <mxGeometry x="2" y="2" width="80" height="40" as="geometry" />
        </mxCell>
        <mxCell id="abdKoB1VeoWTYlpOvYKU-274" style="vsdxID=71;fillColor=#2d5967;gradientColor=none;shape=stencil(nVjbUhsxDP2avGpsy9dnSv+DKaFkSgkToA1/X6W7tmV51xt42zjS6ujo6t3hzevj3ct+Z9Tr2+n4a//3cP/2uMNvO2MOz4/70+GNnnZ4u8Obh+Np//N0fH++n36/3F0kL0+/j38ubzhPesGCdRctoz6mE2fBhP8n3yeFH++nSUPPKh68nVXmI2cg+OnobGapBG4++piPnIIw2zrjdBQ1KDNLzUc2grHc/tPhmQEmjdACtmGo4CN43ShoMupHHnoHPrUeWnCmddB5SLZ1ULXOETBrW+fUOk60gC1ONcJoDHhsMaoWoEbQAqAHhy1G4sLHFqMmX8M6TvUZ8ini2MrL6HZ+gZbUp5o2Jgsl03rmNBiRW8Sn8IzS1AwDn8AK47UaOK8xCOvEQhLEegipNe8V4DpVBgF9w5WU76iyEE0LlzIXsYWLxKggyyeIkiwF2gm4RWrFPsVSR2GfvTlz48BGYd9BFHnIq+kqunyAGD9FF+9IWqgUtDGBcgKt79ByKSyNNA6qhmvMCaIGzSD/+SXhDopkoipkHmomDYigSIbYEsHHR46knB8t2CsGTjuhjAYdGgUT8gBaLqReweQRcH0zrTq167AKNb0U9lWJ19pPYDbNowMl+jm5Ks1TIUfZ0BMMrS/U8YJ5ClOQ5rG0lnMtWhc3vBeFzDRW4tvNZ6aiCzl5jp3rSCiBmI8sDYBtvqrUeriSSBf+ZtPnoelRYi+FK/5v5rdUaCvIRbCNvMNhiXbylirUDANC+18QhNCeJgihRmpFQDCWTatkUOgCQquRH7WUMtYLYA9mOAv4Uri+ZlBbNNgCritEHV2VLvwav518G79+M/SgBqOR753L8pIOXttaqFQ2WNXlVYiOxCKx0ABoFVJxaJ4Nf110nKxn1bVfLoUlV/OOW+ybPPiX6dLdBaG4tbyp16T9WLEgPeRL2LqHxhU6Bx5S/acNgruGIeC6/NJleTYNr/SPhp4Sm3MEZ4V7dcqZLslqqZdcx+Xk3bo2Sfm2mPj2XpqyHq9LPt8X67hhfStHKkIS5cF7YA4e2yFqxrbddete0LWLDnAot9Vyj9HdDX3hfsh7YM4tldFVwLK7inV0m+FPK7Qx5DN7jjmRNJxQSHUkGlxR4VelKJd/MiUylAnVCTBf/5ZTlGmUDh2GGw4R0A3UcnOueAMk0RFJKnfy0YYTN+xbhNiZD8I85UGQCxYDWW2JdtV5L/pxFO2qo3dhgRXNh4UtI3N1STB9Bqxz1aWWQLudi/RQP789HJ6epq93/H/5uY6Opk99ePsP);strokeColor=none;spacingTop=-3;spacingBottom=-3;spacingLeft=-3;spacingRight=-3;points=[];labelBackgroundColor=none;rounded=0;html=1;whiteSpace=wrap;" parent="abdKoB1VeoWTYlpOvYKU-273" vertex="1">
          <mxGeometry x="53" width="27" height="40" as="geometry" />
        </mxCell>
        <mxCell id="abdKoB1VeoWTYlpOvYKU-275" style="vsdxID=72;fillColor=#2d5967;gradientColor=none;shape=stencil(UzV2Ls5ILEhVNTIoLinKz04tz0wpyVA1dlE1MsrMy0gtyiwBslSNXVWNndPyi1LTi/JL81Ig/IJEkEoQKze/DGRCBUSfAUiHkUElhGdkrGdqDBZxgyjOyczDqdjQwAC3UpgkWYoJOANdOR6TTYlWSUFAYCgGMhDhnZaZkwOJLmR59PgBCkHi1tgVAA==);strokeColor=none;spacingTop=-3;spacingBottom=-3;spacingLeft=-3;spacingRight=-3;points=[];labelBackgroundColor=none;rounded=0;html=1;whiteSpace=wrap;" parent="abdKoB1VeoWTYlpOvYKU-273" vertex="1">
          <mxGeometry x="71" y="30" width="2" height="10" as="geometry" />
        </mxCell>
        <mxCell id="abdKoB1VeoWTYlpOvYKU-276" style="vsdxID=73;fillColor=#2d5967;gradientColor=none;shape=stencil(pVjbUhsxDP2avGpsyfLlmbb/wRQomVJgArTw9zXN+iI5602mb8FIlnQkHcm7o6uX++vn2x2al9fD08/bP/ub1/sdfdkh7h/vbw/71/xrR193dHX3dLj9cXh6e7w5/v18/Sn5+evX0+/PG96PeonA0acWmo/jCRNg+Hfy7ajw/e1w1LCLCoPHRWU5YgvBH4/ecZEKYOIitRyxAeRFihapVIyZj+XIRUDX23/YP3YOW2OEuy5MxWMATkLBOuBpfNGDJRmfByYZXvDgnQzPyNC8g6RCM+t+MgKz8NPMfHQI5KSPRjpIDshKB3PgKH0kC5Skj9aC8RP4Y83heQnICilKBZ1gHRxasEEGl0snsAwQCcirAsNWhks4yA3X5YjdRoFbA4mVfYYQpX0jbed0R4WukXZDlgjrQMmyLmV+UjSBS/8hPTgydHjTKA3gIaoO6BNbMDBAEgIy4L2EoQqddNZZ8FZ4q+WHViAwqlo8AylvcwFRUN4miIqOOA790KRW7PsAVlVLf3PhC4KAyj43TEuJMNh4CVwRwcWL4DrBbhwgJOluTLXea3MxYJTu9sOjIKinh6rF7XEj5xPlWkShgKEw70kLJxSwlNRaBblK7wWSTC4WJSR5xpV0FUjaza2CUoO3MGo+mhZQNyhsvdhaaT4YiJvWT9TPZvT9JLPjzcV8BLttPkJ0G+ZltnqNlfQO/nYqyxHljSQOcBnV73lm4na2mtRatcSGsR1vxrEMcfSSRilaiX+zvLWCbKA+vWe16KiQ+wNxyil5Z0AFSd4IFSSRIKmViSL4JCHp+YkqcHbicM9Vi/E8rS8lQZeGDaMn17ZhoNowerzOI8EzUiJzOC6HHsxkKuTJ4tNUfmgqO1BgVWk9xZAUCURgN3CAlWhYnG6UIwVYLk+H8xU4TsPjoWetr++TEp+PbffAUaoM5BwOXxRhzzJ1w2SeKDC4IBVyBfhZhLl8NYtn31lF2O9KOEqts1LDYcV+r2N1kM0+1/apW1Ars9I9OKzs83Lfbg+1U2Ad7ot8fiz56UZMVFGqQ6fjrkJn+SmkVoSeB6keedUiA8NuLcWbj/TMmUG/ocZHev/+w1pIQW3FecIExXADw6optY3wxQqKEoee8vk9OJ1S+d0X9KJedfo1zyhIfF29aol2Qu3pgGlSo53GAmFFdd1fY6W/7enc/PV196gpjDVfs0Unbtjvic6ON7d3b9KLVudlaeDukUQr8asZ1mmsIHzOS6ylDmvKWeHVV8E6XkN9bZH8oJB/tM9wd/uHh+NXvP7/+rNdPjp+8qOvfwE=);strokeColor=none;spacingTop=-3;spacingBottom=-3;spacingLeft=-3;spacingRight=-3;points=[];labelBackgroundColor=none;rounded=0;html=1;whiteSpace=wrap;" parent="abdKoB1VeoWTYlpOvYKU-273" vertex="1">
          <mxGeometry width="27" height="40" as="geometry" />
        </mxCell>
        <mxCell id="abdKoB1VeoWTYlpOvYKU-277" style="vsdxID=74;fillColor=#2d5967;gradientColor=none;shape=stencil(nZFNCoQwDIVPk610EjyBo/cQrDZMp5Xa+fH2tgRRZuGIu/eSLyHkAVWTaUcNqKYY/EN/uIsG6A6I7IwOHJMCqoGq3gc9BP9ynfixzWRWT//OG74yV6o8gmoWK64R0rLbkRdBpKKks/BNHexdm5fgP2ecf8MRmcT2556tlZj2/d9cUkkypXoB);strokeColor=none;spacingTop=-3;spacingBottom=-3;spacingLeft=-3;spacingRight=-3;points=[];labelBackgroundColor=none;rounded=0;html=1;whiteSpace=wrap;" parent="abdKoB1VeoWTYlpOvYKU-273" vertex="1">
          <mxGeometry x="6" y="30" width="2" height="10" as="geometry" />
        </mxCell>
        <mxCell id="abdKoB1VeoWTYlpOvYKU-278" style="vsdxID=75;fillColor=#2d5967;gradientColor=none;shape=stencil(pVfbdhoxDPwaXnVsydfnNP2PnIYUTmnIIaSlf1/Ttb2yzF5I3xYxWmvGI9m7oYf33dPbdoPq/Xw6/tj+3j+fdxv6skHcv+62p/05PW3ocUMPL8fT9vvp+PH6PPx+e7oir08/j7+ub7gMed6CttcsVH+GiCUw/l/k65Bw2L+yBBdA/WeCsWANT/j2cRpq0rkoBB9ySg4ZDTaHLlhL9yajcogc6By6UI/KIVLg4nTBPGOIIMQZgj1eTYMNgY7TYKkEaYi2VUK1KqAFI1SwEIUIHJRD2gGZ6Tp5Rk6IEO7Bp9J1nOPGU3TdP0eCXwBBzyCo0PKjpCq1/IwDNcOPZ6yyMRoIC76XBLUGFATHnEpQtewcQvAtO9Uy8wbQTReqmiK1mjFj2qGwHu1L13wO3ZXddf2YkSOuerSqpS1QaBWzEaKwO9srEqDbbjBA2G7uLN4qoHlyYgY6QH/H+29MZYGX4gUDDlv1mC5ZqYhAWtiNSUw9ap3leMYKa8QASOvh5c9PgRddNyYU07EGzCKFAN4J07FGpn7TSKLWbrNMaE9rq8G0Hbt4lqY5qMUJMo7GyjAdrwZbhsaAtWLM+ipNHbP1XJ46wVhrlVAAp9v1CQuN8SwfxanrM1QJyVNGNDbLWHOMpZ7RfhYv+SW7eMGvplR6zoITUyuBSs8UevymVE7ppDjOzJXubtXdbbp6Wcq4HxpFwWnA2bbg5DQl9oPbkSb8KPRdNnDreOfBuCbBlVvDFEE2a8uGEJDvCEZBkKOotwNJ1FrDyYSuQwg8tQUHiLJB3Hg6ohCilptuRq6tVool7LMo7r34dvNMhLaZXD2Yb4sXwYl5WO+yaxMU2DmxmUS6s2SdhmxmlnmP3bxn7EiCJlZn9wbdvxcrKMTF1W/03vLyprtx31rfyxs3l2jsDC+8JqXvJqtvvWPnzXaveZbx6WH8DH7ZHw7DVzT/X342p9DwyU2PfwE=);strokeColor=none;spacingTop=-3;spacingBottom=-3;spacingLeft=-3;spacingRight=-3;points=[];labelBackgroundColor=none;rounded=0;html=1;whiteSpace=wrap;" parent="abdKoB1VeoWTYlpOvYKU-273" vertex="1">
          <mxGeometry x="23" width="34" height="40" as="geometry" />
        </mxCell>
        <mxCell id="abdKoB1VeoWTYlpOvYKU-279" style="vsdxID=76;fillColor=#2d5967;gradientColor=none;shape=stencil(nZHBDsIgEES/Zq/Nytqk91r/o0mpEBEailb/XujG2DYaorfZ5Q0ZGKB6VO0gQeAYvDvLSXdBAR1ACG2V9DpEBdQA1b3z8uTd1XY8D20ik7q4W7rhzr4dYvIIfPAsqChp3hwZN9ou8JKKar8y4HcY/wMzEdbwK/9HdPu4n+BMjCwexfvTe20Md7Y835YUV1wwNU8=);strokeColor=none;spacingTop=-3;spacingBottom=-3;spacingLeft=-3;spacingRight=-3;points=[];labelBackgroundColor=none;rounded=0;html=1;whiteSpace=wrap;" parent="abdKoB1VeoWTYlpOvYKU-273" vertex="1">
          <mxGeometry x="30" y="30" width="2" height="10" as="geometry" />
        </mxCell>
        <mxCell id="abdKoB1VeoWTYlpOvYKU-280" style="vsdxID=77;fillColor=#2d5967;gradientColor=none;shape=stencil(UzV2Ls5ILEhVNTIoLinKz04tz0wpyVA1dlE1MsrMy0gtyiwBslSNXVWNndPyi1LTi/JL81Ig/IJEkEoQKze/DGRCBUSfoYEBSI+RQSUq3w2iOCczD49iI2M9U2PileMx2cRMz9CIWMUkOYIC71GiGMhABHlaZk4OJMaQ5dGjCCgEiV5jVwA=);strokeColor=none;spacingTop=-3;spacingBottom=-3;spacingLeft=-3;spacingRight=-3;points=[];labelBackgroundColor=none;rounded=0;html=1;whiteSpace=wrap;" parent="abdKoB1VeoWTYlpOvYKU-273" vertex="1">
          <mxGeometry x="47" y="30" width="2" height="10" as="geometry" />
        </mxCell>
        <mxCell id="abdKoB1VeoWTYlpOvYKU-281" style="vsdxID=66;fillColor=none;gradientColor=none;strokeColor=none;spacingTop=-3;spacingBottom=-3;spacingLeft=-3;spacingRight=-3;points=[];labelBackgroundColor=none;rounded=0;html=1;whiteSpace=wrap;" parent="abdKoB1VeoWTYlpOvYKU-293" vertex="1">
          <mxGeometry x="95" y="18" width="84" height="44" as="geometry" />
        </mxCell>
        <mxCell id="abdKoB1VeoWTYlpOvYKU-282" style="vsdxID=67;fillColor=none;gradientColor=none;strokeColor=none;spacingTop=-3;spacingBottom=-3;spacingLeft=-3;spacingRight=-3;points=[];labelBackgroundColor=none;rounded=0;html=1;whiteSpace=wrap;" parent="abdKoB1VeoWTYlpOvYKU-281" vertex="1">
          <mxGeometry width="84" height="44" as="geometry" />
        </mxCell>
        <mxCell id="abdKoB1VeoWTYlpOvYKU-283" style="vsdxID=68;fillColor=#FFFFFF;gradientColor=none;shape=stencil(lVbLctswDPwaXTEEwec5Tf8j0zi1pq6dUZw2+fvQI/EBWKLjm0gvzAW4XGCgh7f90+tu0OrtPJ3+7P6Pz+f9QD8GrcfjfjeN5/Q10ONADy+nafd7Or0fn+f169MFefn6e/p3+YePOU5dIrT6nFeo5vXPGXoYj5tQb0C5FvzrfZr/GDl8WToDTs9bH3reIsCwgJYd6wBpAdFyDtgMWnYsAfUO9qAiP9tqIMfPdhCsOBvBID/blbBydqc+FoJnJTIBELfxqMC7gZc/s1oPwD5aFgI1GM8rYcCLS0ALhhdCQTS8DhggEC9EAa0yTVeriZGVeMk13ZojzrXhkQWDYAXZJA/LyZIGJciigxi22ZIDw9lWwWzQpUTXcrqtfjLfUCWxrTKjADnfClrlazQIunfiTWLfvY1EiQxPzxDI24iAmmeXEtYiuxZVb8h2ZN5GLPfnIerudTQh2W9AvPimClno4h5SVYTVdF67S0lExvIucJIydl2sDcGiUx+FjSGQUJjBLPaSmY1FdDkz4/ILXfeyJiI7XzaT9QxLPpsBKxkiT7CG1AQJlGwS1wblSjP67htyAYwwXwcWu3wDRPHmAyhhp16XNrftp96DFnT7fhoQHGd7y0+DveqC134aKv+intogFmYhSSFysjf6VIrwXAs3AqICLV48ZSNZD6jDxPd6baTseCUggu0+wFgMr5GnrGDUEJFXMAkvRF7ChDLCA1OHCf3j04QiLK2djnL3Voqfnl4CioZYMVl+lGeqjbmET3pRVqo3Ft4FvmPcFND0USfal/FwmAfi9nc5AaeteXqmxy8=);strokeColor=none;spacingTop=-3;spacingBottom=-3;spacingLeft=-3;spacingRight=-3;points=[];labelBackgroundColor=none;rounded=0;html=1;whiteSpace=wrap;" parent="abdKoB1VeoWTYlpOvYKU-282" vertex="1">
          <mxGeometry x="1" y="1" width="82" height="42" as="geometry" />
        </mxCell>
        <mxCell id="abdKoB1VeoWTYlpOvYKU-284" style="vsdxID=69;fillColor=#FFFFFF;gradientColor=none;shape=stencil(pVlddxwnDP01+6oDiM/nNPkfOYlT76lr52yc1vn3xZ2BEdKMdmjf1vjCSOhyJcEFP/x4/Pz94eLMj9fbyx8Pf1+/vj5e8LeLc9fnx4fb9bX+uuDHC3749nJ7+P328vP56/L398/vyPdff7789b7C2zIvGvD5fZYzv5YRD+Hfvz8t8KfrswpP4OwMHi2UTCd8+XlbDLJyyjqEEYpfht7cMhQKuLKi1iFvIa9Db7iiEmBbax3yQfOPTlhHHCTVP+dVvHDPQkyje31K9y46yHH0LiDYMHoXPZgwehf60L65GbIdzLUZjFPtJRu9DlnTV2kGJ7ftWwsHlDjamyLYMtrbQbvm5h1yjnhubcbNQSvsWC3LETyOxhYwdjQ2S+pYD1nhQiGRXT9d11Dx3YwVn0GNRTGQmHehblEY3SuGMceBY8zJJKjY+aXubCFks51shX87QXTj5yOCYUSgKOwEMtrekhndHoU5hVDtFL6q3tT6ZgJc+VbsBD4JUdHx9YhOGR8T2Kn1q2RPwIMQGR3vCavP4HGSC+gm8TOxdZN7b4myn8JPGcOT1yRcHEIuAmRGSw91c1kuCF0VugIRoWhaSoJ+UoH6Vmxp03H52TSqfZroYxM/CGn8MtdddnwBmUyrsm4F3UTeEJ7hZpLtnrBttTJryRRrCR1PpViH/LDeS7GOHL/DFIskvK5HPLMcW2tBXhCIeoSdzcC1IrB6lZuLROxsJ5plxEFCii1tptFcb0Zb9dLQI+fNLN73k3TgmycVRBuqR5SVyp6kE9c3BQt3bkO18Li2/JFuszRV9SEowZMTKl1RPRl0Sj8ZhZ0ML6vlRorNvZ1OYK7R+X9w1nWJLGBm1lbAXjQwRt1fySDDTkYSm1sFgMkOBeFBaEUSZztwhzxyQqVnVjtJOqUN5V74dgdl0vBe9FqViIX1WnrWoBM6PioU8kZHC++KKMi3OVTYkGcNgtriJ05HAaWvRyFWNjUFPbLXiWhksOwoO6nDBphSORQJvGH2E7Io0RhcpGPSPFhuRMtmJzTHyvTWxeug2BOV8B38GAIPXkGL1OkjZO0uREiaTuDACR80UeP9WbgTFBmTYAEZ22WJVEF5jArBIMMcVr284AmhR799mjXdtesNrNph1UMttosikKzuV2+tGA2Msu+i5lfRnGAqtvb55TwcJ5ZGkQF1OIKdQOcpu73lzFXh9J7yBDzOxSeKVliFp4k9T0KLVHgWdYcKL3MRZcKiYyO/htPhc1vY/vmfwPop5mghELIhZh1xFR3eiJUkLmapeLW0RNL51tw4tf6gczZFzuzzKPsqochFJvRN2/eDJrrWrc8/ut9jx1Cvb+ht54pXm/5cII3V6Z3L4ryjC4DaJaK8uu8N9dFluGx9dy7DvSh/RYDoPTyOmH3tENn9ToZNVmR3QSV6a3l4ax9ldrcZvPaCIxR3LFvOvN+wlikacQNW2Rb4641suDfUUS5hJJufcK+r2HGPdkPH71M1jSbPPHSiK9z6hqNgsCbvzvOiwOtd+lTbrYPrj+1N9dv16Wl5kqX/52+wdWh5v8WP/wA=);strokeColor=none;spacingTop=-3;spacingBottom=-3;spacingLeft=-3;spacingRight=-3;points=[];labelBackgroundColor=none;rounded=0;html=1;whiteSpace=wrap;" parent="abdKoB1VeoWTYlpOvYKU-282" vertex="1">
          <mxGeometry width="84" height="44" as="geometry" />
        </mxCell>
        <mxCell id="abdKoB1VeoWTYlpOvYKU-285" style="vsdxID=70;fillColor=none;gradientColor=none;strokeColor=none;spacingTop=-3;spacingBottom=-3;spacingLeft=-3;spacingRight=-3;points=[];labelBackgroundColor=none;rounded=0;html=1;whiteSpace=wrap;" parent="abdKoB1VeoWTYlpOvYKU-281" vertex="1">
          <mxGeometry x="2" y="2" width="80" height="40" as="geometry" />
        </mxCell>
        <mxCell id="abdKoB1VeoWTYlpOvYKU-286" style="vsdxID=71;fillColor=#2d5967;gradientColor=none;shape=stencil(nVjbUhsxDP2avGpsy9dnSv+DKaFkSgkToA1/X6W7tmV51xt42zjS6ujo6t3hzevj3ct+Z9Tr2+n4a//3cP/2uMNvO2MOz4/70+GNnnZ4u8Obh+Np//N0fH++n36/3F0kL0+/j38ubzhPesGCdRctoz6mE2fBhP8n3yeFH++nSUPPKh68nVXmI2cg+OnobGapBG4++piPnIIw2zrjdBQ1KDNLzUc2grHc/tPhmQEmjdACtmGo4CN43ShoMupHHnoHPrUeWnCmddB5SLZ1ULXOETBrW+fUOk60gC1ONcJoDHhsMaoWoEbQAqAHhy1G4sLHFqMmX8M6TvUZ8ini2MrL6HZ+gZbUp5o2Jgsl03rmNBiRW8Sn8IzS1AwDn8AK47UaOK8xCOvEQhLEegipNe8V4DpVBgF9w5WU76iyEE0LlzIXsYWLxKggyyeIkiwF2gm4RWrFPsVSR2GfvTlz48BGYd9BFHnIq+kqunyAGD9FF+9IWqgUtDGBcgKt79ByKSyNNA6qhmvMCaIGzSD/+SXhDopkoipkHmomDYigSIbYEsHHR46knB8t2CsGTjuhjAYdGgUT8gBaLqReweQRcH0zrTq167AKNb0U9lWJ19pPYDbNowMl+jm5Ks1TIUfZ0BMMrS/U8YJ5ClOQ5rG0lnMtWhc3vBeFzDRW4tvNZ6aiCzl5jp3rSCiBmI8sDYBtvqrUeriSSBf+ZtPnoelRYi+FK/5v5rdUaCvIRbCNvMNhiXbylirUDANC+18QhNCeJgihRmpFQDCWTatkUOgCQquRH7WUMtYLYA9mOAv4Uri+ZlBbNNgCritEHV2VLvwav518G79+M/SgBqOR753L8pIOXttaqFQ2WNXlVYiOxCKx0ABoFVJxaJ4Nf110nKxn1bVfLoUlV/OOW+ybPPiX6dLdBaG4tbyp16T9WLEgPeRL2LqHxhU6Bx5S/acNgruGIeC6/NJleTYNr/SPhp4Sm3MEZ4V7dcqZLslqqZdcx+Xk3bo2Sfm2mPj2XpqyHq9LPt8X67hhfStHKkIS5cF7YA4e2yFqxrbddete0LWLDnAot9Vyj9HdDX3hfsh7YM4tldFVwLK7inV0m+FPK7Qx5DN7jjmRNJxQSHUkGlxR4VelKJd/MiUylAnVCTBf/5ZTlGmUDh2GGw4R0A3UcnOueAMk0RFJKnfy0YYTN+xbhNiZD8I85UGQCxYDWW2JdtV5L/pxFO2qo3dhgRXNh4UtI3N1STB9Bqxz1aWWQLudi/RQP789HJ6epq93/H/5uY6Opk99ePsP);strokeColor=none;spacingTop=-3;spacingBottom=-3;spacingLeft=-3;spacingRight=-3;points=[];labelBackgroundColor=none;rounded=0;html=1;whiteSpace=wrap;" parent="abdKoB1VeoWTYlpOvYKU-285" vertex="1">
          <mxGeometry x="53" width="27" height="40" as="geometry" />
        </mxCell>
        <mxCell id="abdKoB1VeoWTYlpOvYKU-287" style="vsdxID=72;fillColor=#2d5967;gradientColor=none;shape=stencil(UzV2Ls5ILEhVNTIoLinKz04tz0wpyVA1dlE1MsrMy0gtyiwBslSNXVWNndPyi1LTi/JL81Ig/IJEkEoQKze/DGRCBUSfAUiHkUElhGdkrGdqDBZxgyjOyczDqdjQwAC3UpgkWYoJOANdOR6TTYlWSUFAYCgGMhDhnZaZkwOJLmR59PgBCkHi1tgVAA==);strokeColor=none;spacingTop=-3;spacingBottom=-3;spacingLeft=-3;spacingRight=-3;points=[];labelBackgroundColor=none;rounded=0;html=1;whiteSpace=wrap;" parent="abdKoB1VeoWTYlpOvYKU-285" vertex="1">
          <mxGeometry x="71" y="30" width="2" height="10" as="geometry" />
        </mxCell>
        <mxCell id="abdKoB1VeoWTYlpOvYKU-288" style="vsdxID=73;fillColor=#2d5967;gradientColor=none;shape=stencil(pVjbUhsxDP2avGpsyfLlmbb/wRQomVJgArTw9zXN+iI5602mb8FIlnQkHcm7o6uX++vn2x2al9fD08/bP/ub1/sdfdkh7h/vbw/71/xrR193dHX3dLj9cXh6e7w5/v18/Sn5+evX0+/PG96PeonA0acWmo/jCRNg+Hfy7ajw/e1w1LCLCoPHRWU5YgvBH4/ecZEKYOIitRyxAeRFihapVIyZj+XIRUDX23/YP3YOW2OEuy5MxWMATkLBOuBpfNGDJRmfByYZXvDgnQzPyNC8g6RCM+t+MgKz8NPMfHQI5KSPRjpIDshKB3PgKH0kC5Skj9aC8RP4Y83heQnICilKBZ1gHRxasEEGl0snsAwQCcirAsNWhks4yA3X5YjdRoFbA4mVfYYQpX0jbed0R4WukXZDlgjrQMmyLmV+UjSBS/8hPTgydHjTKA3gIaoO6BNbMDBAEgIy4L2EoQqddNZZ8FZ4q+WHViAwqlo8AylvcwFRUN4miIqOOA790KRW7PsAVlVLf3PhC4KAyj43TEuJMNh4CVwRwcWL4DrBbhwgJOluTLXea3MxYJTu9sOjIKinh6rF7XEj5xPlWkShgKEw70kLJxSwlNRaBblK7wWSTC4WJSR5xpV0FUjaza2CUoO3MGo+mhZQNyhsvdhaaT4YiJvWT9TPZvT9JLPjzcV8BLttPkJ0G+ZltnqNlfQO/nYqyxHljSQOcBnV73lm4na2mtRatcSGsR1vxrEMcfSSRilaiX+zvLWCbKA+vWe16KiQ+wNxyil5Z0AFSd4IFSSRIKmViSL4JCHp+YkqcHbicM9Vi/E8rS8lQZeGDaMn17ZhoNowerzOI8EzUiJzOC6HHsxkKuTJ4tNUfmgqO1BgVWk9xZAUCURgN3CAlWhYnG6UIwVYLk+H8xU4TsPjoWetr++TEp+PbffAUaoM5BwOXxRhzzJ1w2SeKDC4IBVyBfhZhLl8NYtn31lF2O9KOEqts1LDYcV+r2N1kM0+1/apW1Ars9I9OKzs83Lfbg+1U2Ad7ot8fiz56UZMVFGqQ6fjrkJn+SmkVoSeB6keedUiA8NuLcWbj/TMmUG/ocZHev/+w1pIQW3FecIExXADw6optY3wxQqKEoee8vk9OJ1S+d0X9KJedfo1zyhIfF29aol2Qu3pgGlSo53GAmFFdd1fY6W/7enc/PV196gpjDVfs0Unbtjvic6ON7d3b9KLVudlaeDukUQr8asZ1mmsIHzOS6ylDmvKWeHVV8E6XkN9bZH8oJB/tM9wd/uHh+NXvP7/+rNdPjp+8qOvfwE=);strokeColor=none;spacingTop=-3;spacingBottom=-3;spacingLeft=-3;spacingRight=-3;points=[];labelBackgroundColor=none;rounded=0;html=1;whiteSpace=wrap;" parent="abdKoB1VeoWTYlpOvYKU-285" vertex="1">
          <mxGeometry width="27" height="40" as="geometry" />
        </mxCell>
        <mxCell id="abdKoB1VeoWTYlpOvYKU-289" style="vsdxID=74;fillColor=#2d5967;gradientColor=none;shape=stencil(nZFNCoQwDIVPk610EjyBo/cQrDZMp5Xa+fH2tgRRZuGIu/eSLyHkAVWTaUcNqKYY/EN/uIsG6A6I7IwOHJMCqoGq3gc9BP9ynfixzWRWT//OG74yV6o8gmoWK64R0rLbkRdBpKKks/BNHexdm5fgP2ecf8MRmcT2556tlZj2/d9cUkkypXoB);strokeColor=none;spacingTop=-3;spacingBottom=-3;spacingLeft=-3;spacingRight=-3;points=[];labelBackgroundColor=none;rounded=0;html=1;whiteSpace=wrap;" parent="abdKoB1VeoWTYlpOvYKU-285" vertex="1">
          <mxGeometry x="6" y="30" width="2" height="10" as="geometry" />
        </mxCell>
        <mxCell id="abdKoB1VeoWTYlpOvYKU-290" style="vsdxID=75;fillColor=#2d5967;gradientColor=none;shape=stencil(pVfbdhoxDPwaXnVsydfnNP2PnIYUTmnIIaSlf1/Ttb2yzF5I3xYxWmvGI9m7oYf33dPbdoPq/Xw6/tj+3j+fdxv6skHcv+62p/05PW3ocUMPL8fT9vvp+PH6PPx+e7oir08/j7+ub7gMed6CttcsVH+GiCUw/l/k65Bw2L+yBBdA/WeCsWANT/j2cRpq0rkoBB9ySg4ZDTaHLlhL9yajcogc6By6UI/KIVLg4nTBPGOIIMQZgj1eTYMNgY7TYKkEaYi2VUK1KqAFI1SwEIUIHJRD2gGZ6Tp5Rk6IEO7Bp9J1nOPGU3TdP0eCXwBBzyCo0PKjpCq1/IwDNcOPZ6yyMRoIC76XBLUGFATHnEpQtewcQvAtO9Uy8wbQTReqmiK1mjFj2qGwHu1L13wO3ZXddf2YkSOuerSqpS1QaBWzEaKwO9srEqDbbjBA2G7uLN4qoHlyYgY6QH/H+29MZYGX4gUDDlv1mC5ZqYhAWtiNSUw9ap3leMYKa8QASOvh5c9PgRddNyYU07EGzCKFAN4J07FGpn7TSKLWbrNMaE9rq8G0Hbt4lqY5qMUJMo7GyjAdrwZbhsaAtWLM+ipNHbP1XJ46wVhrlVAAp9v1CQuN8SwfxanrM1QJyVNGNDbLWHOMpZ7RfhYv+SW7eMGvplR6zoITUyuBSs8UevymVE7ppDjOzJXubtXdbbp6Wcq4HxpFwWnA2bbg5DQl9oPbkSb8KPRdNnDreOfBuCbBlVvDFEE2a8uGEJDvCEZBkKOotwNJ1FrDyYSuQwg8tQUHiLJB3Hg6ohCilptuRq6tVool7LMo7r34dvNMhLaZXD2Yb4sXwYl5WO+yaxMU2DmxmUS6s2SdhmxmlnmP3bxn7EiCJlZn9wbdvxcrKMTF1W/03vLyprtx31rfyxs3l2jsDC+8JqXvJqtvvWPnzXaveZbx6WH8DH7ZHw7DVzT/X342p9DwyU2PfwE=);strokeColor=none;spacingTop=-3;spacingBottom=-3;spacingLeft=-3;spacingRight=-3;points=[];labelBackgroundColor=none;rounded=0;html=1;whiteSpace=wrap;" parent="abdKoB1VeoWTYlpOvYKU-285" vertex="1">
          <mxGeometry x="23" width="34" height="40" as="geometry" />
        </mxCell>
        <mxCell id="abdKoB1VeoWTYlpOvYKU-291" style="vsdxID=76;fillColor=#2d5967;gradientColor=none;shape=stencil(nZHBDsIgEES/Zq/Nytqk91r/o0mpEBEailb/XujG2DYaorfZ5Q0ZGKB6VO0gQeAYvDvLSXdBAR1ACG2V9DpEBdQA1b3z8uTd1XY8D20ik7q4W7rhzr4dYvIIfPAsqChp3hwZN9ou8JKKar8y4HcY/wMzEdbwK/9HdPu4n+BMjCwexfvTe20Md7Y835YUV1wwNU8=);strokeColor=none;spacingTop=-3;spacingBottom=-3;spacingLeft=-3;spacingRight=-3;points=[];labelBackgroundColor=none;rounded=0;html=1;whiteSpace=wrap;" parent="abdKoB1VeoWTYlpOvYKU-285" vertex="1">
          <mxGeometry x="30" y="30" width="2" height="10" as="geometry" />
        </mxCell>
        <mxCell id="abdKoB1VeoWTYlpOvYKU-292" style="vsdxID=77;fillColor=#2d5967;gradientColor=none;shape=stencil(UzV2Ls5ILEhVNTIoLinKz04tz0wpyVA1dlE1MsrMy0gtyiwBslSNXVWNndPyi1LTi/JL81Ig/IJEkEoQKze/DGRCBUSfoYEBSI+RQSUq3w2iOCczD49iI2M9U2PileMx2cRMz9CIWMUkOYIC71GiGMhABHlaZk4OJMaQ5dGjCCgEiV5jVwA=);strokeColor=none;spacingTop=-3;spacingBottom=-3;spacingLeft=-3;spacingRight=-3;points=[];labelBackgroundColor=none;rounded=0;html=1;whiteSpace=wrap;" parent="abdKoB1VeoWTYlpOvYKU-285" vertex="1">
          <mxGeometry x="47" y="30" width="2" height="10" as="geometry" />
        </mxCell>
        <mxCell id="abdKoB1VeoWTYlpOvYKU-308" style="vsdxID=66;fillColor=none;gradientColor=none;strokeColor=none;spacingTop=-3;spacingBottom=-3;spacingLeft=-3;spacingRight=-3;points=[];labelBackgroundColor=none;rounded=0;html=1;whiteSpace=wrap;" parent="1" vertex="1">
          <mxGeometry x="-1440" y="300" width="84" height="44" as="geometry" />
        </mxCell>
        <mxCell id="abdKoB1VeoWTYlpOvYKU-309" style="vsdxID=67;fillColor=none;gradientColor=none;strokeColor=none;spacingTop=-3;spacingBottom=-3;spacingLeft=-3;spacingRight=-3;points=[];labelBackgroundColor=none;rounded=0;html=1;whiteSpace=wrap;" parent="abdKoB1VeoWTYlpOvYKU-308" vertex="1">
          <mxGeometry width="84" height="44" as="geometry" />
        </mxCell>
        <mxCell id="abdKoB1VeoWTYlpOvYKU-310" style="vsdxID=68;fillColor=#FFFFFF;gradientColor=none;shape=stencil(lVbLctswDPwaXTEEwec5Tf8j0zi1pq6dUZw2+fvQI/EBWKLjm0gvzAW4XGCgh7f90+tu0OrtPJ3+7P6Pz+f9QD8GrcfjfjeN5/Q10ONADy+nafd7Or0fn+f169MFefn6e/p3+YePOU5dIrT6nFeo5vXPGXoYj5tQb0C5FvzrfZr/GDl8WToDTs9bH3reIsCwgJYd6wBpAdFyDtgMWnYsAfUO9qAiP9tqIMfPdhCsOBvBID/blbBydqc+FoJnJTIBELfxqMC7gZc/s1oPwD5aFgI1GM8rYcCLS0ALhhdCQTS8DhggEC9EAa0yTVeriZGVeMk13ZojzrXhkQWDYAXZJA/LyZIGJciigxi22ZIDw9lWwWzQpUTXcrqtfjLfUCWxrTKjADnfClrlazQIunfiTWLfvY1EiQxPzxDI24iAmmeXEtYiuxZVb8h2ZN5GLPfnIerudTQh2W9AvPimClno4h5SVYTVdF67S0lExvIucJIydl2sDcGiUx+FjSGQUJjBLPaSmY1FdDkz4/ILXfeyJiI7XzaT9QxLPpsBKxkiT7CG1AQJlGwS1wblSjP67htyAYwwXwcWu3wDRPHmAyhhp16XNrftp96DFnT7fhoQHGd7y0+DveqC134aKv+intogFmYhSSFysjf6VIrwXAs3AqICLV48ZSNZD6jDxPd6baTseCUggu0+wFgMr5GnrGDUEJFXMAkvRF7ChDLCA1OHCf3j04QiLK2djnL3Voqfnl4CioZYMVl+lGeqjbmET3pRVqo3Ft4FvmPcFND0USfal/FwmAfi9nc5AaeteXqmxy8=);strokeColor=none;spacingTop=-3;spacingBottom=-3;spacingLeft=-3;spacingRight=-3;points=[];labelBackgroundColor=none;rounded=0;html=1;whiteSpace=wrap;" parent="abdKoB1VeoWTYlpOvYKU-309" vertex="1">
          <mxGeometry x="1" y="1" width="82" height="42" as="geometry" />
        </mxCell>
        <mxCell id="abdKoB1VeoWTYlpOvYKU-311" style="vsdxID=69;fillColor=#FFFFFF;gradientColor=none;shape=stencil(pVlddxwnDP01+6oDiM/nNPkfOYlT76lr52yc1vn3xZ2BEdKMdmjf1vjCSOhyJcEFP/x4/Pz94eLMj9fbyx8Pf1+/vj5e8LeLc9fnx4fb9bX+uuDHC3749nJ7+P328vP56/L398/vyPdff7789b7C2zIvGvD5fZYzv5YRD+Hfvz8t8KfrswpP4OwMHi2UTCd8+XlbDLJyyjqEEYpfht7cMhQKuLKi1iFvIa9Db7iiEmBbax3yQfOPTlhHHCTVP+dVvHDPQkyje31K9y46yHH0LiDYMHoXPZgwehf60L65GbIdzLUZjFPtJRu9DlnTV2kGJ7ftWwsHlDjamyLYMtrbQbvm5h1yjnhubcbNQSvsWC3LETyOxhYwdjQ2S+pYD1nhQiGRXT9d11Dx3YwVn0GNRTGQmHehblEY3SuGMceBY8zJJKjY+aXubCFks51shX87QXTj5yOCYUSgKOwEMtrekhndHoU5hVDtFL6q3tT6ZgJc+VbsBD4JUdHx9YhOGR8T2Kn1q2RPwIMQGR3vCavP4HGSC+gm8TOxdZN7b4myn8JPGcOT1yRcHEIuAmRGSw91c1kuCF0VugIRoWhaSoJ+UoH6Vmxp03H52TSqfZroYxM/CGn8MtdddnwBmUyrsm4F3UTeEJ7hZpLtnrBttTJryRRrCR1PpViH/LDeS7GOHL/DFIskvK5HPLMcW2tBXhCIeoSdzcC1IrB6lZuLROxsJ5plxEFCii1tptFcb0Zb9dLQI+fNLN73k3TgmycVRBuqR5SVyp6kE9c3BQt3bkO18Li2/JFuszRV9SEowZMTKl1RPRl0Sj8ZhZ0ML6vlRorNvZ1OYK7R+X9w1nWJLGBm1lbAXjQwRt1fySDDTkYSm1sFgMkOBeFBaEUSZztwhzxyQqVnVjtJOqUN5V74dgdl0vBe9FqViIX1WnrWoBM6PioU8kZHC++KKMi3OVTYkGcNgtriJ05HAaWvRyFWNjUFPbLXiWhksOwoO6nDBphSORQJvGH2E7Io0RhcpGPSPFhuRMtmJzTHyvTWxeug2BOV8B38GAIPXkGL1OkjZO0uREiaTuDACR80UeP9WbgTFBmTYAEZ22WJVEF5jArBIMMcVr284AmhR799mjXdtesNrNph1UMttosikKzuV2+tGA2Msu+i5lfRnGAqtvb55TwcJ5ZGkQF1OIKdQOcpu73lzFXh9J7yBDzOxSeKVliFp4k9T0KLVHgWdYcKL3MRZcKiYyO/htPhc1vY/vmfwPop5mghELIhZh1xFR3eiJUkLmapeLW0RNL51tw4tf6gczZFzuzzKPsqochFJvRN2/eDJrrWrc8/ut9jx1Cvb+ht54pXm/5cII3V6Z3L4ryjC4DaJaK8uu8N9dFluGx9dy7DvSh/RYDoPTyOmH3tENn9ToZNVmR3QSV6a3l4ax9ldrcZvPaCIxR3LFvOvN+wlikacQNW2Rb4641suDfUUS5hJJufcK+r2HGPdkPH71M1jSbPPHSiK9z6hqNgsCbvzvOiwOtd+lTbrYPrj+1N9dv16Wl5kqX/52+wdWh5v8WP/wA=);strokeColor=none;spacingTop=-3;spacingBottom=-3;spacingLeft=-3;spacingRight=-3;points=[];labelBackgroundColor=none;rounded=0;html=1;whiteSpace=wrap;" parent="abdKoB1VeoWTYlpOvYKU-309" vertex="1">
          <mxGeometry width="84" height="44" as="geometry" />
        </mxCell>
        <mxCell id="abdKoB1VeoWTYlpOvYKU-312" style="vsdxID=70;fillColor=none;gradientColor=none;strokeColor=none;spacingTop=-3;spacingBottom=-3;spacingLeft=-3;spacingRight=-3;points=[];labelBackgroundColor=none;rounded=0;html=1;whiteSpace=wrap;" parent="abdKoB1VeoWTYlpOvYKU-308" vertex="1">
          <mxGeometry x="2" y="2" width="80" height="40" as="geometry" />
        </mxCell>
        <mxCell id="abdKoB1VeoWTYlpOvYKU-313" style="vsdxID=71;fillColor=#2d5967;gradientColor=none;shape=stencil(nVjbUhsxDP2avGpsy9dnSv+DKaFkSgkToA1/X6W7tmV51xt42zjS6ujo6t3hzevj3ct+Z9Tr2+n4a//3cP/2uMNvO2MOz4/70+GNnnZ4u8Obh+Np//N0fH++n36/3F0kL0+/j38ubzhPesGCdRctoz6mE2fBhP8n3yeFH++nSUPPKh68nVXmI2cg+OnobGapBG4++piPnIIw2zrjdBQ1KDNLzUc2grHc/tPhmQEmjdACtmGo4CN43ShoMupHHnoHPrUeWnCmddB5SLZ1ULXOETBrW+fUOk60gC1ONcJoDHhsMaoWoEbQAqAHhy1G4sLHFqMmX8M6TvUZ8ini2MrL6HZ+gZbUp5o2Jgsl03rmNBiRW8Sn8IzS1AwDn8AK47UaOK8xCOvEQhLEegipNe8V4DpVBgF9w5WU76iyEE0LlzIXsYWLxKggyyeIkiwF2gm4RWrFPsVSR2GfvTlz48BGYd9BFHnIq+kqunyAGD9FF+9IWqgUtDGBcgKt79ByKSyNNA6qhmvMCaIGzSD/+SXhDopkoipkHmomDYigSIbYEsHHR46knB8t2CsGTjuhjAYdGgUT8gBaLqReweQRcH0zrTq167AKNb0U9lWJ19pPYDbNowMl+jm5Ks1TIUfZ0BMMrS/U8YJ5ClOQ5rG0lnMtWhc3vBeFzDRW4tvNZ6aiCzl5jp3rSCiBmI8sDYBtvqrUeriSSBf+ZtPnoelRYi+FK/5v5rdUaCvIRbCNvMNhiXbylirUDANC+18QhNCeJgihRmpFQDCWTatkUOgCQquRH7WUMtYLYA9mOAv4Uri+ZlBbNNgCritEHV2VLvwav518G79+M/SgBqOR753L8pIOXttaqFQ2WNXlVYiOxCKx0ABoFVJxaJ4Nf110nKxn1bVfLoUlV/OOW+ybPPiX6dLdBaG4tbyp16T9WLEgPeRL2LqHxhU6Bx5S/acNgruGIeC6/NJleTYNr/SPhp4Sm3MEZ4V7dcqZLslqqZdcx+Xk3bo2Sfm2mPj2XpqyHq9LPt8X67hhfStHKkIS5cF7YA4e2yFqxrbddete0LWLDnAot9Vyj9HdDX3hfsh7YM4tldFVwLK7inV0m+FPK7Qx5DN7jjmRNJxQSHUkGlxR4VelKJd/MiUylAnVCTBf/5ZTlGmUDh2GGw4R0A3UcnOueAMk0RFJKnfy0YYTN+xbhNiZD8I85UGQCxYDWW2JdtV5L/pxFO2qo3dhgRXNh4UtI3N1STB9Bqxz1aWWQLudi/RQP789HJ6epq93/H/5uY6Opk99ePsP);strokeColor=none;spacingTop=-3;spacingBottom=-3;spacingLeft=-3;spacingRight=-3;points=[];labelBackgroundColor=none;rounded=0;html=1;whiteSpace=wrap;" parent="abdKoB1VeoWTYlpOvYKU-312" vertex="1">
          <mxGeometry x="53" width="27" height="40" as="geometry" />
        </mxCell>
        <mxCell id="abdKoB1VeoWTYlpOvYKU-314" style="vsdxID=72;fillColor=#2d5967;gradientColor=none;shape=stencil(UzV2Ls5ILEhVNTIoLinKz04tz0wpyVA1dlE1MsrMy0gtyiwBslSNXVWNndPyi1LTi/JL81Ig/IJEkEoQKze/DGRCBUSfAUiHkUElhGdkrGdqDBZxgyjOyczDqdjQwAC3UpgkWYoJOANdOR6TTYlWSUFAYCgGMhDhnZaZkwOJLmR59PgBCkHi1tgVAA==);strokeColor=none;spacingTop=-3;spacingBottom=-3;spacingLeft=-3;spacingRight=-3;points=[];labelBackgroundColor=none;rounded=0;html=1;whiteSpace=wrap;" parent="abdKoB1VeoWTYlpOvYKU-312" vertex="1">
          <mxGeometry x="71" y="30" width="2" height="10" as="geometry" />
        </mxCell>
        <mxCell id="abdKoB1VeoWTYlpOvYKU-315" style="vsdxID=73;fillColor=#2d5967;gradientColor=none;shape=stencil(pVjbUhsxDP2avGpsyfLlmbb/wRQomVJgArTw9zXN+iI5602mb8FIlnQkHcm7o6uX++vn2x2al9fD08/bP/ub1/sdfdkh7h/vbw/71/xrR193dHX3dLj9cXh6e7w5/v18/Sn5+evX0+/PG96PeonA0acWmo/jCRNg+Hfy7ajw/e1w1LCLCoPHRWU5YgvBH4/ecZEKYOIitRyxAeRFihapVIyZj+XIRUDX23/YP3YOW2OEuy5MxWMATkLBOuBpfNGDJRmfByYZXvDgnQzPyNC8g6RCM+t+MgKz8NPMfHQI5KSPRjpIDshKB3PgKH0kC5Skj9aC8RP4Y83heQnICilKBZ1gHRxasEEGl0snsAwQCcirAsNWhks4yA3X5YjdRoFbA4mVfYYQpX0jbed0R4WukXZDlgjrQMmyLmV+UjSBS/8hPTgydHjTKA3gIaoO6BNbMDBAEgIy4L2EoQqddNZZ8FZ4q+WHViAwqlo8AylvcwFRUN4miIqOOA790KRW7PsAVlVLf3PhC4KAyj43TEuJMNh4CVwRwcWL4DrBbhwgJOluTLXea3MxYJTu9sOjIKinh6rF7XEj5xPlWkShgKEw70kLJxSwlNRaBblK7wWSTC4WJSR5xpV0FUjaza2CUoO3MGo+mhZQNyhsvdhaaT4YiJvWT9TPZvT9JLPjzcV8BLttPkJ0G+ZltnqNlfQO/nYqyxHljSQOcBnV73lm4na2mtRatcSGsR1vxrEMcfSSRilaiX+zvLWCbKA+vWe16KiQ+wNxyil5Z0AFSd4IFSSRIKmViSL4JCHp+YkqcHbicM9Vi/E8rS8lQZeGDaMn17ZhoNowerzOI8EzUiJzOC6HHsxkKuTJ4tNUfmgqO1BgVWk9xZAUCURgN3CAlWhYnG6UIwVYLk+H8xU4TsPjoWetr++TEp+PbffAUaoM5BwOXxRhzzJ1w2SeKDC4IBVyBfhZhLl8NYtn31lF2O9KOEqts1LDYcV+r2N1kM0+1/apW1Ars9I9OKzs83Lfbg+1U2Ad7ot8fiz56UZMVFGqQ6fjrkJn+SmkVoSeB6keedUiA8NuLcWbj/TMmUG/ocZHev/+w1pIQW3FecIExXADw6optY3wxQqKEoee8vk9OJ1S+d0X9KJedfo1zyhIfF29aol2Qu3pgGlSo53GAmFFdd1fY6W/7enc/PV196gpjDVfs0Unbtjvic6ON7d3b9KLVudlaeDukUQr8asZ1mmsIHzOS6ylDmvKWeHVV8E6XkN9bZH8oJB/tM9wd/uHh+NXvP7/+rNdPjp+8qOvfwE=);strokeColor=none;spacingTop=-3;spacingBottom=-3;spacingLeft=-3;spacingRight=-3;points=[];labelBackgroundColor=none;rounded=0;html=1;whiteSpace=wrap;" parent="abdKoB1VeoWTYlpOvYKU-312" vertex="1">
          <mxGeometry width="27" height="40" as="geometry" />
        </mxCell>
        <mxCell id="abdKoB1VeoWTYlpOvYKU-316" style="vsdxID=74;fillColor=#2d5967;gradientColor=none;shape=stencil(nZFNCoQwDIVPk610EjyBo/cQrDZMp5Xa+fH2tgRRZuGIu/eSLyHkAVWTaUcNqKYY/EN/uIsG6A6I7IwOHJMCqoGq3gc9BP9ynfixzWRWT//OG74yV6o8gmoWK64R0rLbkRdBpKKks/BNHexdm5fgP2ecf8MRmcT2556tlZj2/d9cUkkypXoB);strokeColor=none;spacingTop=-3;spacingBottom=-3;spacingLeft=-3;spacingRight=-3;points=[];labelBackgroundColor=none;rounded=0;html=1;whiteSpace=wrap;" parent="abdKoB1VeoWTYlpOvYKU-312" vertex="1">
          <mxGeometry x="6" y="30" width="2" height="10" as="geometry" />
        </mxCell>
        <mxCell id="abdKoB1VeoWTYlpOvYKU-317" style="vsdxID=75;fillColor=#2d5967;gradientColor=none;shape=stencil(pVfbdhoxDPwaXnVsydfnNP2PnIYUTmnIIaSlf1/Ttb2yzF5I3xYxWmvGI9m7oYf33dPbdoPq/Xw6/tj+3j+fdxv6skHcv+62p/05PW3ocUMPL8fT9vvp+PH6PPx+e7oir08/j7+ub7gMed6CttcsVH+GiCUw/l/k65Bw2L+yBBdA/WeCsWANT/j2cRpq0rkoBB9ySg4ZDTaHLlhL9yajcogc6By6UI/KIVLg4nTBPGOIIMQZgj1eTYMNgY7TYKkEaYi2VUK1KqAFI1SwEIUIHJRD2gGZ6Tp5Rk6IEO7Bp9J1nOPGU3TdP0eCXwBBzyCo0PKjpCq1/IwDNcOPZ6yyMRoIC76XBLUGFATHnEpQtewcQvAtO9Uy8wbQTReqmiK1mjFj2qGwHu1L13wO3ZXddf2YkSOuerSqpS1QaBWzEaKwO9srEqDbbjBA2G7uLN4qoHlyYgY6QH/H+29MZYGX4gUDDlv1mC5ZqYhAWtiNSUw9ap3leMYKa8QASOvh5c9PgRddNyYU07EGzCKFAN4J07FGpn7TSKLWbrNMaE9rq8G0Hbt4lqY5qMUJMo7GyjAdrwZbhsaAtWLM+ipNHbP1XJ46wVhrlVAAp9v1CQuN8SwfxanrM1QJyVNGNDbLWHOMpZ7RfhYv+SW7eMGvplR6zoITUyuBSs8UevymVE7ppDjOzJXubtXdbbp6Wcq4HxpFwWnA2bbg5DQl9oPbkSb8KPRdNnDreOfBuCbBlVvDFEE2a8uGEJDvCEZBkKOotwNJ1FrDyYSuQwg8tQUHiLJB3Hg6ohCilptuRq6tVool7LMo7r34dvNMhLaZXD2Yb4sXwYl5WO+yaxMU2DmxmUS6s2SdhmxmlnmP3bxn7EiCJlZn9wbdvxcrKMTF1W/03vLyprtx31rfyxs3l2jsDC+8JqXvJqtvvWPnzXaveZbx6WH8DH7ZHw7DVzT/X342p9DwyU2PfwE=);strokeColor=none;spacingTop=-3;spacingBottom=-3;spacingLeft=-3;spacingRight=-3;points=[];labelBackgroundColor=none;rounded=0;html=1;whiteSpace=wrap;" parent="abdKoB1VeoWTYlpOvYKU-312" vertex="1">
          <mxGeometry x="23" width="34" height="40" as="geometry" />
        </mxCell>
        <mxCell id="abdKoB1VeoWTYlpOvYKU-318" style="vsdxID=76;fillColor=#2d5967;gradientColor=none;shape=stencil(nZHBDsIgEES/Zq/Nytqk91r/o0mpEBEailb/XujG2DYaorfZ5Q0ZGKB6VO0gQeAYvDvLSXdBAR1ACG2V9DpEBdQA1b3z8uTd1XY8D20ik7q4W7rhzr4dYvIIfPAsqChp3hwZN9ou8JKKar8y4HcY/wMzEdbwK/9HdPu4n+BMjCwexfvTe20Md7Y835YUV1wwNU8=);strokeColor=none;spacingTop=-3;spacingBottom=-3;spacingLeft=-3;spacingRight=-3;points=[];labelBackgroundColor=none;rounded=0;html=1;whiteSpace=wrap;" parent="abdKoB1VeoWTYlpOvYKU-312" vertex="1">
          <mxGeometry x="30" y="30" width="2" height="10" as="geometry" />
        </mxCell>
        <mxCell id="abdKoB1VeoWTYlpOvYKU-319" style="vsdxID=77;fillColor=#2d5967;gradientColor=none;shape=stencil(UzV2Ls5ILEhVNTIoLinKz04tz0wpyVA1dlE1MsrMy0gtyiwBslSNXVWNndPyi1LTi/JL81Ig/IJEkEoQKze/DGRCBUSfoYEBSI+RQSUq3w2iOCczD49iI2M9U2PileMx2cRMz9CIWMUkOYIC71GiGMhABHlaZk4OJMaQ5dGjCCgEiV5jVwA=);strokeColor=none;spacingTop=-3;spacingBottom=-3;spacingLeft=-3;spacingRight=-3;points=[];labelBackgroundColor=none;rounded=0;html=1;whiteSpace=wrap;" parent="abdKoB1VeoWTYlpOvYKU-312" vertex="1">
          <mxGeometry x="47" y="30" width="2" height="10" as="geometry" />
        </mxCell>
        <mxCell id="abdKoB1VeoWTYlpOvYKU-320" style="vsdxID=66;fillColor=none;gradientColor=none;strokeColor=none;spacingTop=-3;spacingBottom=-3;spacingLeft=-3;spacingRight=-3;points=[];labelBackgroundColor=none;rounded=0;html=1;whiteSpace=wrap;" parent="1" vertex="1">
          <mxGeometry x="-1330" y="320" width="84" height="44" as="geometry" />
        </mxCell>
        <mxCell id="abdKoB1VeoWTYlpOvYKU-321" style="vsdxID=67;fillColor=none;gradientColor=none;strokeColor=none;spacingTop=-3;spacingBottom=-3;spacingLeft=-3;spacingRight=-3;points=[];labelBackgroundColor=none;rounded=0;html=1;whiteSpace=wrap;" parent="abdKoB1VeoWTYlpOvYKU-320" vertex="1">
          <mxGeometry width="84" height="44" as="geometry" />
        </mxCell>
        <mxCell id="abdKoB1VeoWTYlpOvYKU-322" style="vsdxID=68;fillColor=#FFFFFF;gradientColor=none;shape=stencil(lVbLctswDPwaXTEEwec5Tf8j0zi1pq6dUZw2+fvQI/EBWKLjm0gvzAW4XGCgh7f90+tu0OrtPJ3+7P6Pz+f9QD8GrcfjfjeN5/Q10ONADy+nafd7Or0fn+f169MFefn6e/p3+YePOU5dIrT6nFeo5vXPGXoYj5tQb0C5FvzrfZr/GDl8WToDTs9bH3reIsCwgJYd6wBpAdFyDtgMWnYsAfUO9qAiP9tqIMfPdhCsOBvBID/blbBydqc+FoJnJTIBELfxqMC7gZc/s1oPwD5aFgI1GM8rYcCLS0ALhhdCQTS8DhggEC9EAa0yTVeriZGVeMk13ZojzrXhkQWDYAXZJA/LyZIGJciigxi22ZIDw9lWwWzQpUTXcrqtfjLfUCWxrTKjADnfClrlazQIunfiTWLfvY1EiQxPzxDI24iAmmeXEtYiuxZVb8h2ZN5GLPfnIerudTQh2W9AvPimClno4h5SVYTVdF67S0lExvIucJIydl2sDcGiUx+FjSGQUJjBLPaSmY1FdDkz4/ILXfeyJiI7XzaT9QxLPpsBKxkiT7CG1AQJlGwS1wblSjP67htyAYwwXwcWu3wDRPHmAyhhp16XNrftp96DFnT7fhoQHGd7y0+DveqC134aKv+intogFmYhSSFysjf6VIrwXAs3AqICLV48ZSNZD6jDxPd6baTseCUggu0+wFgMr5GnrGDUEJFXMAkvRF7ChDLCA1OHCf3j04QiLK2djnL3Voqfnl4CioZYMVl+lGeqjbmET3pRVqo3Ft4FvmPcFND0USfal/FwmAfi9nc5AaeteXqmxy8=);strokeColor=none;spacingTop=-3;spacingBottom=-3;spacingLeft=-3;spacingRight=-3;points=[];labelBackgroundColor=none;rounded=0;html=1;whiteSpace=wrap;" parent="abdKoB1VeoWTYlpOvYKU-321" vertex="1">
          <mxGeometry x="1" y="1" width="82" height="42" as="geometry" />
        </mxCell>
        <mxCell id="abdKoB1VeoWTYlpOvYKU-323" style="vsdxID=69;fillColor=#FFFFFF;gradientColor=none;shape=stencil(pVlddxwnDP01+6oDiM/nNPkfOYlT76lr52yc1vn3xZ2BEdKMdmjf1vjCSOhyJcEFP/x4/Pz94eLMj9fbyx8Pf1+/vj5e8LeLc9fnx4fb9bX+uuDHC3749nJ7+P328vP56/L398/vyPdff7789b7C2zIvGvD5fZYzv5YRD+Hfvz8t8KfrswpP4OwMHi2UTCd8+XlbDLJyyjqEEYpfht7cMhQKuLKi1iFvIa9Db7iiEmBbax3yQfOPTlhHHCTVP+dVvHDPQkyje31K9y46yHH0LiDYMHoXPZgwehf60L65GbIdzLUZjFPtJRu9DlnTV2kGJ7ftWwsHlDjamyLYMtrbQbvm5h1yjnhubcbNQSvsWC3LETyOxhYwdjQ2S+pYD1nhQiGRXT9d11Dx3YwVn0GNRTGQmHehblEY3SuGMceBY8zJJKjY+aXubCFks51shX87QXTj5yOCYUSgKOwEMtrekhndHoU5hVDtFL6q3tT6ZgJc+VbsBD4JUdHx9YhOGR8T2Kn1q2RPwIMQGR3vCavP4HGSC+gm8TOxdZN7b4myn8JPGcOT1yRcHEIuAmRGSw91c1kuCF0VugIRoWhaSoJ+UoH6Vmxp03H52TSqfZroYxM/CGn8MtdddnwBmUyrsm4F3UTeEJ7hZpLtnrBttTJryRRrCR1PpViH/LDeS7GOHL/DFIskvK5HPLMcW2tBXhCIeoSdzcC1IrB6lZuLROxsJ5plxEFCii1tptFcb0Zb9dLQI+fNLN73k3TgmycVRBuqR5SVyp6kE9c3BQt3bkO18Li2/JFuszRV9SEowZMTKl1RPRl0Sj8ZhZ0ML6vlRorNvZ1OYK7R+X9w1nWJLGBm1lbAXjQwRt1fySDDTkYSm1sFgMkOBeFBaEUSZztwhzxyQqVnVjtJOqUN5V74dgdl0vBe9FqViIX1WnrWoBM6PioU8kZHC++KKMi3OVTYkGcNgtriJ05HAaWvRyFWNjUFPbLXiWhksOwoO6nDBphSORQJvGH2E7Io0RhcpGPSPFhuRMtmJzTHyvTWxeug2BOV8B38GAIPXkGL1OkjZO0uREiaTuDACR80UeP9WbgTFBmTYAEZ22WJVEF5jArBIMMcVr284AmhR799mjXdtesNrNph1UMttosikKzuV2+tGA2Msu+i5lfRnGAqtvb55TwcJ5ZGkQF1OIKdQOcpu73lzFXh9J7yBDzOxSeKVliFp4k9T0KLVHgWdYcKL3MRZcKiYyO/htPhc1vY/vmfwPop5mghELIhZh1xFR3eiJUkLmapeLW0RNL51tw4tf6gczZFzuzzKPsqochFJvRN2/eDJrrWrc8/ut9jx1Cvb+ht54pXm/5cII3V6Z3L4ryjC4DaJaK8uu8N9dFluGx9dy7DvSh/RYDoPTyOmH3tENn9ToZNVmR3QSV6a3l4ax9ldrcZvPaCIxR3LFvOvN+wlikacQNW2Rb4641suDfUUS5hJJufcK+r2HGPdkPH71M1jSbPPHSiK9z6hqNgsCbvzvOiwOtd+lTbrYPrj+1N9dv16Wl5kqX/52+wdWh5v8WP/wA=);strokeColor=none;spacingTop=-3;spacingBottom=-3;spacingLeft=-3;spacingRight=-3;points=[];labelBackgroundColor=none;rounded=0;html=1;whiteSpace=wrap;" parent="abdKoB1VeoWTYlpOvYKU-321" vertex="1">
          <mxGeometry width="84" height="44" as="geometry" />
        </mxCell>
        <mxCell id="abdKoB1VeoWTYlpOvYKU-324" style="vsdxID=70;fillColor=none;gradientColor=none;strokeColor=none;spacingTop=-3;spacingBottom=-3;spacingLeft=-3;spacingRight=-3;points=[];labelBackgroundColor=none;rounded=0;html=1;whiteSpace=wrap;" parent="abdKoB1VeoWTYlpOvYKU-320" vertex="1">
          <mxGeometry x="2" y="2" width="80" height="40" as="geometry" />
        </mxCell>
        <mxCell id="abdKoB1VeoWTYlpOvYKU-325" style="vsdxID=71;fillColor=#2d5967;gradientColor=none;shape=stencil(nVjbUhsxDP2avGpsy9dnSv+DKaFkSgkToA1/X6W7tmV51xt42zjS6ujo6t3hzevj3ct+Z9Tr2+n4a//3cP/2uMNvO2MOz4/70+GNnnZ4u8Obh+Np//N0fH++n36/3F0kL0+/j38ubzhPesGCdRctoz6mE2fBhP8n3yeFH++nSUPPKh68nVXmI2cg+OnobGapBG4++piPnIIw2zrjdBQ1KDNLzUc2grHc/tPhmQEmjdACtmGo4CN43ShoMupHHnoHPrUeWnCmddB5SLZ1ULXOETBrW+fUOk60gC1ONcJoDHhsMaoWoEbQAqAHhy1G4sLHFqMmX8M6TvUZ8ini2MrL6HZ+gZbUp5o2Jgsl03rmNBiRW8Sn8IzS1AwDn8AK47UaOK8xCOvEQhLEegipNe8V4DpVBgF9w5WU76iyEE0LlzIXsYWLxKggyyeIkiwF2gm4RWrFPsVSR2GfvTlz48BGYd9BFHnIq+kqunyAGD9FF+9IWqgUtDGBcgKt79ByKSyNNA6qhmvMCaIGzSD/+SXhDopkoipkHmomDYigSIbYEsHHR46knB8t2CsGTjuhjAYdGgUT8gBaLqReweQRcH0zrTq167AKNb0U9lWJ19pPYDbNowMl+jm5Ks1TIUfZ0BMMrS/U8YJ5ClOQ5rG0lnMtWhc3vBeFzDRW4tvNZ6aiCzl5jp3rSCiBmI8sDYBtvqrUeriSSBf+ZtPnoelRYi+FK/5v5rdUaCvIRbCNvMNhiXbylirUDANC+18QhNCeJgihRmpFQDCWTatkUOgCQquRH7WUMtYLYA9mOAv4Uri+ZlBbNNgCritEHV2VLvwav518G79+M/SgBqOR753L8pIOXttaqFQ2WNXlVYiOxCKx0ABoFVJxaJ4Nf110nKxn1bVfLoUlV/OOW+ybPPiX6dLdBaG4tbyp16T9WLEgPeRL2LqHxhU6Bx5S/acNgruGIeC6/NJleTYNr/SPhp4Sm3MEZ4V7dcqZLslqqZdcx+Xk3bo2Sfm2mPj2XpqyHq9LPt8X67hhfStHKkIS5cF7YA4e2yFqxrbddete0LWLDnAot9Vyj9HdDX3hfsh7YM4tldFVwLK7inV0m+FPK7Qx5DN7jjmRNJxQSHUkGlxR4VelKJd/MiUylAnVCTBf/5ZTlGmUDh2GGw4R0A3UcnOueAMk0RFJKnfy0YYTN+xbhNiZD8I85UGQCxYDWW2JdtV5L/pxFO2qo3dhgRXNh4UtI3N1STB9Bqxz1aWWQLudi/RQP789HJ6epq93/H/5uY6Opk99ePsP);strokeColor=none;spacingTop=-3;spacingBottom=-3;spacingLeft=-3;spacingRight=-3;points=[];labelBackgroundColor=none;rounded=0;html=1;whiteSpace=wrap;" parent="abdKoB1VeoWTYlpOvYKU-324" vertex="1">
          <mxGeometry x="53" width="27" height="40" as="geometry" />
        </mxCell>
        <mxCell id="abdKoB1VeoWTYlpOvYKU-326" style="vsdxID=72;fillColor=#2d5967;gradientColor=none;shape=stencil(UzV2Ls5ILEhVNTIoLinKz04tz0wpyVA1dlE1MsrMy0gtyiwBslSNXVWNndPyi1LTi/JL81Ig/IJEkEoQKze/DGRCBUSfAUiHkUElhGdkrGdqDBZxgyjOyczDqdjQwAC3UpgkWYoJOANdOR6TTYlWSUFAYCgGMhDhnZaZkwOJLmR59PgBCkHi1tgVAA==);strokeColor=none;spacingTop=-3;spacingBottom=-3;spacingLeft=-3;spacingRight=-3;points=[];labelBackgroundColor=none;rounded=0;html=1;whiteSpace=wrap;" parent="abdKoB1VeoWTYlpOvYKU-324" vertex="1">
          <mxGeometry x="71" y="30" width="2" height="10" as="geometry" />
        </mxCell>
        <mxCell id="abdKoB1VeoWTYlpOvYKU-327" style="vsdxID=73;fillColor=#2d5967;gradientColor=none;shape=stencil(pVjbUhsxDP2avGpsyfLlmbb/wRQomVJgArTw9zXN+iI5602mb8FIlnQkHcm7o6uX++vn2x2al9fD08/bP/ub1/sdfdkh7h/vbw/71/xrR193dHX3dLj9cXh6e7w5/v18/Sn5+evX0+/PG96PeonA0acWmo/jCRNg+Hfy7ajw/e1w1LCLCoPHRWU5YgvBH4/ecZEKYOIitRyxAeRFihapVIyZj+XIRUDX23/YP3YOW2OEuy5MxWMATkLBOuBpfNGDJRmfByYZXvDgnQzPyNC8g6RCM+t+MgKz8NPMfHQI5KSPRjpIDshKB3PgKH0kC5Skj9aC8RP4Y83heQnICilKBZ1gHRxasEEGl0snsAwQCcirAsNWhks4yA3X5YjdRoFbA4mVfYYQpX0jbed0R4WukXZDlgjrQMmyLmV+UjSBS/8hPTgydHjTKA3gIaoO6BNbMDBAEgIy4L2EoQqddNZZ8FZ4q+WHViAwqlo8AylvcwFRUN4miIqOOA790KRW7PsAVlVLf3PhC4KAyj43TEuJMNh4CVwRwcWL4DrBbhwgJOluTLXea3MxYJTu9sOjIKinh6rF7XEj5xPlWkShgKEw70kLJxSwlNRaBblK7wWSTC4WJSR5xpV0FUjaza2CUoO3MGo+mhZQNyhsvdhaaT4YiJvWT9TPZvT9JLPjzcV8BLttPkJ0G+ZltnqNlfQO/nYqyxHljSQOcBnV73lm4na2mtRatcSGsR1vxrEMcfSSRilaiX+zvLWCbKA+vWe16KiQ+wNxyil5Z0AFSd4IFSSRIKmViSL4JCHp+YkqcHbicM9Vi/E8rS8lQZeGDaMn17ZhoNowerzOI8EzUiJzOC6HHsxkKuTJ4tNUfmgqO1BgVWk9xZAUCURgN3CAlWhYnG6UIwVYLk+H8xU4TsPjoWetr++TEp+PbffAUaoM5BwOXxRhzzJ1w2SeKDC4IBVyBfhZhLl8NYtn31lF2O9KOEqts1LDYcV+r2N1kM0+1/apW1Ars9I9OKzs83Lfbg+1U2Ad7ot8fiz56UZMVFGqQ6fjrkJn+SmkVoSeB6keedUiA8NuLcWbj/TMmUG/ocZHev/+w1pIQW3FecIExXADw6optY3wxQqKEoee8vk9OJ1S+d0X9KJedfo1zyhIfF29aol2Qu3pgGlSo53GAmFFdd1fY6W/7enc/PV196gpjDVfs0Unbtjvic6ON7d3b9KLVudlaeDukUQr8asZ1mmsIHzOS6ylDmvKWeHVV8E6XkN9bZH8oJB/tM9wd/uHh+NXvP7/+rNdPjp+8qOvfwE=);strokeColor=none;spacingTop=-3;spacingBottom=-3;spacingLeft=-3;spacingRight=-3;points=[];labelBackgroundColor=none;rounded=0;html=1;whiteSpace=wrap;" parent="abdKoB1VeoWTYlpOvYKU-324" vertex="1">
          <mxGeometry width="27" height="40" as="geometry" />
        </mxCell>
        <mxCell id="abdKoB1VeoWTYlpOvYKU-328" style="vsdxID=74;fillColor=#2d5967;gradientColor=none;shape=stencil(nZFNCoQwDIVPk610EjyBo/cQrDZMp5Xa+fH2tgRRZuGIu/eSLyHkAVWTaUcNqKYY/EN/uIsG6A6I7IwOHJMCqoGq3gc9BP9ynfixzWRWT//OG74yV6o8gmoWK64R0rLbkRdBpKKks/BNHexdm5fgP2ecf8MRmcT2556tlZj2/d9cUkkypXoB);strokeColor=none;spacingTop=-3;spacingBottom=-3;spacingLeft=-3;spacingRight=-3;points=[];labelBackgroundColor=none;rounded=0;html=1;whiteSpace=wrap;" parent="abdKoB1VeoWTYlpOvYKU-324" vertex="1">
          <mxGeometry x="6" y="30" width="2" height="10" as="geometry" />
        </mxCell>
        <mxCell id="abdKoB1VeoWTYlpOvYKU-329" style="vsdxID=75;fillColor=#2d5967;gradientColor=none;shape=stencil(pVfbdhoxDPwaXnVsydfnNP2PnIYUTmnIIaSlf1/Ttb2yzF5I3xYxWmvGI9m7oYf33dPbdoPq/Xw6/tj+3j+fdxv6skHcv+62p/05PW3ocUMPL8fT9vvp+PH6PPx+e7oir08/j7+ub7gMed6CttcsVH+GiCUw/l/k65Bw2L+yBBdA/WeCsWANT/j2cRpq0rkoBB9ySg4ZDTaHLlhL9yajcogc6By6UI/KIVLg4nTBPGOIIMQZgj1eTYMNgY7TYKkEaYi2VUK1KqAFI1SwEIUIHJRD2gGZ6Tp5Rk6IEO7Bp9J1nOPGU3TdP0eCXwBBzyCo0PKjpCq1/IwDNcOPZ6yyMRoIC76XBLUGFATHnEpQtewcQvAtO9Uy8wbQTReqmiK1mjFj2qGwHu1L13wO3ZXddf2YkSOuerSqpS1QaBWzEaKwO9srEqDbbjBA2G7uLN4qoHlyYgY6QH/H+29MZYGX4gUDDlv1mC5ZqYhAWtiNSUw9ap3leMYKa8QASOvh5c9PgRddNyYU07EGzCKFAN4J07FGpn7TSKLWbrNMaE9rq8G0Hbt4lqY5qMUJMo7GyjAdrwZbhsaAtWLM+ipNHbP1XJ46wVhrlVAAp9v1CQuN8SwfxanrM1QJyVNGNDbLWHOMpZ7RfhYv+SW7eMGvplR6zoITUyuBSs8UevymVE7ppDjOzJXubtXdbbp6Wcq4HxpFwWnA2bbg5DQl9oPbkSb8KPRdNnDreOfBuCbBlVvDFEE2a8uGEJDvCEZBkKOotwNJ1FrDyYSuQwg8tQUHiLJB3Hg6ohCilptuRq6tVool7LMo7r34dvNMhLaZXD2Yb4sXwYl5WO+yaxMU2DmxmUS6s2SdhmxmlnmP3bxn7EiCJlZn9wbdvxcrKMTF1W/03vLyprtx31rfyxs3l2jsDC+8JqXvJqtvvWPnzXaveZbx6WH8DH7ZHw7DVzT/X342p9DwyU2PfwE=);strokeColor=none;spacingTop=-3;spacingBottom=-3;spacingLeft=-3;spacingRight=-3;points=[];labelBackgroundColor=none;rounded=0;html=1;whiteSpace=wrap;" parent="abdKoB1VeoWTYlpOvYKU-324" vertex="1">
          <mxGeometry x="23" width="34" height="40" as="geometry" />
        </mxCell>
        <mxCell id="abdKoB1VeoWTYlpOvYKU-330" style="vsdxID=76;fillColor=#2d5967;gradientColor=none;shape=stencil(nZHBDsIgEES/Zq/Nytqk91r/o0mpEBEailb/XujG2DYaorfZ5Q0ZGKB6VO0gQeAYvDvLSXdBAR1ACG2V9DpEBdQA1b3z8uTd1XY8D20ik7q4W7rhzr4dYvIIfPAsqChp3hwZN9ou8JKKar8y4HcY/wMzEdbwK/9HdPu4n+BMjCwexfvTe20Md7Y835YUV1wwNU8=);strokeColor=none;spacingTop=-3;spacingBottom=-3;spacingLeft=-3;spacingRight=-3;points=[];labelBackgroundColor=none;rounded=0;html=1;whiteSpace=wrap;" parent="abdKoB1VeoWTYlpOvYKU-324" vertex="1">
          <mxGeometry x="30" y="30" width="2" height="10" as="geometry" />
        </mxCell>
        <mxCell id="abdKoB1VeoWTYlpOvYKU-331" style="vsdxID=77;fillColor=#2d5967;gradientColor=none;shape=stencil(UzV2Ls5ILEhVNTIoLinKz04tz0wpyVA1dlE1MsrMy0gtyiwBslSNXVWNndPyi1LTi/JL81Ig/IJEkEoQKze/DGRCBUSfoYEBSI+RQSUq3w2iOCczD49iI2M9U2PileMx2cRMz9CIWMUkOYIC71GiGMhABHlaZk4OJMaQ5dGjCCgEiV5jVwA=);strokeColor=none;spacingTop=-3;spacingBottom=-3;spacingLeft=-3;spacingRight=-3;points=[];labelBackgroundColor=none;rounded=0;html=1;whiteSpace=wrap;" parent="abdKoB1VeoWTYlpOvYKU-324" vertex="1">
          <mxGeometry x="47" y="30" width="2" height="10" as="geometry" />
        </mxCell>
        <mxCell id="abdKoB1VeoWTYlpOvYKU-332" style="vsdxID=66;fillColor=none;gradientColor=none;strokeColor=none;spacingTop=-3;spacingBottom=-3;spacingLeft=-3;spacingRight=-3;points=[];labelBackgroundColor=none;rounded=0;html=1;whiteSpace=wrap;" parent="1" vertex="1">
          <mxGeometry x="-1255" y="370" width="84" height="44" as="geometry" />
        </mxCell>
        <mxCell id="abdKoB1VeoWTYlpOvYKU-333" style="vsdxID=67;fillColor=none;gradientColor=none;strokeColor=none;spacingTop=-3;spacingBottom=-3;spacingLeft=-3;spacingRight=-3;points=[];labelBackgroundColor=none;rounded=0;html=1;whiteSpace=wrap;" parent="abdKoB1VeoWTYlpOvYKU-332" vertex="1">
          <mxGeometry width="84" height="44" as="geometry" />
        </mxCell>
        <mxCell id="abdKoB1VeoWTYlpOvYKU-334" style="vsdxID=68;fillColor=#FFFFFF;gradientColor=none;shape=stencil(lVbLctswDPwaXTEEwec5Tf8j0zi1pq6dUZw2+fvQI/EBWKLjm0gvzAW4XGCgh7f90+tu0OrtPJ3+7P6Pz+f9QD8GrcfjfjeN5/Q10ONADy+nafd7Or0fn+f169MFefn6e/p3+YePOU5dIrT6nFeo5vXPGXoYj5tQb0C5FvzrfZr/GDl8WToDTs9bH3reIsCwgJYd6wBpAdFyDtgMWnYsAfUO9qAiP9tqIMfPdhCsOBvBID/blbBydqc+FoJnJTIBELfxqMC7gZc/s1oPwD5aFgI1GM8rYcCLS0ALhhdCQTS8DhggEC9EAa0yTVeriZGVeMk13ZojzrXhkQWDYAXZJA/LyZIGJciigxi22ZIDw9lWwWzQpUTXcrqtfjLfUCWxrTKjADnfClrlazQIunfiTWLfvY1EiQxPzxDI24iAmmeXEtYiuxZVb8h2ZN5GLPfnIerudTQh2W9AvPimClno4h5SVYTVdF67S0lExvIucJIydl2sDcGiUx+FjSGQUJjBLPaSmY1FdDkz4/ILXfeyJiI7XzaT9QxLPpsBKxkiT7CG1AQJlGwS1wblSjP67htyAYwwXwcWu3wDRPHmAyhhp16XNrftp96DFnT7fhoQHGd7y0+DveqC134aKv+intogFmYhSSFysjf6VIrwXAs3AqICLV48ZSNZD6jDxPd6baTseCUggu0+wFgMr5GnrGDUEJFXMAkvRF7ChDLCA1OHCf3j04QiLK2djnL3Voqfnl4CioZYMVl+lGeqjbmET3pRVqo3Ft4FvmPcFND0USfal/FwmAfi9nc5AaeteXqmxy8=);strokeColor=none;spacingTop=-3;spacingBottom=-3;spacingLeft=-3;spacingRight=-3;points=[];labelBackgroundColor=none;rounded=0;html=1;whiteSpace=wrap;" parent="abdKoB1VeoWTYlpOvYKU-333" vertex="1">
          <mxGeometry x="1" y="1" width="82" height="42" as="geometry" />
        </mxCell>
        <mxCell id="abdKoB1VeoWTYlpOvYKU-335" style="vsdxID=69;fillColor=#FFFFFF;gradientColor=none;shape=stencil(pVlddxwnDP01+6oDiM/nNPkfOYlT76lr52yc1vn3xZ2BEdKMdmjf1vjCSOhyJcEFP/x4/Pz94eLMj9fbyx8Pf1+/vj5e8LeLc9fnx4fb9bX+uuDHC3749nJ7+P328vP56/L398/vyPdff7789b7C2zIvGvD5fZYzv5YRD+Hfvz8t8KfrswpP4OwMHi2UTCd8+XlbDLJyyjqEEYpfht7cMhQKuLKi1iFvIa9Db7iiEmBbax3yQfOPTlhHHCTVP+dVvHDPQkyje31K9y46yHH0LiDYMHoXPZgwehf60L65GbIdzLUZjFPtJRu9DlnTV2kGJ7ftWwsHlDjamyLYMtrbQbvm5h1yjnhubcbNQSvsWC3LETyOxhYwdjQ2S+pYD1nhQiGRXT9d11Dx3YwVn0GNRTGQmHehblEY3SuGMceBY8zJJKjY+aXubCFks51shX87QXTj5yOCYUSgKOwEMtrekhndHoU5hVDtFL6q3tT6ZgJc+VbsBD4JUdHx9YhOGR8T2Kn1q2RPwIMQGR3vCavP4HGSC+gm8TOxdZN7b4myn8JPGcOT1yRcHEIuAmRGSw91c1kuCF0VugIRoWhaSoJ+UoH6Vmxp03H52TSqfZroYxM/CGn8MtdddnwBmUyrsm4F3UTeEJ7hZpLtnrBttTJryRRrCR1PpViH/LDeS7GOHL/DFIskvK5HPLMcW2tBXhCIeoSdzcC1IrB6lZuLROxsJ5plxEFCii1tptFcb0Zb9dLQI+fNLN73k3TgmycVRBuqR5SVyp6kE9c3BQt3bkO18Li2/JFuszRV9SEowZMTKl1RPRl0Sj8ZhZ0ML6vlRorNvZ1OYK7R+X9w1nWJLGBm1lbAXjQwRt1fySDDTkYSm1sFgMkOBeFBaEUSZztwhzxyQqVnVjtJOqUN5V74dgdl0vBe9FqViIX1WnrWoBM6PioU8kZHC++KKMi3OVTYkGcNgtriJ05HAaWvRyFWNjUFPbLXiWhksOwoO6nDBphSORQJvGH2E7Io0RhcpGPSPFhuRMtmJzTHyvTWxeug2BOV8B38GAIPXkGL1OkjZO0uREiaTuDACR80UeP9WbgTFBmTYAEZ22WJVEF5jArBIMMcVr284AmhR799mjXdtesNrNph1UMttosikKzuV2+tGA2Msu+i5lfRnGAqtvb55TwcJ5ZGkQF1OIKdQOcpu73lzFXh9J7yBDzOxSeKVliFp4k9T0KLVHgWdYcKL3MRZcKiYyO/htPhc1vY/vmfwPop5mghELIhZh1xFR3eiJUkLmapeLW0RNL51tw4tf6gczZFzuzzKPsqochFJvRN2/eDJrrWrc8/ut9jx1Cvb+ht54pXm/5cII3V6Z3L4ryjC4DaJaK8uu8N9dFluGx9dy7DvSh/RYDoPTyOmH3tENn9ToZNVmR3QSV6a3l4ax9ldrcZvPaCIxR3LFvOvN+wlikacQNW2Rb4641suDfUUS5hJJufcK+r2HGPdkPH71M1jSbPPHSiK9z6hqNgsCbvzvOiwOtd+lTbrYPrj+1N9dv16Wl5kqX/52+wdWh5v8WP/wA=);strokeColor=none;spacingTop=-3;spacingBottom=-3;spacingLeft=-3;spacingRight=-3;points=[];labelBackgroundColor=none;rounded=0;html=1;whiteSpace=wrap;" parent="abdKoB1VeoWTYlpOvYKU-333" vertex="1">
          <mxGeometry width="84" height="44" as="geometry" />
        </mxCell>
        <mxCell id="abdKoB1VeoWTYlpOvYKU-336" style="vsdxID=70;fillColor=none;gradientColor=none;strokeColor=none;spacingTop=-3;spacingBottom=-3;spacingLeft=-3;spacingRight=-3;points=[];labelBackgroundColor=none;rounded=0;html=1;whiteSpace=wrap;" parent="abdKoB1VeoWTYlpOvYKU-332" vertex="1">
          <mxGeometry x="2" y="2" width="80" height="40" as="geometry" />
        </mxCell>
        <mxCell id="abdKoB1VeoWTYlpOvYKU-337" style="vsdxID=71;fillColor=#2d5967;gradientColor=none;shape=stencil(nVjbUhsxDP2avGpsy9dnSv+DKaFkSgkToA1/X6W7tmV51xt42zjS6ujo6t3hzevj3ct+Z9Tr2+n4a//3cP/2uMNvO2MOz4/70+GNnnZ4u8Obh+Np//N0fH++n36/3F0kL0+/j38ubzhPesGCdRctoz6mE2fBhP8n3yeFH++nSUPPKh68nVXmI2cg+OnobGapBG4++piPnIIw2zrjdBQ1KDNLzUc2grHc/tPhmQEmjdACtmGo4CN43ShoMupHHnoHPrUeWnCmddB5SLZ1ULXOETBrW+fUOk60gC1ONcJoDHhsMaoWoEbQAqAHhy1G4sLHFqMmX8M6TvUZ8ini2MrL6HZ+gZbUp5o2Jgsl03rmNBiRW8Sn8IzS1AwDn8AK47UaOK8xCOvEQhLEegipNe8V4DpVBgF9w5WU76iyEE0LlzIXsYWLxKggyyeIkiwF2gm4RWrFPsVSR2GfvTlz48BGYd9BFHnIq+kqunyAGD9FF+9IWqgUtDGBcgKt79ByKSyNNA6qhmvMCaIGzSD/+SXhDopkoipkHmomDYigSIbYEsHHR46knB8t2CsGTjuhjAYdGgUT8gBaLqReweQRcH0zrTq167AKNb0U9lWJ19pPYDbNowMl+jm5Ks1TIUfZ0BMMrS/U8YJ5ClOQ5rG0lnMtWhc3vBeFzDRW4tvNZ6aiCzl5jp3rSCiBmI8sDYBtvqrUeriSSBf+ZtPnoelRYi+FK/5v5rdUaCvIRbCNvMNhiXbylirUDANC+18QhNCeJgihRmpFQDCWTatkUOgCQquRH7WUMtYLYA9mOAv4Uri+ZlBbNNgCritEHV2VLvwav518G79+M/SgBqOR753L8pIOXttaqFQ2WNXlVYiOxCKx0ABoFVJxaJ4Nf110nKxn1bVfLoUlV/OOW+ybPPiX6dLdBaG4tbyp16T9WLEgPeRL2LqHxhU6Bx5S/acNgruGIeC6/NJleTYNr/SPhp4Sm3MEZ4V7dcqZLslqqZdcx+Xk3bo2Sfm2mPj2XpqyHq9LPt8X67hhfStHKkIS5cF7YA4e2yFqxrbddete0LWLDnAot9Vyj9HdDX3hfsh7YM4tldFVwLK7inV0m+FPK7Qx5DN7jjmRNJxQSHUkGlxR4VelKJd/MiUylAnVCTBf/5ZTlGmUDh2GGw4R0A3UcnOueAMk0RFJKnfy0YYTN+xbhNiZD8I85UGQCxYDWW2JdtV5L/pxFO2qo3dhgRXNh4UtI3N1STB9Bqxz1aWWQLudi/RQP789HJ6epq93/H/5uY6Opk99ePsP);strokeColor=none;spacingTop=-3;spacingBottom=-3;spacingLeft=-3;spacingRight=-3;points=[];labelBackgroundColor=none;rounded=0;html=1;whiteSpace=wrap;" parent="abdKoB1VeoWTYlpOvYKU-336" vertex="1">
          <mxGeometry x="53" width="27" height="40" as="geometry" />
        </mxCell>
        <mxCell id="abdKoB1VeoWTYlpOvYKU-338" style="vsdxID=72;fillColor=#2d5967;gradientColor=none;shape=stencil(UzV2Ls5ILEhVNTIoLinKz04tz0wpyVA1dlE1MsrMy0gtyiwBslSNXVWNndPyi1LTi/JL81Ig/IJEkEoQKze/DGRCBUSfAUiHkUElhGdkrGdqDBZxgyjOyczDqdjQwAC3UpgkWYoJOANdOR6TTYlWSUFAYCgGMhDhnZaZkwOJLmR59PgBCkHi1tgVAA==);strokeColor=none;spacingTop=-3;spacingBottom=-3;spacingLeft=-3;spacingRight=-3;points=[];labelBackgroundColor=none;rounded=0;html=1;whiteSpace=wrap;" parent="abdKoB1VeoWTYlpOvYKU-336" vertex="1">
          <mxGeometry x="71" y="30" width="2" height="10" as="geometry" />
        </mxCell>
        <mxCell id="abdKoB1VeoWTYlpOvYKU-339" style="vsdxID=73;fillColor=#2d5967;gradientColor=none;shape=stencil(pVjbUhsxDP2avGpsyfLlmbb/wRQomVJgArTw9zXN+iI5602mb8FIlnQkHcm7o6uX++vn2x2al9fD08/bP/ub1/sdfdkh7h/vbw/71/xrR193dHX3dLj9cXh6e7w5/v18/Sn5+evX0+/PG96PeonA0acWmo/jCRNg+Hfy7ajw/e1w1LCLCoPHRWU5YgvBH4/ecZEKYOIitRyxAeRFihapVIyZj+XIRUDX23/YP3YOW2OEuy5MxWMATkLBOuBpfNGDJRmfByYZXvDgnQzPyNC8g6RCM+t+MgKz8NPMfHQI5KSPRjpIDshKB3PgKH0kC5Skj9aC8RP4Y83heQnICilKBZ1gHRxasEEGl0snsAwQCcirAsNWhks4yA3X5YjdRoFbA4mVfYYQpX0jbed0R4WukXZDlgjrQMmyLmV+UjSBS/8hPTgydHjTKA3gIaoO6BNbMDBAEgIy4L2EoQqddNZZ8FZ4q+WHViAwqlo8AylvcwFRUN4miIqOOA790KRW7PsAVlVLf3PhC4KAyj43TEuJMNh4CVwRwcWL4DrBbhwgJOluTLXea3MxYJTu9sOjIKinh6rF7XEj5xPlWkShgKEw70kLJxSwlNRaBblK7wWSTC4WJSR5xpV0FUjaza2CUoO3MGo+mhZQNyhsvdhaaT4YiJvWT9TPZvT9JLPjzcV8BLttPkJ0G+ZltnqNlfQO/nYqyxHljSQOcBnV73lm4na2mtRatcSGsR1vxrEMcfSSRilaiX+zvLWCbKA+vWe16KiQ+wNxyil5Z0AFSd4IFSSRIKmViSL4JCHp+YkqcHbicM9Vi/E8rS8lQZeGDaMn17ZhoNowerzOI8EzUiJzOC6HHsxkKuTJ4tNUfmgqO1BgVWk9xZAUCURgN3CAlWhYnG6UIwVYLk+H8xU4TsPjoWetr++TEp+PbffAUaoM5BwOXxRhzzJ1w2SeKDC4IBVyBfhZhLl8NYtn31lF2O9KOEqts1LDYcV+r2N1kM0+1/apW1Ars9I9OKzs83Lfbg+1U2Ad7ot8fiz56UZMVFGqQ6fjrkJn+SmkVoSeB6keedUiA8NuLcWbj/TMmUG/ocZHev/+w1pIQW3FecIExXADw6optY3wxQqKEoee8vk9OJ1S+d0X9KJedfo1zyhIfF29aol2Qu3pgGlSo53GAmFFdd1fY6W/7enc/PV196gpjDVfs0Unbtjvic6ON7d3b9KLVudlaeDukUQr8asZ1mmsIHzOS6ylDmvKWeHVV8E6XkN9bZH8oJB/tM9wd/uHh+NXvP7/+rNdPjp+8qOvfwE=);strokeColor=none;spacingTop=-3;spacingBottom=-3;spacingLeft=-3;spacingRight=-3;points=[];labelBackgroundColor=none;rounded=0;html=1;whiteSpace=wrap;" parent="abdKoB1VeoWTYlpOvYKU-336" vertex="1">
          <mxGeometry width="27" height="40" as="geometry" />
        </mxCell>
        <mxCell id="abdKoB1VeoWTYlpOvYKU-340" style="vsdxID=74;fillColor=#2d5967;gradientColor=none;shape=stencil(nZFNCoQwDIVPk610EjyBo/cQrDZMp5Xa+fH2tgRRZuGIu/eSLyHkAVWTaUcNqKYY/EN/uIsG6A6I7IwOHJMCqoGq3gc9BP9ynfixzWRWT//OG74yV6o8gmoWK64R0rLbkRdBpKKks/BNHexdm5fgP2ecf8MRmcT2556tlZj2/d9cUkkypXoB);strokeColor=none;spacingTop=-3;spacingBottom=-3;spacingLeft=-3;spacingRight=-3;points=[];labelBackgroundColor=none;rounded=0;html=1;whiteSpace=wrap;" parent="abdKoB1VeoWTYlpOvYKU-336" vertex="1">
          <mxGeometry x="6" y="30" width="2" height="10" as="geometry" />
        </mxCell>
        <mxCell id="abdKoB1VeoWTYlpOvYKU-341" style="vsdxID=75;fillColor=#2d5967;gradientColor=none;shape=stencil(pVfbdhoxDPwaXnVsydfnNP2PnIYUTmnIIaSlf1/Ttb2yzF5I3xYxWmvGI9m7oYf33dPbdoPq/Xw6/tj+3j+fdxv6skHcv+62p/05PW3ocUMPL8fT9vvp+PH6PPx+e7oir08/j7+ub7gMed6CttcsVH+GiCUw/l/k65Bw2L+yBBdA/WeCsWANT/j2cRpq0rkoBB9ySg4ZDTaHLlhL9yajcogc6By6UI/KIVLg4nTBPGOIIMQZgj1eTYMNgY7TYKkEaYi2VUK1KqAFI1SwEIUIHJRD2gGZ6Tp5Rk6IEO7Bp9J1nOPGU3TdP0eCXwBBzyCo0PKjpCq1/IwDNcOPZ6yyMRoIC76XBLUGFATHnEpQtewcQvAtO9Uy8wbQTReqmiK1mjFj2qGwHu1L13wO3ZXddf2YkSOuerSqpS1QaBWzEaKwO9srEqDbbjBA2G7uLN4qoHlyYgY6QH/H+29MZYGX4gUDDlv1mC5ZqYhAWtiNSUw9ap3leMYKa8QASOvh5c9PgRddNyYU07EGzCKFAN4J07FGpn7TSKLWbrNMaE9rq8G0Hbt4lqY5qMUJMo7GyjAdrwZbhsaAtWLM+ipNHbP1XJ46wVhrlVAAp9v1CQuN8SwfxanrM1QJyVNGNDbLWHOMpZ7RfhYv+SW7eMGvplR6zoITUyuBSs8UevymVE7ppDjOzJXubtXdbbp6Wcq4HxpFwWnA2bbg5DQl9oPbkSb8KPRdNnDreOfBuCbBlVvDFEE2a8uGEJDvCEZBkKOotwNJ1FrDyYSuQwg8tQUHiLJB3Hg6ohCilptuRq6tVool7LMo7r34dvNMhLaZXD2Yb4sXwYl5WO+yaxMU2DmxmUS6s2SdhmxmlnmP3bxn7EiCJlZn9wbdvxcrKMTF1W/03vLyprtx31rfyxs3l2jsDC+8JqXvJqtvvWPnzXaveZbx6WH8DH7ZHw7DVzT/X342p9DwyU2PfwE=);strokeColor=none;spacingTop=-3;spacingBottom=-3;spacingLeft=-3;spacingRight=-3;points=[];labelBackgroundColor=none;rounded=0;html=1;whiteSpace=wrap;" parent="abdKoB1VeoWTYlpOvYKU-336" vertex="1">
          <mxGeometry x="23" width="34" height="40" as="geometry" />
        </mxCell>
        <mxCell id="abdKoB1VeoWTYlpOvYKU-342" style="vsdxID=76;fillColor=#2d5967;gradientColor=none;shape=stencil(nZHBDsIgEES/Zq/Nytqk91r/o0mpEBEailb/XujG2DYaorfZ5Q0ZGKB6VO0gQeAYvDvLSXdBAR1ACG2V9DpEBdQA1b3z8uTd1XY8D20ik7q4W7rhzr4dYvIIfPAsqChp3hwZN9ou8JKKar8y4HcY/wMzEdbwK/9HdPu4n+BMjCwexfvTe20Md7Y835YUV1wwNU8=);strokeColor=none;spacingTop=-3;spacingBottom=-3;spacingLeft=-3;spacingRight=-3;points=[];labelBackgroundColor=none;rounded=0;html=1;whiteSpace=wrap;" parent="abdKoB1VeoWTYlpOvYKU-336" vertex="1">
          <mxGeometry x="30" y="30" width="2" height="10" as="geometry" />
        </mxCell>
        <mxCell id="abdKoB1VeoWTYlpOvYKU-343" style="vsdxID=77;fillColor=#2d5967;gradientColor=none;shape=stencil(UzV2Ls5ILEhVNTIoLinKz04tz0wpyVA1dlE1MsrMy0gtyiwBslSNXVWNndPyi1LTi/JL81Ig/IJEkEoQKze/DGRCBUSfoYEBSI+RQSUq3w2iOCczD49iI2M9U2PileMx2cRMz9CIWMUkOYIC71GiGMhABHlaZk4OJMaQ5dGjCCgEiV5jVwA=);strokeColor=none;spacingTop=-3;spacingBottom=-3;spacingLeft=-3;spacingRight=-3;points=[];labelBackgroundColor=none;rounded=0;html=1;whiteSpace=wrap;" parent="abdKoB1VeoWTYlpOvYKU-336" vertex="1">
          <mxGeometry x="47" y="30" width="2" height="10" as="geometry" />
        </mxCell>
        <mxCell id="abdKoB1VeoWTYlpOvYKU-344" style="vsdxID=66;fillColor=none;gradientColor=none;strokeColor=none;spacingTop=-3;spacingBottom=-3;spacingLeft=-3;spacingRight=-3;points=[];labelBackgroundColor=none;rounded=0;html=1;whiteSpace=wrap;" parent="1" vertex="1">
          <mxGeometry x="-1390" y="440" width="84" height="44" as="geometry" />
        </mxCell>
        <mxCell id="abdKoB1VeoWTYlpOvYKU-345" style="vsdxID=67;fillColor=none;gradientColor=none;strokeColor=none;spacingTop=-3;spacingBottom=-3;spacingLeft=-3;spacingRight=-3;points=[];labelBackgroundColor=none;rounded=0;html=1;whiteSpace=wrap;" parent="abdKoB1VeoWTYlpOvYKU-344" vertex="1">
          <mxGeometry width="84" height="44" as="geometry" />
        </mxCell>
        <mxCell id="abdKoB1VeoWTYlpOvYKU-346" style="vsdxID=68;fillColor=#FFFFFF;gradientColor=none;shape=stencil(lVbLctswDPwaXTEEwec5Tf8j0zi1pq6dUZw2+fvQI/EBWKLjm0gvzAW4XGCgh7f90+tu0OrtPJ3+7P6Pz+f9QD8GrcfjfjeN5/Q10ONADy+nafd7Or0fn+f169MFefn6e/p3+YePOU5dIrT6nFeo5vXPGXoYj5tQb0C5FvzrfZr/GDl8WToDTs9bH3reIsCwgJYd6wBpAdFyDtgMWnYsAfUO9qAiP9tqIMfPdhCsOBvBID/blbBydqc+FoJnJTIBELfxqMC7gZc/s1oPwD5aFgI1GM8rYcCLS0ALhhdCQTS8DhggEC9EAa0yTVeriZGVeMk13ZojzrXhkQWDYAXZJA/LyZIGJciigxi22ZIDw9lWwWzQpUTXcrqtfjLfUCWxrTKjADnfClrlazQIunfiTWLfvY1EiQxPzxDI24iAmmeXEtYiuxZVb8h2ZN5GLPfnIerudTQh2W9AvPimClno4h5SVYTVdF67S0lExvIucJIydl2sDcGiUx+FjSGQUJjBLPaSmY1FdDkz4/ILXfeyJiI7XzaT9QxLPpsBKxkiT7CG1AQJlGwS1wblSjP67htyAYwwXwcWu3wDRPHmAyhhp16XNrftp96DFnT7fhoQHGd7y0+DveqC134aKv+intogFmYhSSFysjf6VIrwXAs3AqICLV48ZSNZD6jDxPd6baTseCUggu0+wFgMr5GnrGDUEJFXMAkvRF7ChDLCA1OHCf3j04QiLK2djnL3Voqfnl4CioZYMVl+lGeqjbmET3pRVqo3Ft4FvmPcFND0USfal/FwmAfi9nc5AaeteXqmxy8=);strokeColor=none;spacingTop=-3;spacingBottom=-3;spacingLeft=-3;spacingRight=-3;points=[];labelBackgroundColor=none;rounded=0;html=1;whiteSpace=wrap;" parent="abdKoB1VeoWTYlpOvYKU-345" vertex="1">
          <mxGeometry x="1" y="1" width="82" height="42" as="geometry" />
        </mxCell>
        <mxCell id="abdKoB1VeoWTYlpOvYKU-347" style="vsdxID=69;fillColor=#FFFFFF;gradientColor=none;shape=stencil(pVlddxwnDP01+6oDiM/nNPkfOYlT76lr52yc1vn3xZ2BEdKMdmjf1vjCSOhyJcEFP/x4/Pz94eLMj9fbyx8Pf1+/vj5e8LeLc9fnx4fb9bX+uuDHC3749nJ7+P328vP56/L398/vyPdff7789b7C2zIvGvD5fZYzv5YRD+Hfvz8t8KfrswpP4OwMHi2UTCd8+XlbDLJyyjqEEYpfht7cMhQKuLKi1iFvIa9Db7iiEmBbax3yQfOPTlhHHCTVP+dVvHDPQkyje31K9y46yHH0LiDYMHoXPZgwehf60L65GbIdzLUZjFPtJRu9DlnTV2kGJ7ftWwsHlDjamyLYMtrbQbvm5h1yjnhubcbNQSvsWC3LETyOxhYwdjQ2S+pYD1nhQiGRXT9d11Dx3YwVn0GNRTGQmHehblEY3SuGMceBY8zJJKjY+aXubCFks51shX87QXTj5yOCYUSgKOwEMtrekhndHoU5hVDtFL6q3tT6ZgJc+VbsBD4JUdHx9YhOGR8T2Kn1q2RPwIMQGR3vCavP4HGSC+gm8TOxdZN7b4myn8JPGcOT1yRcHEIuAmRGSw91c1kuCF0VugIRoWhaSoJ+UoH6Vmxp03H52TSqfZroYxM/CGn8MtdddnwBmUyrsm4F3UTeEJ7hZpLtnrBttTJryRRrCR1PpViH/LDeS7GOHL/DFIskvK5HPLMcW2tBXhCIeoSdzcC1IrB6lZuLROxsJ5plxEFCii1tptFcb0Zb9dLQI+fNLN73k3TgmycVRBuqR5SVyp6kE9c3BQt3bkO18Li2/JFuszRV9SEowZMTKl1RPRl0Sj8ZhZ0ML6vlRorNvZ1OYK7R+X9w1nWJLGBm1lbAXjQwRt1fySDDTkYSm1sFgMkOBeFBaEUSZztwhzxyQqVnVjtJOqUN5V74dgdl0vBe9FqViIX1WnrWoBM6PioU8kZHC++KKMi3OVTYkGcNgtriJ05HAaWvRyFWNjUFPbLXiWhksOwoO6nDBphSORQJvGH2E7Io0RhcpGPSPFhuRMtmJzTHyvTWxeug2BOV8B38GAIPXkGL1OkjZO0uREiaTuDACR80UeP9WbgTFBmTYAEZ22WJVEF5jArBIMMcVr284AmhR799mjXdtesNrNph1UMttosikKzuV2+tGA2Msu+i5lfRnGAqtvb55TwcJ5ZGkQF1OIKdQOcpu73lzFXh9J7yBDzOxSeKVliFp4k9T0KLVHgWdYcKL3MRZcKiYyO/htPhc1vY/vmfwPop5mghELIhZh1xFR3eiJUkLmapeLW0RNL51tw4tf6gczZFzuzzKPsqochFJvRN2/eDJrrWrc8/ut9jx1Cvb+ht54pXm/5cII3V6Z3L4ryjC4DaJaK8uu8N9dFluGx9dy7DvSh/RYDoPTyOmH3tENn9ToZNVmR3QSV6a3l4ax9ldrcZvPaCIxR3LFvOvN+wlikacQNW2Rb4641suDfUUS5hJJufcK+r2HGPdkPH71M1jSbPPHSiK9z6hqNgsCbvzvOiwOtd+lTbrYPrj+1N9dv16Wl5kqX/52+wdWh5v8WP/wA=);strokeColor=none;spacingTop=-3;spacingBottom=-3;spacingLeft=-3;spacingRight=-3;points=[];labelBackgroundColor=none;rounded=0;html=1;whiteSpace=wrap;" parent="abdKoB1VeoWTYlpOvYKU-345" vertex="1">
          <mxGeometry width="84" height="44" as="geometry" />
        </mxCell>
        <mxCell id="abdKoB1VeoWTYlpOvYKU-348" style="vsdxID=70;fillColor=none;gradientColor=none;strokeColor=none;spacingTop=-3;spacingBottom=-3;spacingLeft=-3;spacingRight=-3;points=[];labelBackgroundColor=none;rounded=0;html=1;whiteSpace=wrap;" parent="abdKoB1VeoWTYlpOvYKU-344" vertex="1">
          <mxGeometry x="2" y="2" width="80" height="40" as="geometry" />
        </mxCell>
        <mxCell id="abdKoB1VeoWTYlpOvYKU-349" style="vsdxID=71;fillColor=#2d5967;gradientColor=none;shape=stencil(nVjbUhsxDP2avGpsy9dnSv+DKaFkSgkToA1/X6W7tmV51xt42zjS6ujo6t3hzevj3ct+Z9Tr2+n4a//3cP/2uMNvO2MOz4/70+GNnnZ4u8Obh+Np//N0fH++n36/3F0kL0+/j38ubzhPesGCdRctoz6mE2fBhP8n3yeFH++nSUPPKh68nVXmI2cg+OnobGapBG4++piPnIIw2zrjdBQ1KDNLzUc2grHc/tPhmQEmjdACtmGo4CN43ShoMupHHnoHPrUeWnCmddB5SLZ1ULXOETBrW+fUOk60gC1ONcJoDHhsMaoWoEbQAqAHhy1G4sLHFqMmX8M6TvUZ8ini2MrL6HZ+gZbUp5o2Jgsl03rmNBiRW8Sn8IzS1AwDn8AK47UaOK8xCOvEQhLEegipNe8V4DpVBgF9w5WU76iyEE0LlzIXsYWLxKggyyeIkiwF2gm4RWrFPsVSR2GfvTlz48BGYd9BFHnIq+kqunyAGD9FF+9IWqgUtDGBcgKt79ByKSyNNA6qhmvMCaIGzSD/+SXhDopkoipkHmomDYigSIbYEsHHR46knB8t2CsGTjuhjAYdGgUT8gBaLqReweQRcH0zrTq167AKNb0U9lWJ19pPYDbNowMl+jm5Ks1TIUfZ0BMMrS/U8YJ5ClOQ5rG0lnMtWhc3vBeFzDRW4tvNZ6aiCzl5jp3rSCiBmI8sDYBtvqrUeriSSBf+ZtPnoelRYi+FK/5v5rdUaCvIRbCNvMNhiXbylirUDANC+18QhNCeJgihRmpFQDCWTatkUOgCQquRH7WUMtYLYA9mOAv4Uri+ZlBbNNgCritEHV2VLvwav518G79+M/SgBqOR753L8pIOXttaqFQ2WNXlVYiOxCKx0ABoFVJxaJ4Nf110nKxn1bVfLoUlV/OOW+ybPPiX6dLdBaG4tbyp16T9WLEgPeRL2LqHxhU6Bx5S/acNgruGIeC6/NJleTYNr/SPhp4Sm3MEZ4V7dcqZLslqqZdcx+Xk3bo2Sfm2mPj2XpqyHq9LPt8X67hhfStHKkIS5cF7YA4e2yFqxrbddete0LWLDnAot9Vyj9HdDX3hfsh7YM4tldFVwLK7inV0m+FPK7Qx5DN7jjmRNJxQSHUkGlxR4VelKJd/MiUylAnVCTBf/5ZTlGmUDh2GGw4R0A3UcnOueAMk0RFJKnfy0YYTN+xbhNiZD8I85UGQCxYDWW2JdtV5L/pxFO2qo3dhgRXNh4UtI3N1STB9Bqxz1aWWQLudi/RQP789HJ6epq93/H/5uY6Opk99ePsP);strokeColor=none;spacingTop=-3;spacingBottom=-3;spacingLeft=-3;spacingRight=-3;points=[];labelBackgroundColor=none;rounded=0;html=1;whiteSpace=wrap;" parent="abdKoB1VeoWTYlpOvYKU-348" vertex="1">
          <mxGeometry x="53" width="27" height="40" as="geometry" />
        </mxCell>
        <mxCell id="abdKoB1VeoWTYlpOvYKU-350" style="vsdxID=72;fillColor=#2d5967;gradientColor=none;shape=stencil(UzV2Ls5ILEhVNTIoLinKz04tz0wpyVA1dlE1MsrMy0gtyiwBslSNXVWNndPyi1LTi/JL81Ig/IJEkEoQKze/DGRCBUSfAUiHkUElhGdkrGdqDBZxgyjOyczDqdjQwAC3UpgkWYoJOANdOR6TTYlWSUFAYCgGMhDhnZaZkwOJLmR59PgBCkHi1tgVAA==);strokeColor=none;spacingTop=-3;spacingBottom=-3;spacingLeft=-3;spacingRight=-3;points=[];labelBackgroundColor=none;rounded=0;html=1;whiteSpace=wrap;" parent="abdKoB1VeoWTYlpOvYKU-348" vertex="1">
          <mxGeometry x="71" y="30" width="2" height="10" as="geometry" />
        </mxCell>
        <mxCell id="abdKoB1VeoWTYlpOvYKU-351" style="vsdxID=73;fillColor=#2d5967;gradientColor=none;shape=stencil(pVjbUhsxDP2avGpsyfLlmbb/wRQomVJgArTw9zXN+iI5602mb8FIlnQkHcm7o6uX++vn2x2al9fD08/bP/ub1/sdfdkh7h/vbw/71/xrR193dHX3dLj9cXh6e7w5/v18/Sn5+evX0+/PG96PeonA0acWmo/jCRNg+Hfy7ajw/e1w1LCLCoPHRWU5YgvBH4/ecZEKYOIitRyxAeRFihapVIyZj+XIRUDX23/YP3YOW2OEuy5MxWMATkLBOuBpfNGDJRmfByYZXvDgnQzPyNC8g6RCM+t+MgKz8NPMfHQI5KSPRjpIDshKB3PgKH0kC5Skj9aC8RP4Y83heQnICilKBZ1gHRxasEEGl0snsAwQCcirAsNWhks4yA3X5YjdRoFbA4mVfYYQpX0jbed0R4WukXZDlgjrQMmyLmV+UjSBS/8hPTgydHjTKA3gIaoO6BNbMDBAEgIy4L2EoQqddNZZ8FZ4q+WHViAwqlo8AylvcwFRUN4miIqOOA790KRW7PsAVlVLf3PhC4KAyj43TEuJMNh4CVwRwcWL4DrBbhwgJOluTLXea3MxYJTu9sOjIKinh6rF7XEj5xPlWkShgKEw70kLJxSwlNRaBblK7wWSTC4WJSR5xpV0FUjaza2CUoO3MGo+mhZQNyhsvdhaaT4YiJvWT9TPZvT9JLPjzcV8BLttPkJ0G+ZltnqNlfQO/nYqyxHljSQOcBnV73lm4na2mtRatcSGsR1vxrEMcfSSRilaiX+zvLWCbKA+vWe16KiQ+wNxyil5Z0AFSd4IFSSRIKmViSL4JCHp+YkqcHbicM9Vi/E8rS8lQZeGDaMn17ZhoNowerzOI8EzUiJzOC6HHsxkKuTJ4tNUfmgqO1BgVWk9xZAUCURgN3CAlWhYnG6UIwVYLk+H8xU4TsPjoWetr++TEp+PbffAUaoM5BwOXxRhzzJ1w2SeKDC4IBVyBfhZhLl8NYtn31lF2O9KOEqts1LDYcV+r2N1kM0+1/apW1Ars9I9OKzs83Lfbg+1U2Ad7ot8fiz56UZMVFGqQ6fjrkJn+SmkVoSeB6keedUiA8NuLcWbj/TMmUG/ocZHev/+w1pIQW3FecIExXADw6optY3wxQqKEoee8vk9OJ1S+d0X9KJedfo1zyhIfF29aol2Qu3pgGlSo53GAmFFdd1fY6W/7enc/PV196gpjDVfs0Unbtjvic6ON7d3b9KLVudlaeDukUQr8asZ1mmsIHzOS6ylDmvKWeHVV8E6XkN9bZH8oJB/tM9wd/uHh+NXvP7/+rNdPjp+8qOvfwE=);strokeColor=none;spacingTop=-3;spacingBottom=-3;spacingLeft=-3;spacingRight=-3;points=[];labelBackgroundColor=none;rounded=0;html=1;whiteSpace=wrap;" parent="abdKoB1VeoWTYlpOvYKU-348" vertex="1">
          <mxGeometry width="27" height="40" as="geometry" />
        </mxCell>
        <mxCell id="abdKoB1VeoWTYlpOvYKU-352" style="vsdxID=74;fillColor=#2d5967;gradientColor=none;shape=stencil(nZFNCoQwDIVPk610EjyBo/cQrDZMp5Xa+fH2tgRRZuGIu/eSLyHkAVWTaUcNqKYY/EN/uIsG6A6I7IwOHJMCqoGq3gc9BP9ynfixzWRWT//OG74yV6o8gmoWK64R0rLbkRdBpKKks/BNHexdm5fgP2ecf8MRmcT2556tlZj2/d9cUkkypXoB);strokeColor=none;spacingTop=-3;spacingBottom=-3;spacingLeft=-3;spacingRight=-3;points=[];labelBackgroundColor=none;rounded=0;html=1;whiteSpace=wrap;" parent="abdKoB1VeoWTYlpOvYKU-348" vertex="1">
          <mxGeometry x="6" y="30" width="2" height="10" as="geometry" />
        </mxCell>
        <mxCell id="abdKoB1VeoWTYlpOvYKU-353" style="vsdxID=75;fillColor=#2d5967;gradientColor=none;shape=stencil(pVfbdhoxDPwaXnVsydfnNP2PnIYUTmnIIaSlf1/Ttb2yzF5I3xYxWmvGI9m7oYf33dPbdoPq/Xw6/tj+3j+fdxv6skHcv+62p/05PW3ocUMPL8fT9vvp+PH6PPx+e7oir08/j7+ub7gMed6CttcsVH+GiCUw/l/k65Bw2L+yBBdA/WeCsWANT/j2cRpq0rkoBB9ySg4ZDTaHLlhL9yajcogc6By6UI/KIVLg4nTBPGOIIMQZgj1eTYMNgY7TYKkEaYi2VUK1KqAFI1SwEIUIHJRD2gGZ6Tp5Rk6IEO7Bp9J1nOPGU3TdP0eCXwBBzyCo0PKjpCq1/IwDNcOPZ6yyMRoIC76XBLUGFATHnEpQtewcQvAtO9Uy8wbQTReqmiK1mjFj2qGwHu1L13wO3ZXddf2YkSOuerSqpS1QaBWzEaKwO9srEqDbbjBA2G7uLN4qoHlyYgY6QH/H+29MZYGX4gUDDlv1mC5ZqYhAWtiNSUw9ap3leMYKa8QASOvh5c9PgRddNyYU07EGzCKFAN4J07FGpn7TSKLWbrNMaE9rq8G0Hbt4lqY5qMUJMo7GyjAdrwZbhsaAtWLM+ipNHbP1XJ46wVhrlVAAp9v1CQuN8SwfxanrM1QJyVNGNDbLWHOMpZ7RfhYv+SW7eMGvplR6zoITUyuBSs8UevymVE7ppDjOzJXubtXdbbp6Wcq4HxpFwWnA2bbg5DQl9oPbkSb8KPRdNnDreOfBuCbBlVvDFEE2a8uGEJDvCEZBkKOotwNJ1FrDyYSuQwg8tQUHiLJB3Hg6ohCilptuRq6tVool7LMo7r34dvNMhLaZXD2Yb4sXwYl5WO+yaxMU2DmxmUS6s2SdhmxmlnmP3bxn7EiCJlZn9wbdvxcrKMTF1W/03vLyprtx31rfyxs3l2jsDC+8JqXvJqtvvWPnzXaveZbx6WH8DH7ZHw7DVzT/X342p9DwyU2PfwE=);strokeColor=none;spacingTop=-3;spacingBottom=-3;spacingLeft=-3;spacingRight=-3;points=[];labelBackgroundColor=none;rounded=0;html=1;whiteSpace=wrap;" parent="abdKoB1VeoWTYlpOvYKU-348" vertex="1">
          <mxGeometry x="23" width="34" height="40" as="geometry" />
        </mxCell>
        <mxCell id="abdKoB1VeoWTYlpOvYKU-354" style="vsdxID=76;fillColor=#2d5967;gradientColor=none;shape=stencil(nZHBDsIgEES/Zq/Nytqk91r/o0mpEBEailb/XujG2DYaorfZ5Q0ZGKB6VO0gQeAYvDvLSXdBAR1ACG2V9DpEBdQA1b3z8uTd1XY8D20ik7q4W7rhzr4dYvIIfPAsqChp3hwZN9ou8JKKar8y4HcY/wMzEdbwK/9HdPu4n+BMjCwexfvTe20Md7Y835YUV1wwNU8=);strokeColor=none;spacingTop=-3;spacingBottom=-3;spacingLeft=-3;spacingRight=-3;points=[];labelBackgroundColor=none;rounded=0;html=1;whiteSpace=wrap;" parent="abdKoB1VeoWTYlpOvYKU-348" vertex="1">
          <mxGeometry x="30" y="30" width="2" height="10" as="geometry" />
        </mxCell>
        <mxCell id="abdKoB1VeoWTYlpOvYKU-355" style="vsdxID=77;fillColor=#2d5967;gradientColor=none;shape=stencil(UzV2Ls5ILEhVNTIoLinKz04tz0wpyVA1dlE1MsrMy0gtyiwBslSNXVWNndPyi1LTi/JL81Ig/IJEkEoQKze/DGRCBUSfoYEBSI+RQSUq3w2iOCczD49iI2M9U2PileMx2cRMz9CIWMUkOYIC71GiGMhABHlaZk4OJMaQ5dGjCCgEiV5jVwA=);strokeColor=none;spacingTop=-3;spacingBottom=-3;spacingLeft=-3;spacingRight=-3;points=[];labelBackgroundColor=none;rounded=0;html=1;whiteSpace=wrap;" parent="abdKoB1VeoWTYlpOvYKU-348" vertex="1">
          <mxGeometry x="47" y="30" width="2" height="10" as="geometry" />
        </mxCell>
        <mxCell id="abdKoB1VeoWTYlpOvYKU-356" style="vsdxID=66;fillColor=none;gradientColor=none;strokeColor=none;spacingTop=-3;spacingBottom=-3;spacingLeft=-3;spacingRight=-3;points=[];labelBackgroundColor=none;rounded=0;html=1;whiteSpace=wrap;" parent="1" vertex="1">
          <mxGeometry x="-1290" y="430" width="84" height="44" as="geometry" />
        </mxCell>
        <mxCell id="abdKoB1VeoWTYlpOvYKU-357" style="vsdxID=67;fillColor=none;gradientColor=none;strokeColor=none;spacingTop=-3;spacingBottom=-3;spacingLeft=-3;spacingRight=-3;points=[];labelBackgroundColor=none;rounded=0;html=1;whiteSpace=wrap;" parent="abdKoB1VeoWTYlpOvYKU-356" vertex="1">
          <mxGeometry width="84" height="44" as="geometry" />
        </mxCell>
        <mxCell id="abdKoB1VeoWTYlpOvYKU-358" style="vsdxID=68;fillColor=#FFFFFF;gradientColor=none;shape=stencil(lVbLctswDPwaXTEEwec5Tf8j0zi1pq6dUZw2+fvQI/EBWKLjm0gvzAW4XGCgh7f90+tu0OrtPJ3+7P6Pz+f9QD8GrcfjfjeN5/Q10ONADy+nafd7Or0fn+f169MFefn6e/p3+YePOU5dIrT6nFeo5vXPGXoYj5tQb0C5FvzrfZr/GDl8WToDTs9bH3reIsCwgJYd6wBpAdFyDtgMWnYsAfUO9qAiP9tqIMfPdhCsOBvBID/blbBydqc+FoJnJTIBELfxqMC7gZc/s1oPwD5aFgI1GM8rYcCLS0ALhhdCQTS8DhggEC9EAa0yTVeriZGVeMk13ZojzrXhkQWDYAXZJA/LyZIGJciigxi22ZIDw9lWwWzQpUTXcrqtfjLfUCWxrTKjADnfClrlazQIunfiTWLfvY1EiQxPzxDI24iAmmeXEtYiuxZVb8h2ZN5GLPfnIerudTQh2W9AvPimClno4h5SVYTVdF67S0lExvIucJIydl2sDcGiUx+FjSGQUJjBLPaSmY1FdDkz4/ILXfeyJiI7XzaT9QxLPpsBKxkiT7CG1AQJlGwS1wblSjP67htyAYwwXwcWu3wDRPHmAyhhp16XNrftp96DFnT7fhoQHGd7y0+DveqC134aKv+intogFmYhSSFysjf6VIrwXAs3AqICLV48ZSNZD6jDxPd6baTseCUggu0+wFgMr5GnrGDUEJFXMAkvRF7ChDLCA1OHCf3j04QiLK2djnL3Voqfnl4CioZYMVl+lGeqjbmET3pRVqo3Ft4FvmPcFND0USfal/FwmAfi9nc5AaeteXqmxy8=);strokeColor=none;spacingTop=-3;spacingBottom=-3;spacingLeft=-3;spacingRight=-3;points=[];labelBackgroundColor=none;rounded=0;html=1;whiteSpace=wrap;" parent="abdKoB1VeoWTYlpOvYKU-357" vertex="1">
          <mxGeometry x="1" y="1" width="82" height="42" as="geometry" />
        </mxCell>
        <mxCell id="abdKoB1VeoWTYlpOvYKU-359" style="vsdxID=69;fillColor=#FFFFFF;gradientColor=none;shape=stencil(pVlddxwnDP01+6oDiM/nNPkfOYlT76lr52yc1vn3xZ2BEdKMdmjf1vjCSOhyJcEFP/x4/Pz94eLMj9fbyx8Pf1+/vj5e8LeLc9fnx4fb9bX+uuDHC3749nJ7+P328vP56/L398/vyPdff7789b7C2zIvGvD5fZYzv5YRD+Hfvz8t8KfrswpP4OwMHi2UTCd8+XlbDLJyyjqEEYpfht7cMhQKuLKi1iFvIa9Db7iiEmBbax3yQfOPTlhHHCTVP+dVvHDPQkyje31K9y46yHH0LiDYMHoXPZgwehf60L65GbIdzLUZjFPtJRu9DlnTV2kGJ7ftWwsHlDjamyLYMtrbQbvm5h1yjnhubcbNQSvsWC3LETyOxhYwdjQ2S+pYD1nhQiGRXT9d11Dx3YwVn0GNRTGQmHehblEY3SuGMceBY8zJJKjY+aXubCFks51shX87QXTj5yOCYUSgKOwEMtrekhndHoU5hVDtFL6q3tT6ZgJc+VbsBD4JUdHx9YhOGR8T2Kn1q2RPwIMQGR3vCavP4HGSC+gm8TOxdZN7b4myn8JPGcOT1yRcHEIuAmRGSw91c1kuCF0VugIRoWhaSoJ+UoH6Vmxp03H52TSqfZroYxM/CGn8MtdddnwBmUyrsm4F3UTeEJ7hZpLtnrBttTJryRRrCR1PpViH/LDeS7GOHL/DFIskvK5HPLMcW2tBXhCIeoSdzcC1IrB6lZuLROxsJ5plxEFCii1tptFcb0Zb9dLQI+fNLN73k3TgmycVRBuqR5SVyp6kE9c3BQt3bkO18Li2/JFuszRV9SEowZMTKl1RPRl0Sj8ZhZ0ML6vlRorNvZ1OYK7R+X9w1nWJLGBm1lbAXjQwRt1fySDDTkYSm1sFgMkOBeFBaEUSZztwhzxyQqVnVjtJOqUN5V74dgdl0vBe9FqViIX1WnrWoBM6PioU8kZHC++KKMi3OVTYkGcNgtriJ05HAaWvRyFWNjUFPbLXiWhksOwoO6nDBphSORQJvGH2E7Io0RhcpGPSPFhuRMtmJzTHyvTWxeug2BOV8B38GAIPXkGL1OkjZO0uREiaTuDACR80UeP9WbgTFBmTYAEZ22WJVEF5jArBIMMcVr284AmhR799mjXdtesNrNph1UMttosikKzuV2+tGA2Msu+i5lfRnGAqtvb55TwcJ5ZGkQF1OIKdQOcpu73lzFXh9J7yBDzOxSeKVliFp4k9T0KLVHgWdYcKL3MRZcKiYyO/htPhc1vY/vmfwPop5mghELIhZh1xFR3eiJUkLmapeLW0RNL51tw4tf6gczZFzuzzKPsqochFJvRN2/eDJrrWrc8/ut9jx1Cvb+ht54pXm/5cII3V6Z3L4ryjC4DaJaK8uu8N9dFluGx9dy7DvSh/RYDoPTyOmH3tENn9ToZNVmR3QSV6a3l4ax9ldrcZvPaCIxR3LFvOvN+wlikacQNW2Rb4641suDfUUS5hJJufcK+r2HGPdkPH71M1jSbPPHSiK9z6hqNgsCbvzvOiwOtd+lTbrYPrj+1N9dv16Wl5kqX/52+wdWh5v8WP/wA=);strokeColor=none;spacingTop=-3;spacingBottom=-3;spacingLeft=-3;spacingRight=-3;points=[];labelBackgroundColor=none;rounded=0;html=1;whiteSpace=wrap;" parent="abdKoB1VeoWTYlpOvYKU-357" vertex="1">
          <mxGeometry width="84" height="44" as="geometry" />
        </mxCell>
        <mxCell id="abdKoB1VeoWTYlpOvYKU-360" style="vsdxID=70;fillColor=none;gradientColor=none;strokeColor=none;spacingTop=-3;spacingBottom=-3;spacingLeft=-3;spacingRight=-3;points=[];labelBackgroundColor=none;rounded=0;html=1;whiteSpace=wrap;" parent="abdKoB1VeoWTYlpOvYKU-356" vertex="1">
          <mxGeometry x="2" y="2" width="80" height="40" as="geometry" />
        </mxCell>
        <mxCell id="abdKoB1VeoWTYlpOvYKU-361" style="vsdxID=71;fillColor=#2d5967;gradientColor=none;shape=stencil(nVjbUhsxDP2avGpsy9dnSv+DKaFkSgkToA1/X6W7tmV51xt42zjS6ujo6t3hzevj3ct+Z9Tr2+n4a//3cP/2uMNvO2MOz4/70+GNnnZ4u8Obh+Np//N0fH++n36/3F0kL0+/j38ubzhPesGCdRctoz6mE2fBhP8n3yeFH++nSUPPKh68nVXmI2cg+OnobGapBG4++piPnIIw2zrjdBQ1KDNLzUc2grHc/tPhmQEmjdACtmGo4CN43ShoMupHHnoHPrUeWnCmddB5SLZ1ULXOETBrW+fUOk60gC1ONcJoDHhsMaoWoEbQAqAHhy1G4sLHFqMmX8M6TvUZ8ini2MrL6HZ+gZbUp5o2Jgsl03rmNBiRW8Sn8IzS1AwDn8AK47UaOK8xCOvEQhLEegipNe8V4DpVBgF9w5WU76iyEE0LlzIXsYWLxKggyyeIkiwF2gm4RWrFPsVSR2GfvTlz48BGYd9BFHnIq+kqunyAGD9FF+9IWqgUtDGBcgKt79ByKSyNNA6qhmvMCaIGzSD/+SXhDopkoipkHmomDYigSIbYEsHHR46knB8t2CsGTjuhjAYdGgUT8gBaLqReweQRcH0zrTq167AKNb0U9lWJ19pPYDbNowMl+jm5Ks1TIUfZ0BMMrS/U8YJ5ClOQ5rG0lnMtWhc3vBeFzDRW4tvNZ6aiCzl5jp3rSCiBmI8sDYBtvqrUeriSSBf+ZtPnoelRYi+FK/5v5rdUaCvIRbCNvMNhiXbylirUDANC+18QhNCeJgihRmpFQDCWTatkUOgCQquRH7WUMtYLYA9mOAv4Uri+ZlBbNNgCritEHV2VLvwav518G79+M/SgBqOR753L8pIOXttaqFQ2WNXlVYiOxCKx0ABoFVJxaJ4Nf110nKxn1bVfLoUlV/OOW+ybPPiX6dLdBaG4tbyp16T9WLEgPeRL2LqHxhU6Bx5S/acNgruGIeC6/NJleTYNr/SPhp4Sm3MEZ4V7dcqZLslqqZdcx+Xk3bo2Sfm2mPj2XpqyHq9LPt8X67hhfStHKkIS5cF7YA4e2yFqxrbddete0LWLDnAot9Vyj9HdDX3hfsh7YM4tldFVwLK7inV0m+FPK7Qx5DN7jjmRNJxQSHUkGlxR4VelKJd/MiUylAnVCTBf/5ZTlGmUDh2GGw4R0A3UcnOueAMk0RFJKnfy0YYTN+xbhNiZD8I85UGQCxYDWW2JdtV5L/pxFO2qo3dhgRXNh4UtI3N1STB9Bqxz1aWWQLudi/RQP789HJ6epq93/H/5uY6Opk99ePsP);strokeColor=none;spacingTop=-3;spacingBottom=-3;spacingLeft=-3;spacingRight=-3;points=[];labelBackgroundColor=none;rounded=0;html=1;whiteSpace=wrap;" parent="abdKoB1VeoWTYlpOvYKU-360" vertex="1">
          <mxGeometry x="53" width="27" height="40" as="geometry" />
        </mxCell>
        <mxCell id="abdKoB1VeoWTYlpOvYKU-362" style="vsdxID=72;fillColor=#2d5967;gradientColor=none;shape=stencil(UzV2Ls5ILEhVNTIoLinKz04tz0wpyVA1dlE1MsrMy0gtyiwBslSNXVWNndPyi1LTi/JL81Ig/IJEkEoQKze/DGRCBUSfAUiHkUElhGdkrGdqDBZxgyjOyczDqdjQwAC3UpgkWYoJOANdOR6TTYlWSUFAYCgGMhDhnZaZkwOJLmR59PgBCkHi1tgVAA==);strokeColor=none;spacingTop=-3;spacingBottom=-3;spacingLeft=-3;spacingRight=-3;points=[];labelBackgroundColor=none;rounded=0;html=1;whiteSpace=wrap;" parent="abdKoB1VeoWTYlpOvYKU-360" vertex="1">
          <mxGeometry x="71" y="30" width="2" height="10" as="geometry" />
        </mxCell>
        <mxCell id="abdKoB1VeoWTYlpOvYKU-363" style="vsdxID=73;fillColor=#2d5967;gradientColor=none;shape=stencil(pVjbUhsxDP2avGpsyfLlmbb/wRQomVJgArTw9zXN+iI5602mb8FIlnQkHcm7o6uX++vn2x2al9fD08/bP/ub1/sdfdkh7h/vbw/71/xrR193dHX3dLj9cXh6e7w5/v18/Sn5+evX0+/PG96PeonA0acWmo/jCRNg+Hfy7ajw/e1w1LCLCoPHRWU5YgvBH4/ecZEKYOIitRyxAeRFihapVIyZj+XIRUDX23/YP3YOW2OEuy5MxWMATkLBOuBpfNGDJRmfByYZXvDgnQzPyNC8g6RCM+t+MgKz8NPMfHQI5KSPRjpIDshKB3PgKH0kC5Skj9aC8RP4Y83heQnICilKBZ1gHRxasEEGl0snsAwQCcirAsNWhks4yA3X5YjdRoFbA4mVfYYQpX0jbed0R4WukXZDlgjrQMmyLmV+UjSBS/8hPTgydHjTKA3gIaoO6BNbMDBAEgIy4L2EoQqddNZZ8FZ4q+WHViAwqlo8AylvcwFRUN4miIqOOA790KRW7PsAVlVLf3PhC4KAyj43TEuJMNh4CVwRwcWL4DrBbhwgJOluTLXea3MxYJTu9sOjIKinh6rF7XEj5xPlWkShgKEw70kLJxSwlNRaBblK7wWSTC4WJSR5xpV0FUjaza2CUoO3MGo+mhZQNyhsvdhaaT4YiJvWT9TPZvT9JLPjzcV8BLttPkJ0G+ZltnqNlfQO/nYqyxHljSQOcBnV73lm4na2mtRatcSGsR1vxrEMcfSSRilaiX+zvLWCbKA+vWe16KiQ+wNxyil5Z0AFSd4IFSSRIKmViSL4JCHp+YkqcHbicM9Vi/E8rS8lQZeGDaMn17ZhoNowerzOI8EzUiJzOC6HHsxkKuTJ4tNUfmgqO1BgVWk9xZAUCURgN3CAlWhYnG6UIwVYLk+H8xU4TsPjoWetr++TEp+PbffAUaoM5BwOXxRhzzJ1w2SeKDC4IBVyBfhZhLl8NYtn31lF2O9KOEqts1LDYcV+r2N1kM0+1/apW1Ars9I9OKzs83Lfbg+1U2Ad7ot8fiz56UZMVFGqQ6fjrkJn+SmkVoSeB6keedUiA8NuLcWbj/TMmUG/ocZHev/+w1pIQW3FecIExXADw6optY3wxQqKEoee8vk9OJ1S+d0X9KJedfo1zyhIfF29aol2Qu3pgGlSo53GAmFFdd1fY6W/7enc/PV196gpjDVfs0Unbtjvic6ON7d3b9KLVudlaeDukUQr8asZ1mmsIHzOS6ylDmvKWeHVV8E6XkN9bZH8oJB/tM9wd/uHh+NXvP7/+rNdPjp+8qOvfwE=);strokeColor=none;spacingTop=-3;spacingBottom=-3;spacingLeft=-3;spacingRight=-3;points=[];labelBackgroundColor=none;rounded=0;html=1;whiteSpace=wrap;" parent="abdKoB1VeoWTYlpOvYKU-360" vertex="1">
          <mxGeometry width="27" height="40" as="geometry" />
        </mxCell>
        <mxCell id="abdKoB1VeoWTYlpOvYKU-364" style="vsdxID=74;fillColor=#2d5967;gradientColor=none;shape=stencil(nZFNCoQwDIVPk610EjyBo/cQrDZMp5Xa+fH2tgRRZuGIu/eSLyHkAVWTaUcNqKYY/EN/uIsG6A6I7IwOHJMCqoGq3gc9BP9ynfixzWRWT//OG74yV6o8gmoWK64R0rLbkRdBpKKks/BNHexdm5fgP2ecf8MRmcT2556tlZj2/d9cUkkypXoB);strokeColor=none;spacingTop=-3;spacingBottom=-3;spacingLeft=-3;spacingRight=-3;points=[];labelBackgroundColor=none;rounded=0;html=1;whiteSpace=wrap;" parent="abdKoB1VeoWTYlpOvYKU-360" vertex="1">
          <mxGeometry x="6" y="30" width="2" height="10" as="geometry" />
        </mxCell>
        <mxCell id="abdKoB1VeoWTYlpOvYKU-365" style="vsdxID=75;fillColor=#2d5967;gradientColor=none;shape=stencil(pVfbdhoxDPwaXnVsydfnNP2PnIYUTmnIIaSlf1/Ttb2yzF5I3xYxWmvGI9m7oYf33dPbdoPq/Xw6/tj+3j+fdxv6skHcv+62p/05PW3ocUMPL8fT9vvp+PH6PPx+e7oir08/j7+ub7gMed6CttcsVH+GiCUw/l/k65Bw2L+yBBdA/WeCsWANT/j2cRpq0rkoBB9ySg4ZDTaHLlhL9yajcogc6By6UI/KIVLg4nTBPGOIIMQZgj1eTYMNgY7TYKkEaYi2VUK1KqAFI1SwEIUIHJRD2gGZ6Tp5Rk6IEO7Bp9J1nOPGU3TdP0eCXwBBzyCo0PKjpCq1/IwDNcOPZ6yyMRoIC76XBLUGFATHnEpQtewcQvAtO9Uy8wbQTReqmiK1mjFj2qGwHu1L13wO3ZXddf2YkSOuerSqpS1QaBWzEaKwO9srEqDbbjBA2G7uLN4qoHlyYgY6QH/H+29MZYGX4gUDDlv1mC5ZqYhAWtiNSUw9ap3leMYKa8QASOvh5c9PgRddNyYU07EGzCKFAN4J07FGpn7TSKLWbrNMaE9rq8G0Hbt4lqY5qMUJMo7GyjAdrwZbhsaAtWLM+ipNHbP1XJ46wVhrlVAAp9v1CQuN8SwfxanrM1QJyVNGNDbLWHOMpZ7RfhYv+SW7eMGvplR6zoITUyuBSs8UevymVE7ppDjOzJXubtXdbbp6Wcq4HxpFwWnA2bbg5DQl9oPbkSb8KPRdNnDreOfBuCbBlVvDFEE2a8uGEJDvCEZBkKOotwNJ1FrDyYSuQwg8tQUHiLJB3Hg6ohCilptuRq6tVool7LMo7r34dvNMhLaZXD2Yb4sXwYl5WO+yaxMU2DmxmUS6s2SdhmxmlnmP3bxn7EiCJlZn9wbdvxcrKMTF1W/03vLyprtx31rfyxs3l2jsDC+8JqXvJqtvvWPnzXaveZbx6WH8DH7ZHw7DVzT/X342p9DwyU2PfwE=);strokeColor=none;spacingTop=-3;spacingBottom=-3;spacingLeft=-3;spacingRight=-3;points=[];labelBackgroundColor=none;rounded=0;html=1;whiteSpace=wrap;" parent="abdKoB1VeoWTYlpOvYKU-360" vertex="1">
          <mxGeometry x="23" width="34" height="40" as="geometry" />
        </mxCell>
        <mxCell id="abdKoB1VeoWTYlpOvYKU-366" style="vsdxID=76;fillColor=#2d5967;gradientColor=none;shape=stencil(nZHBDsIgEES/Zq/Nytqk91r/o0mpEBEailb/XujG2DYaorfZ5Q0ZGKB6VO0gQeAYvDvLSXdBAR1ACG2V9DpEBdQA1b3z8uTd1XY8D20ik7q4W7rhzr4dYvIIfPAsqChp3hwZN9ou8JKKar8y4HcY/wMzEdbwK/9HdPu4n+BMjCwexfvTe20Md7Y835YUV1wwNU8=);strokeColor=none;spacingTop=-3;spacingBottom=-3;spacingLeft=-3;spacingRight=-3;points=[];labelBackgroundColor=none;rounded=0;html=1;whiteSpace=wrap;" parent="abdKoB1VeoWTYlpOvYKU-360" vertex="1">
          <mxGeometry x="30" y="30" width="2" height="10" as="geometry" />
        </mxCell>
        <mxCell id="abdKoB1VeoWTYlpOvYKU-367" style="vsdxID=77;fillColor=#2d5967;gradientColor=none;shape=stencil(UzV2Ls5ILEhVNTIoLinKz04tz0wpyVA1dlE1MsrMy0gtyiwBslSNXVWNndPyi1LTi/JL81Ig/IJEkEoQKze/DGRCBUSfoYEBSI+RQSUq3w2iOCczD49iI2M9U2PileMx2cRMz9CIWMUkOYIC71GiGMhABHlaZk4OJMaQ5dGjCCgEiV5jVwA=);strokeColor=none;spacingTop=-3;spacingBottom=-3;spacingLeft=-3;spacingRight=-3;points=[];labelBackgroundColor=none;rounded=0;html=1;whiteSpace=wrap;" parent="abdKoB1VeoWTYlpOvYKU-360" vertex="1">
          <mxGeometry x="47" y="30" width="2" height="10" as="geometry" />
        </mxCell>
        <mxCell id="abdKoB1VeoWTYlpOvYKU-368" value="Users" style="text;html=1;align=center;verticalAlign=middle;resizable=0;points=[];autosize=1;strokeColor=none;fillColor=none;" parent="1" vertex="1">
          <mxGeometry x="-1325" y="180" width="50" height="30" as="geometry" />
        </mxCell>
      </root>
    </mxGraphModel>
  </diagram>
</mxfile>
